<svg width="24" height="25" viewBox="0 0 24 25" fill="none" xmlns="http://www.w3.org/2000/svg">
<rect y="0.5" width="24" height="24" rx="12" fill="#BF5E17"/>
<path d="M13.8707 13.276L12.2957 9.195C12.249 9.07367 12.2 8.93367 12.1487 8.775C12.0974 8.61167 12.0484 8.439 12.0017 8.257C11.9037 8.635 11.8034 8.95 11.7007 9.202L10.1257 13.276H13.8707ZM16.6987 17H15.6487C15.5274 17 15.4294 16.9697 15.3547 16.909C15.28 16.8483 15.224 16.7713 15.1867 16.678L14.2487 14.256H9.7477L8.8097 16.678C8.7817 16.762 8.72803 16.8367 8.6487 16.902C8.56936 16.9673 8.47136 17 8.3547 17H7.3047L11.3157 6.969H12.6877L16.6987 17Z" fill="white"/>
</svg>
