<svg width="20" height="20" viewBox="0 0 20 20" fill="none" xmlns="http://www.w3.org/2000/svg">
<path fill-rule="evenodd" clip-rule="evenodd" d="M1 4.42C1 3.63576 1.63576 3 2.42 3H17.58C18.3642 3 19 3.63576 19 4.42C19 5.20424 18.3642 5.84 17.58 5.84H2.42C1.63576 5.84 1 5.20424 1 4.42ZM1 10.26C1 9.47572 1.63576 8.83997 2.42 8.83997H17.58C18.3642 8.83997 19 9.47572 19 10.26C19 11.0442 18.3642 11.68 17.58 11.68H2.42C1.63576 11.68 1 11.0442 1 10.26ZM2.42 14.6799C1.63576 14.6799 1 15.3157 1 16.0999C1 16.8842 1.63576 17.5199 2.42 17.5199H17.58C18.3642 17.5199 19 16.8842 19 16.0999C19 15.3157 18.3642 14.6799 17.58 14.6799H2.42Z" fill="white"/>
</svg>
