<svg width="224" height="224" viewBox="0 0 224 224" fill="none" xmlns="http://www.w3.org/2000/svg">
<circle cx="112" cy="112" r="110" stroke="#15594C" stroke-width="4"/>
<path d="M165.698 64.654C160.392 60.445 152.686 61.341 148.489 66.642L98.2374 130.031L75.5144 101.364C71.3114 96.066 63.6074 95.172 58.3024 99.374C53.0024 103.578 52.1104 111.282 56.3154 116.585L88.6384 157.361C88.6624 157.391 88.6904 157.416 88.7144 157.446C88.9334 157.716 89.1685 157.976 89.4135 158.23C89.4904 158.31 89.5624 158.398 89.6414 158.476C89.9064 158.736 90.1904 158.983 90.4834 159.223C91.0305 159.671 91.6104 160.06 92.2144 160.401C92.3384 160.471 92.4624 160.539 92.5894 160.604C93.1264 160.884 93.6754 161.136 94.2434 161.332C94.2864 161.346 94.3294 161.355 94.3724 161.369C94.9005 161.544 95.4404 161.673 95.9854 161.775C96.1514 161.806 96.3154 161.833 96.4815 161.857C97.0484 161.939 97.6195 161.995 98.1925 161.997C98.2044 161.997 98.2164 162 98.2285 162L98.2365 161.999L98.2454 162C98.2575 162 98.2694 161.997 98.2814 161.997C98.8544 161.995 99.4245 161.939 99.9915 161.857C100.157 161.833 100.322 161.806 100.487 161.775C101.032 161.673 101.571 161.544 102.099 161.37C102.143 161.355 102.188 161.346 102.232 161.331C102.799 161.136 103.347 160.883 103.884 160.604C104.01 160.539 104.134 160.471 104.259 160.401C104.863 160.059 105.444 159.671 105.991 159.222C106.284 158.983 106.566 158.736 106.831 158.476C106.911 158.397 106.984 158.309 107.062 158.227C107.305 157.974 107.54 157.716 107.758 157.447C107.782 157.417 107.811 157.391 107.835 157.361L167.685 81.863C171.89 76.56 170.998 68.856 165.698 64.654L165.698 64.654Z" fill="#15594C"/>
</svg>
