<svg width="20" height="20" viewBox="0 0 20 20" fill="none" xmlns="http://www.w3.org/2000/svg">
<path d="M17.0768 0H2.88773C1.28344 0 0 1.28344 0 2.88773V17.1123C0 18.7166 1.28344 20 2.88773 20H17.1123C18.7166 20 20 18.7166 20 17.1123V2.88773C19.9643 1.28344 18.6809 0 17.0766 0H17.0768ZM2.88773 1.42604H17.1123C17.8966 1.42604 18.574 2.06776 18.574 2.88773V4.27812H1.42563V2.88773C1.42563 2.06776 2.06735 1.42604 2.88732 1.42604H2.88773ZM17.0768 18.5385H2.88773C2.06776 18.5385 1.42604 17.8968 1.42604 17.0768V5.70436H18.5385V17.0768C18.5385 17.8968 17.8968 18.5385 17.0768 18.5385Z" fill="white"/>
<path d="M10.982 10.4556C11.1151 10.7147 11.3654 10.8933 11.6537 10.935L13.3769 11.1841L12.1583 12.3215C11.9359 12.529 11.8334 12.8349 11.8859 13.1346L12.1743 14.783L10.6131 13.9813C10.355 13.8488 10.0489 13.8488 9.79082 13.9813L8.22957 14.783L8.51804 13.1346C8.57048 12.8349 8.468 12.529 8.2456 12.3215L7.02702 11.1841L8.75018 10.935C9.03847 10.8933 9.28875 10.7147 9.42189 10.4556L10.2019 8.93768L10.982 10.4556ZM13.5832 11.214C13.5831 11.214 13.5831 11.2139 13.583 11.2139L13.5832 11.214ZM13.5291 11.042C13.5292 11.042 13.5292 11.0419 13.5293 11.0419L13.5291 11.042ZM6.87461 11.0419C6.87465 11.0419 6.87468 11.042 6.87472 11.042L6.87461 11.0419Z" stroke="white"/>
</svg>
