<svg width="48" height="48" viewBox="0 0 48 48" fill="none" xmlns="http://www.w3.org/2000/svg">
<path d="M44.2092 21.241C44.6089 20.8083 44.8495 20.249 44.7924 19.5141C44.5518 16.4276 44.0379 15.7826 44.7271 14.3904C43.2591 14.8885 42.6881 14.2965 39.6664 13.6474C38.9487 13.4923 38.3573 13.6596 37.8802 13.9944C37.5785 12.4185 36.4693 11.5489 34.4303 12.0144C34.2753 12.1246 34.1285 12.2471 33.9776 12.3655C33.264 12.9452 32.6074 13.6066 31.9998 14.3088L31.5553 14.8518C31.4044 15.0314 31.2739 15.2274 31.1353 15.4152C30.8498 15.7867 30.6011 16.1868 30.3442 16.5828C30.2096 16.7787 30.0995 16.9829 29.9812 17.1911L29.6305 17.8076C29.4103 18.224 29.2064 18.6527 28.9903 19.0773C29.1575 18.6363 29.3206 18.1872 29.4959 17.7463L29.7855 17.0931C29.8834 16.8767 29.9731 16.6563 30.0873 16.444C30.3034 16.0194 30.5154 15.5866 30.7642 15.1784C30.8865 14.9742 31.0007 14.7579 31.1353 14.5619L31.5349 13.9577C32.0651 13.1983 32.6523 12.4716 33.3129 11.798C33.264 11.0386 33.0927 10.2833 32.7502 9.5444C31.7511 7.38471 30.283 7.04177 28.8149 7.89911C28.7538 7.3153 28.4887 6.76414 27.8974 6.32322C25.418 4.46973 24.5983 4.43299 24.0029 3C23.4116 4.43707 22.5879 4.47381 20.1085 6.32322C19.5172 6.76414 19.2562 7.3153 19.191 7.89911C17.7229 7.04177 16.2548 7.38471 15.2557 9.5444C14.8806 10.3609 14.7052 11.1978 14.6848 12.0389C15.2516 12.6431 15.7614 13.284 16.2304 13.9536L16.63 14.5578C16.7646 14.7579 16.8747 14.9702 17.0011 15.1743C17.2539 15.5826 17.4619 16.0153 17.678 16.4399C17.7922 16.6481 17.8819 16.8727 17.9798 17.089L18.2693 17.7422C18.4447 18.1832 18.6078 18.6322 18.775 19.0732C18.5589 18.6486 18.355 18.224 18.1348 17.8035L17.7841 17.187C17.6658 16.9829 17.5557 16.7747 17.4211 16.5787C17.1642 16.1827 16.9155 15.7826 16.63 15.4111C16.4873 15.2233 16.3609 15.0273 16.21 14.8477L15.7655 14.3047C15.1334 13.578 14.4564 12.8962 13.7143 12.3001C13.7143 12.3001 13.7143 12.3001 13.7102 12.3001C11.5856 11.7612 10.4356 12.6349 10.1257 14.2435C9.64446 13.9046 9.05723 13.7413 8.33951 13.8964C5.31366 14.5456 4.74683 15.1376 3.27469 14.6395C3.96386 16.0316 3.45004 16.6726 3.20944 19.7631C3.15235 20.498 3.39295 21.0573 3.79259 21.4901C2.18179 22.0331 1.47223 23.364 2.4387 25.54C3.29508 27.4711 4.98743 28.6509 6.89591 29.3654C6.98971 29.3817 7.0835 29.3981 7.17729 29.4103L7.51576 29.4552L7.85423 29.4838C8.0826 29.5083 8.31097 29.5124 8.53933 29.5205C9.45687 29.545 10.3826 29.4756 11.3083 29.3368L11.9974 29.2143C12.2299 29.1776 12.4542 29.1123 12.6825 29.0633C13.1433 28.9694 13.5919 28.8265 14.0405 28.6958C14.2689 28.6346 14.4891 28.5529 14.7093 28.4713L15.3781 28.2345C15.8185 28.059 16.2507 27.8712 16.6912 27.6874C16.2752 27.912 15.8593 28.1488 15.4392 28.3692L14.7949 28.6754C14.5788 28.7775 14.3667 28.8836 14.1424 28.9694C13.702 29.149 13.2616 29.3409 12.8049 29.4879C12.5765 29.5614 12.3522 29.6512 12.1198 29.7165L11.4265 29.9125C10.4927 30.1492 9.53843 30.3289 8.55972 30.4024C8.37621 30.4146 8.1927 30.4269 8.00919 30.4309C7.32818 31.1576 6.79396 32.0109 6.49627 33.0316C5.82749 35.3178 6.70832 36.5426 8.37621 36.8651C8.03774 37.3469 7.87462 37.9347 8.02959 38.6533C8.67798 41.6826 9.26928 42.2501 8.77177 43.7239C10.1624 43.0339 10.8026 43.5483 13.8896 43.7892C14.6236 43.8464 15.1823 43.6055 15.6146 43.2054C16.157 44.818 17.4864 45.5284 19.6599 44.5608C21.601 43.6953 22.7836 41.9888 23.4973 40.0659C23.4483 39.4086 23.4402 38.7553 23.4646 38.1021L23.5095 37.3795C23.5217 37.1386 23.5625 36.9018 23.587 36.661C23.6318 36.1833 23.7256 35.7138 23.8072 35.2402C23.8439 35.0035 23.901 34.7707 23.9581 34.5421L24.1212 33.8481C24.2476 33.3908 24.3904 32.9336 24.5208 32.4804C24.4352 32.9499 24.3414 33.4112 24.2639 33.8767L24.1742 34.5789C24.1457 34.8116 24.109 35.0443 24.0967 35.2811C24.0641 35.7506 24.0193 36.2201 24.0233 36.6896C24.0233 36.9223 24.007 37.1591 24.0193 37.3918L24.0478 38.094C24.0478 38.094 24.0478 38.094 24.0478 38.0981C24.06 38.2777 24.0927 38.4573 24.1375 38.6288C24.7778 41.013 26.0174 43.2625 28.346 44.2995C30.5195 45.2671 31.8489 44.5567 32.3913 42.9441C32.8236 43.3442 33.3822 43.5851 34.1163 43.5279C37.1992 43.287 37.8435 42.7726 39.2341 43.4626C38.7366 41.9928 39.3279 41.4213 39.9763 38.392C40.1313 37.6735 39.9641 37.0815 39.6297 36.6038C41.2976 36.2813 42.1784 35.0565 41.5096 32.7703C41.2486 31.8762 40.8 31.1046 40.2332 30.4391L39.911 30.435C39.6664 30.435 39.4217 30.4146 39.177 30.3983C38.2024 30.3248 37.2441 30.1492 36.3102 29.9084L35.617 29.7124C35.3845 29.6512 35.1602 29.5614 34.9319 29.4838C34.4751 29.3368 34.0347 29.149 33.5943 28.9653C33.37 28.8796 33.158 28.7734 32.9418 28.6714L32.2975 28.3652C31.8775 28.1447 31.4615 27.912 31.0456 27.6834C31.486 27.8671 31.9183 28.0549 32.3587 28.2304L33.0275 28.4672C33.2477 28.5448 33.472 28.6305 33.6962 28.6918C34.1489 28.8224 34.5975 28.9653 35.0542 29.0592C35.2826 29.1082 35.5069 29.1735 35.7393 29.2102L36.4285 29.3327C37.3501 29.4675 38.2758 29.5409 39.1974 29.5164C39.4258 29.5042 39.6541 29.5042 39.8825 29.4797L39.9722 29.4715C42.3252 28.8224 44.5395 27.5854 45.5631 25.2787C46.5255 23.1149 45.82 21.784 44.2092 21.241ZM30.4135 29.2511C30.4135 29.5613 30.1607 29.8145 29.8507 29.8145C29.5408 29.8145 29.288 29.5613 29.288 29.2511C29.288 28.9408 29.5408 28.6877 29.8507 28.6877C30.1607 28.6836 30.4135 28.9367 30.4135 29.2511ZM30.1117 20.2979C30.4216 20.2979 30.6745 20.5511 30.6745 20.8613C30.6745 21.1716 30.4216 21.4247 30.1117 21.4247C29.8018 21.4247 29.549 21.1716 29.549 20.8613C29.549 20.5511 29.8018 20.2979 30.1117 20.2979ZM26.78 17.1421C27.09 17.1421 27.3428 17.3952 27.3428 17.7055C27.3428 18.0158 27.09 18.2689 26.78 18.2689C26.4701 18.2689 26.2173 18.0158 26.2173 17.7055C26.2132 17.3952 26.466 17.1421 26.78 17.1421ZM23.8439 9.31985C23.8724 8.50741 23.9132 7.6909 23.9948 6.87846C24.0763 7.6909 24.1171 8.50741 24.1457 9.31985C24.1783 10.1323 24.1864 10.9488 24.1905 11.7612C24.1864 12.5737 24.1783 13.3902 24.1457 14.2026C24.1171 15.0151 24.0763 15.8316 23.9907 16.644C23.9092 15.8316 23.8684 15.0151 23.8357 14.2026C23.8031 13.3902 23.795 12.5737 23.795 11.7612C23.8031 10.9447 23.8154 10.1323 23.8439 9.31985ZM21.4175 16.9298C21.7274 16.9298 21.9803 17.1829 21.9803 17.4932C21.9803 17.8035 21.7274 18.0566 21.4175 18.0566C21.1076 18.0566 20.8548 17.8035 20.8548 17.4932C20.8548 17.1829 21.1076 16.9298 21.4175 16.9298ZM17.1805 20.3959C17.4904 20.3959 17.7433 20.649 17.7433 20.9593C17.7433 21.2696 17.4904 21.5227 17.1805 21.5227C16.8706 21.5227 16.6178 21.2696 16.6178 20.9593C16.6178 20.649 16.8706 20.3959 17.1805 20.3959ZM14.2811 22.18C13.3228 21.6248 12.3808 21.0491 11.4388 20.4653C10.5008 19.8774 9.5629 19.2895 8.64128 18.6772C7.71558 18.0729 6.80212 17.4442 5.90089 16.7992C6.8796 17.3177 7.85015 17.8566 8.8044 18.42C9.76272 18.9752 10.7047 19.5508 11.6508 20.1346C12.5887 20.7225 13.5267 21.3104 14.4483 21.9228C15.374 22.527 16.2874 23.1558 17.1887 23.8049C16.2018 23.2823 15.2353 22.7393 14.2811 22.18ZM16.1773 25.6257C16.1773 25.3154 16.4302 25.0623 16.7401 25.0623C17.05 25.0623 17.3029 25.3154 17.3029 25.6257C17.3029 25.936 17.05 26.1891 16.7401 26.1891C16.4302 26.1891 16.1773 25.936 16.1773 25.6257ZM17.0582 33.1663C16.4424 34.0889 15.8103 34.9953 15.1701 35.9016C14.5258 36.8039 13.8774 37.702 13.2127 38.5839C12.552 39.4698 11.8669 40.3435 11.1655 41.2049C11.7446 40.2577 12.3441 39.3269 12.9639 38.4083C13.5797 37.4857 14.2118 36.5793 14.852 35.673C15.4963 34.7707 16.1447 33.8726 16.8094 32.9907C17.4701 32.1007 18.1552 31.2311 18.8566 30.3697C18.2775 31.3169 17.678 32.2518 17.0582 33.1663ZM18.4773 29.2511C18.1674 29.2511 17.9145 28.9979 17.9145 28.6877C17.9145 28.3774 18.1674 28.1243 18.4773 28.1243C18.7872 28.1243 19.0401 28.3774 19.0401 28.6877C19.0401 28.9979 18.7872 29.2511 18.4773 29.2511ZM22.278 32.3661C21.968 32.3661 21.7152 32.113 21.7152 31.8027C21.7152 31.4924 21.968 31.2393 22.278 31.2393C22.5879 31.2393 22.8407 31.4924 22.8407 31.8027C22.8407 32.113 22.5879 32.3661 22.278 32.3661ZM27.0818 31.8027C26.7719 31.8027 26.519 31.5496 26.519 31.2393C26.519 30.929 26.7719 30.6759 27.0818 30.6759C27.3917 30.6759 27.6446 30.929 27.6446 31.2393C27.6446 31.5496 27.3917 31.8027 27.0818 31.8027ZM24.1049 30.1901C20.7691 30.1901 18.0899 27.3812 18.2979 23.9927C18.4773 21.094 20.8344 18.7302 23.7338 18.5506C27.1144 18.3424 29.9241 21.0246 29.9241 24.3642C29.9241 24.3683 29.9241 24.3724 29.9241 24.3765C29.9241 25.1889 29.6428 25.9809 29.1371 26.6137C28.9658 26.826 28.7782 27.0301 28.5703 27.222C27.4896 28.2223 26.0827 28.7408 24.6106 28.6836C22.2127 28.5897 20.3369 26.5566 20.4347 24.156C20.5081 22.2658 22.1067 20.7919 23.9948 20.8654C25.1081 20.9103 26.0419 21.633 26.4049 22.6209C26.7882 23.662 26.3885 24.7929 25.4425 25.3726C24.6636 25.8503 23.799 25.7115 23.2771 25.144C22.9957 24.8378 22.8407 24.4418 22.8489 24.0254C22.853 23.7763 22.9264 23.5273 23.0691 23.3272C23.3178 22.9802 23.7053 22.7924 24.113 22.8006C24.2884 22.8047 24.4556 22.8536 24.5983 22.9475C24.8797 23.1353 25.0347 23.4415 25.0184 23.7641C25.0184 23.7967 25.0102 23.8294 24.998 23.858C24.7411 24.4867 24.2191 24.5438 23.9662 24.2662C23.8765 24.1682 23.8317 24.0458 23.8357 23.911C23.8439 23.7518 23.7175 23.6171 23.5584 23.613C23.3994 23.6048 23.2648 23.7314 23.2608 23.8906C23.2444 24.2662 23.4239 24.6214 23.7542 24.8378C23.8888 24.9276 24.0437 24.9807 24.2028 24.997C24.6432 25.0419 25.0673 24.8582 25.3446 24.4949C25.5036 24.2866 25.5893 24.0254 25.5933 23.7641C25.6056 23.2742 25.3813 22.8128 24.9694 22.5107C24.7288 22.3352 24.4434 22.2413 24.1497 22.229C23.1547 22.1882 22.3106 22.968 22.2739 23.9641C22.225 25.1726 23.167 26.1932 24.374 26.2381C25.2793 26.2749 26.1357 25.8584 26.6781 25.0827C26.9676 24.6704 27.1185 24.1764 27.1389 23.6742C27.1797 22.6536 26.7474 21.686 25.94 21.0165C25.3609 20.5388 24.635 20.2939 23.8847 20.2857C21.7397 20.2694 19.9454 21.9677 19.8597 24.1315C19.7537 26.8505 21.8743 29.149 24.5902 29.2552C26.1643 29.3164 27.669 28.7816 28.8476 27.7446C27.7873 29.2225 26.0582 30.1901 24.1049 30.1901ZM33.0968 35.7832C33.8104 36.6324 34.5159 37.4816 35.2092 38.3471C35.9024 39.2085 36.5794 40.0863 37.2359 40.9804C36.4652 40.1843 35.7108 39.3718 34.9767 38.5431C34.2386 37.7184 33.5168 36.8774 32.7991 36.0363C32.0854 35.1872 31.38 34.338 30.6867 33.4725C29.9935 32.611 29.3165 31.7333 28.66 30.8351C29.4348 31.6312 30.1851 32.4437 30.9192 33.2724C31.6573 34.1012 32.3791 34.9422 33.0968 35.7832ZM31.2413 25.9034C30.9314 25.9034 30.6786 25.6502 30.6786 25.34C30.6786 25.0297 30.9314 24.7766 31.2413 24.7766C31.5512 24.7766 31.8041 25.0297 31.8041 25.34C31.8041 25.6502 31.5512 25.9034 31.2413 25.9034ZM40.0986 18.3832C39.1444 18.9466 38.182 19.4896 37.2155 20.0285C36.245 20.5633 35.2744 21.09 34.2916 21.6003C33.3129 22.1147 32.3179 22.6046 31.3106 23.0741C32.2404 22.4699 33.1865 21.8902 34.1407 21.3308C35.095 20.7674 36.0574 20.2245 37.0239 19.6856C37.9944 19.1548 38.965 18.6241 39.9477 18.1178C40.9305 17.6034 41.9215 17.1135 42.9247 16.644C41.999 17.2442 41.0529 17.8239 40.0986 18.3832Z" fill="#E5457F"/>
</svg>
