<svg width="48" height="48" viewBox="0 0 48 48" fill="none" xmlns="http://www.w3.org/2000/svg">
<path d="M46 21.1996C46 16.1727 41.8928 12.0998 36.8238 12.0998C35.5129 12.0998 34.2701 12.3741 33.1422 12.8637C33.1635 12.6105 33.1763 12.3572 33.1763 12.0998C33.1763 7.07296 29.0691 3 24 3C18.9309 3 14.8237 7.07296 14.8237 12.0998C14.8237 12.3572 14.8365 12.6105 14.8578 12.8637C13.7299 12.3741 12.4871 12.0998 11.1762 12.0998C6.10718 12.0998 2 16.1727 2 21.1996C2 25.5089 5.02611 29.1218 9.08222 30.0588C7.74579 31.6415 6.94138 33.6759 6.94138 35.9002C6.94138 40.927 11.0486 45 16.1176 45C19.4672 45 22.3997 43.2189 24 40.5598C25.6003 43.2189 28.5328 45 31.8824 45C36.9514 45 41.0586 40.927 41.0586 35.9002C41.0586 33.6759 40.2542 31.6415 38.9178 30.0588C42.9739 29.1176 46 25.5089 46 21.1996ZM26.0174 17.2617C26.1579 16.8903 26.575 16.7003 26.9495 16.8396C27.3241 16.9789 27.5156 17.3925 27.3751 17.7639C27.2347 18.1354 26.8176 18.3253 26.443 18.186C26.0685 18.0467 25.877 17.6331 26.0174 17.2617ZM24 16.312C24.4001 16.312 24.7235 16.6328 24.7235 17.0295C24.7235 17.4263 24.4001 17.7471 24 17.7471C23.5999 17.7471 23.2765 17.4263 23.2765 17.0295C23.2722 16.6328 23.5957 16.312 24 16.312ZM20.7568 16.9536C21.1271 16.8016 21.5527 16.9747 21.7059 17.3419C21.8592 17.7091 21.6847 18.1311 21.3144 18.2831C20.9441 18.435 20.5185 18.262 20.3653 17.8948C20.212 17.5276 20.3865 17.1055 20.7568 16.9536ZM18.0329 18.76C18.318 18.4772 18.7735 18.4772 19.0586 18.76C19.3438 19.0428 19.3438 19.4944 19.0586 19.7772C18.7735 20.06 18.318 20.06 18.0329 19.7772C17.752 19.4986 17.752 19.0428 18.0329 18.76ZM16.0963 21.7483C16.2368 21.3768 16.6539 21.1869 17.0284 21.3262C17.403 21.4655 17.5945 21.8791 17.4541 22.2505C17.3136 22.6219 16.8965 22.8119 16.522 22.6726C16.1474 22.5333 15.9559 22.1197 16.0963 21.7483ZM15.5643 24.6774C15.5643 24.2807 15.8878 23.9599 16.2879 23.9599C16.6879 23.9599 17.0114 24.2807 17.0114 24.6774C17.0114 25.0742 16.6879 25.3949 16.2879 25.3949C15.8878 25.3949 15.5643 25.0742 15.5643 24.6774ZM17.1604 28.2777C16.7901 28.4296 16.3645 28.2566 16.2113 27.8894C16.058 27.5222 16.2325 27.1001 16.6028 26.9481C16.9731 26.7962 17.3987 26.9692 17.5519 27.3364C17.7052 27.7036 17.5264 28.1257 17.1604 28.2777ZM19.0586 30.5906C18.7735 30.8734 18.318 30.8734 18.0329 30.5906C17.7477 30.3078 17.7477 29.8562 18.0329 29.5734C18.318 29.2906 18.7735 29.2906 19.0586 29.5734C19.3438 29.8562 19.3438 30.3078 19.0586 30.5906ZM21.9783 32.0889C21.8379 32.4604 21.4208 32.6503 21.0462 32.511C20.6717 32.3717 20.4802 31.9581 20.6206 31.5867C20.7611 31.2153 21.1782 31.0253 21.5527 31.1646C21.9273 31.3039 22.1188 31.7175 21.9783 32.0889ZM24 33.0386C23.5999 33.0386 23.2765 32.7178 23.2765 32.3211C23.2765 31.9243 23.5999 31.6036 24 31.6036C24.4001 31.6036 24.7235 31.9243 24.7235 32.3211C24.7235 32.7178 24.4001 33.0386 24 33.0386ZM27.2389 32.397C26.8686 32.549 26.443 32.3759 26.2898 32.0087C26.1366 31.6415 26.3111 31.2195 26.6814 31.0675C27.0517 30.9156 27.4773 31.0886 27.6305 31.4558C27.7837 31.823 27.6092 32.2451 27.2389 32.397ZM24 30.7636C20.6078 30.7636 17.8584 28.0371 17.8584 24.6732C17.8584 21.3093 20.6078 18.5828 24 18.5828C27.3921 18.5828 30.1416 21.3093 30.1416 24.6732C30.1374 28.0371 27.3879 30.7636 24 30.7636ZM29.9629 30.5906C29.6777 30.8734 29.2223 30.8734 28.9371 30.5906C28.652 30.3078 28.652 29.8562 28.9371 29.5734C29.218 29.2906 29.6777 29.2906 29.9629 29.5734C30.2438 29.8562 30.2438 30.3078 29.9629 30.5906ZM29.9629 19.7772C29.6777 20.06 29.2223 20.06 28.9371 19.7772C28.652 19.4944 28.652 19.0428 28.9371 18.76C29.218 18.4772 29.6777 18.4772 29.9629 18.76C30.2438 19.0428 30.2438 19.4986 29.9629 19.7772ZM30.8354 21.0772C31.2057 20.9252 31.6313 21.0983 31.7845 21.4655C31.9377 21.8327 31.7632 22.2547 31.3929 22.4067C31.0226 22.5586 30.597 22.3856 30.4438 22.0184C30.2906 21.647 30.4693 21.2291 30.8354 21.0772ZM31.8994 27.6024C31.759 27.9738 31.3419 28.1637 30.9673 28.0244C30.5928 27.8851 30.4012 27.4715 30.5417 27.1001C30.6822 26.7287 31.0993 26.5387 31.4738 26.678C31.8483 26.8173 32.0399 27.2309 31.8994 27.6024ZM31.7079 25.3949C31.3078 25.3949 30.9843 25.0742 30.9843 24.6774C30.9843 24.2807 31.3078 23.9599 31.7079 23.9599C32.108 23.9599 32.4314 24.2807 32.4314 24.6774C32.4314 25.0742 32.108 25.3949 31.7079 25.3949Z" fill="#15594C"/>
</svg>
