<svg width="20" height="20" viewBox="0 0 20 20" fill="none" xmlns="http://www.w3.org/2000/svg">
<path d="M18.5934 9.42709H11.3364C11.0202 9.42709 10.7635 9.17043 10.7635 8.85418C10.7635 8.53792 11.0202 8.28126 11.3364 8.28126H18.5934C18.9097 8.28126 19.1664 8.53792 19.1664 8.85418C19.1664 9.17043 18.9097 9.42709 18.5934 9.42709Z" fill="white"/>
<path d="M15.7288 12.2917C15.5821 12.2917 15.4355 12.2359 15.3239 12.1237C15.1001 11.8998 15.1001 11.5369 15.3239 11.3131L17.7837 8.85348L15.3239 6.39368C15.1001 6.16988 15.1001 5.80706 15.3239 5.58326C15.5478 5.35932 15.9107 5.35932 16.1345 5.58326L18.9991 8.44785C19.2228 8.67164 19.2228 9.03447 18.9991 9.25827L16.1345 12.1229C16.0221 12.2359 15.8756 12.2917 15.7288 12.2917V12.2917Z" fill="white"/>
<path d="M6.94419 19.1667C6.78068 19.1667 6.62556 19.1437 6.47058 19.0956L1.8734 17.564C1.2479 17.3455 0.833035 16.7627 0.833035 16.1112V2.36116C0.833035 1.51857 1.51827 0.833334 2.36086 0.833334C2.52423 0.833334 2.67935 0.856273 2.83447 0.904389L7.4315 2.43599C8.05715 2.65447 8.47187 3.23732 8.47187 3.88884V17.6388C8.47187 18.4814 7.78678 19.1667 6.94419 19.1667ZM2.36086 1.97917C2.15077 1.97917 1.97887 2.15107 1.97887 2.36116V16.1112C1.97887 16.2738 2.08811 16.425 2.24393 16.4793L6.81956 18.004C6.85243 18.0147 6.89523 18.0208 6.94419 18.0208C7.15428 18.0208 7.32604 17.8489 7.32604 17.6388V3.88884C7.32604 3.72617 7.2168 3.57497 7.06098 3.5207L2.48534 1.99595C2.45247 1.98532 2.40967 1.97917 2.36086 1.97917V1.97917Z" fill="white"/>
<path d="M12.4823 6.94449C12.166 6.94449 11.9093 6.68783 11.9093 6.37157V2.93407C11.9093 2.40774 11.4809 1.97917 10.9546 1.97917H2.36083C2.04458 1.97917 1.78791 1.7225 1.78791 1.40625C1.78791 1.09 2.04458 0.833334 2.36083 0.833334H10.9546C12.1134 0.833334 13.0552 1.77523 13.0552 2.93407V6.37157C13.0552 6.68783 12.7985 6.94449 12.4823 6.94449Z" fill="white"/>
<path d="M10.9547 16.875H7.899C7.58274 16.875 7.32608 16.6183 7.32608 16.3021C7.32608 15.9858 7.58274 15.7291 7.899 15.7291H10.9547C11.481 15.7291 11.9094 15.3006 11.9094 14.7742V11.3367C11.9094 11.0205 12.1661 10.7638 12.4823 10.7638C12.7986 10.7638 13.0553 11.0205 13.0553 11.3367V14.7742C13.0553 15.9331 12.1135 16.875 10.9547 16.875V16.875Z" fill="white"/>
</svg>
