<svg width="21" height="20" viewBox="0 0 21 20" fill="none" xmlns="http://www.w3.org/2000/svg">
<path d="M13.6457 0C11.7589 0 10.2171 1.54179 10.2171 3.42852C10.2171 3.98934 10.3511 4.52245 10.5922 4.99102L6.16359 8.25893C5.56293 7.74194 4.78186 7.42867 3.93145 7.42867C2.04472 7.42867 0.50293 8.97046 0.50293 10.8572C0.50293 12.7439 2.04472 14.2857 3.93145 14.2857C4.8564 14.2857 5.69722 13.9214 6.31548 13.3215L13.6905 16.0268C13.6616 16.205 13.6458 16.3855 13.6458 16.5715C13.6458 18.4582 15.1876 20 17.0744 20C18.9611 20 20.5029 18.4582 20.5029 16.5715C20.5029 14.6847 18.9611 13.143 17.0744 13.143C15.7771 13.143 14.6387 13.878 14.0566 14.9466L7.01222 12.3573C7.23404 11.9041 7.36039 11.3937 7.36039 10.8574C7.36039 10.2314 7.19178 9.64949 6.89602 9.14306L11.28 5.90209C11.8968 6.49418 12.7281 6.85755 13.6461 6.85755C15.5328 6.85755 17.0746 5.31577 17.0746 3.42903C17.0746 1.5423 15.5328 0.000510313 13.6461 0.000510313L13.6457 0ZM13.6457 1.14276C14.9148 1.14276 15.9314 2.15939 15.9314 3.42852C15.9314 4.69765 14.9148 5.71429 13.6457 5.71429C12.3765 5.71429 11.3599 4.69765 11.3599 3.42852C11.3599 2.15939 12.3765 1.14276 13.6457 1.14276ZM3.93137 8.57133C5.2005 8.57133 6.21713 9.58796 6.21713 10.8571C6.21713 12.1262 5.2005 13.1429 3.93137 13.1429C2.66224 13.1429 1.6456 12.1262 1.6456 10.8571C1.6456 9.58796 2.66224 8.57133 3.93137 8.57133ZM17.0742 14.2856C18.3434 14.2856 19.36 15.3022 19.36 16.5714C19.36 17.8405 18.3434 18.8571 17.0742 18.8571C15.8051 18.8571 14.7885 17.8405 14.7885 16.5714C14.7885 15.3022 15.8051 14.2856 17.0742 14.2856Z" fill="#E55D45"/>
</svg>
