<svg width="120" height="24" viewBox="0 0 120 24" fill="none" xmlns="http://www.w3.org/2000/svg">
<path d="M11.5317 2.25247C11.6936 1.8193 12.3064 1.8193 12.4683 2.25247L14.5997 7.95238C14.6699 8.14031 14.8457 8.26803 15.0462 8.27679L21.1257 8.54244C21.5878 8.56263 21.7771 9.14535 21.4152 9.43326L16.6529 13.2216C16.4958 13.3465 16.4287 13.5532 16.4823 13.7465L18.1083 19.6106C18.2319 20.0563 17.7362 20.4164 17.3506 20.1612L12.276 16.8026C12.1086 16.6919 11.8914 16.6919 11.724 16.8026L6.64943 20.1612C6.26378 20.4164 5.76809 20.0563 5.89166 19.6106L7.5177 13.7465C7.57131 13.5532 7.50416 13.3465 7.34715 13.2216L2.58483 9.43326C2.22291 9.14535 2.41225 8.56263 2.87427 8.54244L8.95383 8.27679C9.15427 8.26803 9.33006 8.14031 9.40033 7.95238L11.5317 2.25247Z" fill="#E55D45"/>
<path d="M35.5317 2.25247C35.6936 1.8193 36.3064 1.8193 36.4683 2.25247L38.5997 7.95238C38.6699 8.14031 38.8457 8.26803 39.0462 8.27679L45.1257 8.54244C45.5878 8.56263 45.7771 9.14535 45.4152 9.43326L40.6529 13.2216C40.4958 13.3465 40.4287 13.5532 40.4823 13.7465L42.1083 19.6106C42.2319 20.0563 41.7362 20.4164 41.3506 20.1612L36.276 16.8026C36.1086 16.6919 35.8914 16.6919 35.724 16.8026L30.6494 20.1612C30.2638 20.4164 29.7681 20.0563 29.8917 19.6106L31.5177 13.7465C31.5713 13.5532 31.5042 13.3465 31.3471 13.2216L26.5848 9.43326C26.2229 9.14535 26.4122 8.56263 26.8743 8.54244L32.9538 8.27679C33.1543 8.26803 33.3301 8.14031 33.4003 7.95238L35.5317 2.25247Z" fill="#E55D45"/>
<path d="M59.5317 2.25247C59.6936 1.8193 60.3064 1.8193 60.4683 2.25247L62.5997 7.95238C62.6699 8.14031 62.8457 8.26803 63.0462 8.27679L69.1257 8.54244C69.5878 8.56263 69.7771 9.14535 69.4152 9.43326L64.6529 13.2216C64.4958 13.3465 64.4287 13.5532 64.4823 13.7465L66.1083 19.6106C66.2319 20.0563 65.7362 20.4164 65.3506 20.1612L60.276 16.8026C60.1086 16.6919 59.8914 16.6919 59.724 16.8026L54.6494 20.1612C54.2638 20.4164 53.7681 20.0563 53.8917 19.6106L55.5177 13.7465C55.5713 13.5532 55.5042 13.3465 55.3471 13.2216L50.5848 9.43326C50.2229 9.14535 50.4122 8.56263 50.8743 8.54244L56.9538 8.27679C57.1543 8.26803 57.3301 8.14031 57.4003 7.95238L59.5317 2.25247Z" fill="#E55D45"/>
<path d="M83.5317 2.25247C83.6936 1.8193 84.3064 1.8193 84.4683 2.25247L86.5997 7.95238C86.6699 8.14031 86.8457 8.26803 87.0462 8.27679L93.1257 8.54244C93.5878 8.56263 93.7771 9.14535 93.4152 9.43326L88.6529 13.2216C88.4958 13.3465 88.4287 13.5532 88.4823 13.7465L90.1083 19.6106C90.2319 20.0563 89.7362 20.4164 89.3506 20.1612L84.276 16.8026C84.1086 16.6919 83.8914 16.6919 83.724 16.8026L78.6494 20.1612C78.2638 20.4164 77.7681 20.0563 77.8917 19.6106L79.5177 13.7465C79.5713 13.5532 79.5042 13.3465 79.3471 13.2216L74.5848 9.43326C74.2229 9.14535 74.4122 8.56263 74.8743 8.54244L80.9538 8.27679C81.1543 8.26803 81.3301 8.14031 81.4003 7.95238L83.5317 2.25247Z" fill="#E55D45"/>
<path d="M106.337 8.30262L108 3.85518L109.663 8.30262L110.6 7.95238L109.663 8.30263C109.874 8.86639 110.401 9.24956 111.003 9.27583L115.746 9.48311L112.03 12.4391C111.559 12.8138 111.358 13.4337 111.519 14.0137L112.787 18.5893L108.828 15.9687C108.326 15.6365 107.674 15.6365 107.172 15.9687L103.213 18.5893L104.481 14.0137C104.642 13.4337 104.441 12.8138 103.97 12.4391L100.254 9.48311L104.997 9.27583C105.599 9.24956 106.126 8.86639 106.337 8.30263L105.4 7.95238L106.337 8.30262ZM113.145 19.8778C113.145 19.8776 113.145 19.8774 113.144 19.8771L113.145 19.8778Z" stroke="#E55D45" stroke-width="2"/>
</svg>
