<svg width="1540" height="82" viewBox="0 0 1540 82" fill="none" xmlns="http://www.w3.org/2000/svg">
<path d="M0 1H1240" stroke="#F7A269" stroke-width="2"/>
<path d="M1345.04 1.94698H1298.79C1298.26 1.94698 1297.83 1.52097 1297.83 0.994969C1297.83 0.467979 1298.26 0.0429688 1298.79 0.0429688H1345.04C1345.57 0.0429688 1345.99 0.467969 1345.99 0.994969C1345.99 1.52097 1345.57 1.94698 1345.04 1.94698Z" fill="#F7A269"/>
<path d="M1287.53 1.94698H1280.09C1279.56 1.94698 1279.13 1.52097 1279.13 0.994969C1279.13 0.467979 1279.56 0.0429688 1280.09 0.0429688H1287.53C1288.05 0.0429688 1288.48 0.467969 1288.48 0.994969C1288.48 1.52097 1288.05 1.94698 1287.53 1.94698Z" fill="#F7A269"/>
<path d="M1268.84 1.94698H1261.39C1260.87 1.94698 1260.44 1.52097 1260.44 0.994969C1260.44 0.467979 1260.87 0.0429688 1261.39 0.0429688H1268.84C1269.36 0.0429688 1269.79 0.467969 1269.79 0.994969C1269.79 1.52097 1269.36 1.94698 1268.84 1.94698Z" fill="#F7A269"/>
<path d="M1481.74 69.8249H1526.95C1533.71 69.8249 1539.21 64.3209 1539.21 57.5589C1539.21 50.7969 1533.71 45.2939 1526.95 45.2939H1414.45C1413.93 45.2939 1413.5 45.7199 1413.5 46.2459C1413.5 46.773 1413.93 47.1989 1414.45 47.1989H1526.95C1532.66 47.1989 1537.31 51.8459 1537.31 57.5589C1537.31 63.273 1532.66 67.92 1526.95 67.92H1481.74C1481.21 67.92 1480.78 68.3459 1480.78 68.8729C1480.78 69.3989 1481.21 69.825 1481.74 69.825V69.8249Z" fill="#F7A269"/>
<path d="M1482.79 69.8249H1514.13C1520.9 69.8249 1526.4 64.3209 1526.4 57.5589C1526.4 50.7969 1520.9 45.2939 1514.13 45.2939H1478.26C1477.74 45.2939 1477.31 45.7199 1477.31 46.2459C1477.31 46.773 1477.74 47.1989 1478.26 47.1989H1514.13C1519.85 47.1989 1524.5 51.8459 1524.5 57.5589C1524.5 63.273 1519.85 67.92 1514.13 67.92H1482.79C1482.26 67.92 1481.84 68.3459 1481.84 68.8729C1481.84 69.3989 1482.26 69.825 1482.79 69.825V69.8249Z" fill="#F7A269"/>
<path d="M1473.78 69.8249H1501.32C1508.08 69.8249 1513.58 64.3209 1513.58 57.5589C1513.58 50.7969 1508.08 45.2939 1501.32 45.2939H1465.44C1464.92 45.2939 1464.49 45.7199 1464.49 46.2459C1464.49 46.773 1464.92 47.1989 1465.44 47.1989H1501.32C1507.03 47.1989 1511.68 51.8459 1511.68 57.5589C1511.68 63.273 1507.03 67.92 1501.32 67.92H1473.78C1473.26 67.92 1472.83 68.3459 1472.83 68.8729C1472.83 69.3989 1473.26 69.825 1473.78 69.825V69.8249Z" fill="#F7A269"/>
<path d="M1430.23 24.573H1461.58C1468.34 24.573 1473.84 19.07 1473.84 12.308C1473.84 5.54597 1468.34 0.0429688 1461.58 0.0429688H1421.9C1421.37 0.0429688 1420.94 0.467969 1420.94 0.994969C1420.94 1.52097 1421.37 1.94698 1421.9 1.94698H1461.58C1467.29 1.94698 1471.93 6.59397 1471.93 12.308C1471.93 18.021 1467.29 22.668 1461.58 22.668H1430.23C1429.71 22.668 1429.28 23.094 1429.28 23.621C1429.28 24.147 1429.71 24.573 1430.23 24.573V24.573Z" fill="#F7A269"/>
<path d="M1417.41 24.573H1448.76C1455.52 24.573 1461.02 19.07 1461.02 12.308C1461.02 5.54597 1455.52 0.0429688 1448.76 0.0429688H1409.08C1408.55 0.0429688 1408.13 0.467969 1408.13 0.994969C1408.13 1.52097 1408.55 1.94698 1409.08 1.94698H1448.76C1454.47 1.94698 1459.12 6.59397 1459.12 12.308C1459.12 18.021 1454.47 22.668 1448.76 22.668H1417.41C1416.89 22.668 1416.46 23.094 1416.46 23.621C1416.46 24.147 1416.89 24.573 1417.41 24.573V24.573Z" fill="#F7A269"/>
<path d="M1419.73 47.199H1451.07C1451.6 47.199 1452.02 46.773 1452.02 46.246C1452.02 45.72 1451.6 45.294 1451.07 45.294H1419.73C1414.01 45.294 1409.37 40.647 1409.37 34.933C1409.37 29.22 1414.01 24.573 1419.73 24.573H1459.41C1459.93 24.573 1460.36 24.147 1460.36 23.621C1460.36 23.094 1459.93 22.668 1459.41 22.668H1419.73C1412.96 22.668 1407.46 28.171 1407.46 34.933C1407.46 41.696 1412.96 47.199 1419.73 47.199V47.199Z" fill="#F7A269"/>
<path d="M1453.75 81.1379C1454.27 81.1379 1454.7 80.7119 1454.7 80.1859C1454.7 74.4719 1459.35 69.8249 1465.06 69.8249H1515.64C1516.16 69.8249 1516.59 69.3989 1516.59 68.8729C1516.59 68.3459 1516.16 67.9199 1515.64 67.9199H1465.06C1458.3 67.9199 1452.8 73.4229 1452.8 80.1859C1452.8 80.7119 1453.23 81.1379 1453.75 81.1379H1453.75Z" fill="#F7A269"/>
<path d="M1406.91 47.199H1519.41C1519.93 47.199 1520.36 46.773 1520.36 46.246C1520.36 45.72 1519.93 45.294 1519.41 45.294H1406.91C1401.2 45.294 1396.55 40.647 1396.55 34.933C1396.55 29.22 1401.2 24.573 1406.91 24.573H1458.71C1459.24 24.573 1459.66 24.147 1459.66 23.621C1459.66 23.094 1459.24 22.668 1458.71 22.668H1406.91C1400.15 22.668 1394.65 28.171 1394.65 34.933C1394.65 41.696 1400.15 47.199 1406.91 47.199V47.199Z" fill="#F7A269"/>
<path d="M1419.81 24.573H1474.39C1481.16 24.573 1486.66 19.07 1486.66 12.308C1486.66 5.54597 1481.16 0.0429688 1474.39 0.0429688H1358.09C1357.56 0.0429688 1357.13 0.467969 1357.13 0.994969C1357.13 1.52097 1357.56 1.94698 1358.09 1.94698H1474.39C1480.11 1.94698 1484.75 6.59397 1484.75 12.308C1484.75 18.021 1480.11 22.668 1474.39 22.668H1419.81C1419.29 22.668 1418.86 23.094 1418.86 23.621C1418.86 24.147 1419.29 24.573 1419.81 24.573V24.573Z" fill="#F7A269"/>
</svg>
