<svg width="23" height="23" viewBox="0 0 23 23" fill="none" xmlns="http://www.w3.org/2000/svg">
<path d="M22.4958 4.91647C22.06 4.35957 21.3818 4.02055 20.6796 4.02055H5.93265L5.47252 2.2286C5.20615 1.18743 4.28594 0.460938 3.22061 0.460938H0.750624C0.33899 0.460938 0 0.79994 0 1.21156C0 1.6232 0.339003 1.96219 0.750624 1.96219H3.22061C3.58376 1.96219 3.89863 2.20441 3.99558 2.56756L6.94982 14.3361C7.21619 15.3773 8.1364 16.1038 9.20173 16.1038H18.8635C19.9291 16.1038 20.8734 15.3773 21.1155 14.3361L22.9316 6.87785C23.101 6.19983 22.9558 5.4735 22.4956 4.91647H22.4958ZM21.4546 6.53888L19.6385 13.9971C19.5417 14.3603 19.2268 14.6025 18.8635 14.6025H9.20169C8.83853 14.6025 8.52366 14.3603 8.42672 13.9971L6.32005 5.54606H20.6796C20.9218 5.54606 21.1639 5.66717 21.3091 5.86091C21.4546 6.05465 21.5272 6.29687 21.4546 6.53893L21.4546 6.53888Z" fill="white"/>
<path d="M9.70969 17.0723C8.32934 17.0723 7.19141 18.2104 7.19141 19.5905C7.19141 20.9709 8.32951 22.1088 9.70969 22.1088C11.09 22.109 12.2281 20.9709 12.2281 19.5905C12.2281 18.2104 11.09 17.0723 9.70969 17.0723V17.0723ZM9.70969 20.5834C9.15278 20.5834 8.71683 20.1476 8.71683 19.5905C8.71683 19.0336 9.15261 18.5977 9.70969 18.5977C10.2666 18.5977 10.7025 19.0335 10.7025 19.5905C10.7025 20.1233 10.2424 20.5834 9.70969 20.5834Z" fill="white"/>
<path d="M18.0398 17.0723C16.6594 17.0723 15.5215 18.2104 15.5215 19.5905C15.5215 20.9709 16.6596 22.1088 18.0398 22.1088C19.4201 22.1088 20.558 20.9707 20.558 19.5905C20.5339 18.2104 19.4201 17.0723 18.0398 17.0723V17.0723ZM18.0398 20.5834C17.4829 20.5834 17.0469 20.1476 17.0469 19.5905C17.0469 19.0336 17.4827 18.5977 18.0398 18.5977C18.5967 18.5977 19.0326 19.0335 19.0326 19.5905C19.0326 20.1233 18.5725 20.5834 18.0398 20.5834V20.5834Z" fill="white"/>
</svg>
