<svg width="16" height="10" viewBox="0 0 16 10" fill="none" xmlns="http://www.w3.org/2000/svg">
<path d="M14.1692 0.000289804C13.9101 0.00725785 13.6639 0.114706 13.4824 0.299918L6.10873 7.67361L2.41261 4.81404L2.41275 4.81418C2.13054 4.59552 1.75316 4.54409 1.42286 4.67913C1.09244 4.81418 0.859135 5.11535 0.810935 5.46891C0.762714 5.82261 0.906816 6.1752 1.18904 6.39372L5.58442 9.79012C5.77633 9.9391 6.01604 10.0131 6.25839 9.99805C6.50089 9.98314 6.72958 9.88043 6.90183 9.70901L14.8934 1.7174C15.0878 1.52954 15.1978 1.27073 15.1981 1.00037C15.1985 0.730007 15.0892 0.471067 14.8954 0.282658C14.7014 0.0940989 14.4394 -0.00763367 14.1692 0.000447131L14.1692 0.000289804Z" fill="#E55D45"/>
</svg>
