<svg width="20" height="20" viewBox="0 0 20 20" fill="none" xmlns="http://www.w3.org/2000/svg">
<path fill-rule="evenodd" clip-rule="evenodd" d="M17.5089 2.4911C16.8541 1.8363 15.7925 1.8363 15.1377 2.4911L9.99998 7.62883L4.86238 2.49122C4.20758 1.83642 3.14594 1.83642 2.49114 2.49122C1.83634 3.14602 1.83634 4.20766 2.49114 4.86246L7.62874 10.0001L2.4911 15.1377C1.8363 15.7925 1.8363 16.8541 2.4911 17.5089C3.1459 18.1637 4.20754 18.1637 4.86234 17.5089L9.99998 12.3713L15.1377 17.5091C15.7925 18.1639 16.8542 18.1639 17.509 17.5091C18.1638 16.8543 18.1638 15.7926 17.509 15.1378L12.3712 10.0001L17.5089 4.86234C18.1637 4.20754 18.1637 3.1459 17.5089 2.4911Z" fill="white"/>
</svg>
