<svg width="20" height="20" viewBox="0 0 20 20" fill="none" xmlns="http://www.w3.org/2000/svg">
<rect width="20" height="20" rx="10" fill="#E55D45"/>
<path d="M14.7138 6.50022C14.5159 6.50544 14.3277 6.58603 14.1891 6.72494L8.55497 12.2552L5.73083 10.1105L5.73094 10.1106C5.5153 9.94665 5.22695 9.90808 4.97458 10.0094C4.7221 10.1106 4.54384 10.3365 4.50701 10.6017C4.47017 10.867 4.58027 11.1314 4.79591 11.2953L8.15436 13.8426C8.30099 13.9544 8.48415 14.0099 8.66933 13.9986C8.85461 13.9874 9.02935 13.9103 9.16096 13.7818L15.2672 7.78806C15.4158 7.64716 15.4998 7.45305 15.5 7.25028C15.5003 7.04751 15.4168 6.8533 15.2687 6.71199C15.1205 6.57057 14.9203 6.49427 14.7138 6.50034L14.7138 6.50022Z" fill="white"/>
</svg>
