<svg width="24" height="24" viewBox="0 0 24 24" fill="none" xmlns="http://www.w3.org/2000/svg">
<path d="M17.2377 7H6.76275C6.34154 7 6 6.55242 6 6C6 5.44777 6.34139 5 6.76275 5H17.2373C17.6585 5 18 5.44758 18 6C17.9998 6.55239 17.6588 7 17.2374 7H17.2377Z" fill="#76958F"/>
<path d="M17.2377 11H6.76275C6.34154 11 6 10.5524 6 10C6 9.44777 6.34139 9 6.76275 9H17.2373C17.6585 9 18 9.44758 18 10C18.0002 10.5524 17.6588 11 17.2374 11H17.2377Z" fill="#76958F"/>
<path d="M17.2377 15H6.76275C6.34154 15 6 14.5524 6 14C6 13.4478 6.34139 13 6.76275 13H17.2373C17.6585 13 18 13.4476 18 14C17.9998 14.5524 17.6588 15 17.2374 15H17.2377Z" fill="#76958F"/>
<rect x="4" y="2" width="16" height="20" rx="2" stroke="#76958F" stroke-width="2"/>
</svg>
