<svg width="183" height="50" viewBox="0 0 183 50" fill="none" xmlns="http://www.w3.org/2000/svg">
<path d="M51 25C51 38.8056 39.5817 50 25.5 50C11.4183 50 0 38.8056 0 25C0 11.1944 11.4183 0 25.5 0C39.5817 0 51 11.1944 51 25Z" fill="white"/>
<path d="M48.9542 25C48.9542 37.7011 38.4417 48 25.4771 48C12.5125 48 2 37.7011 2 25C2 12.2989 12.5125 2 25.4771 2C38.4417 2 48.9542 12.2989 48.9542 25Z" fill="#15594C"/>
<path d="M47.3888 24.9999C47.3888 36.8576 37.5806 46.4665 25.4768 46.4665C25.2942 46.4665 25.1116 46.4665 24.929 46.4665C24.8508 46.4665 24.7986 46.4665 24.7203 46.4665C14.8599 46.0832 6.87772 38.161 6.69512 28.4499C6.53861 20.6554 11.3384 13.9343 18.1989 11.0976C20.2858 10.2288 22.6596 10.2288 24.7203 11.1999C26.0246 11.8388 27.1724 12.8099 27.981 14.1388C30.2244 17.7676 29.181 22.8021 25.5029 24.9999C21.8248 27.1976 20.7814 32.2321 23.0248 35.861C23.7813 37.0876 24.8247 38.0332 26.0246 38.6721C28.1376 39.771 30.6418 39.7965 32.833 38.8765C39.6674 36.0399 44.4411 29.3188 44.2846 21.5499C44.0759 11.8388 36.0937 3.91654 26.2594 3.5332C37.9719 3.94209 47.3888 13.3976 47.3888 24.9999Z" fill="#0D4037"/>
<path d="M32.8075 38.8765C30.6163 39.7965 28.1121 39.771 25.9991 38.6721C24.7992 38.0332 23.7558 37.0876 22.9993 35.861C20.7559 32.2321 21.7993 27.1976 25.4774 24.9999C29.1555 22.8021 30.1989 17.7676 27.9555 14.1388C27.1469 12.8354 25.9991 11.8388 24.6948 11.1999C22.6602 10.2288 20.2864 10.2288 18.1734 11.0976C11.339 13.9343 6.5392 20.6554 6.69571 28.4499C6.9044 38.161 14.8866 46.0832 24.7209 46.4665C12.9824 46.0576 3.56543 36.6021 3.56543 24.9999C3.56543 13.1421 13.3736 3.5332 25.4774 3.5332C25.66 3.5332 25.8426 3.5332 26.0252 3.5332C26.1035 3.5332 26.1556 3.5332 26.2339 3.5332C36.0943 3.91654 44.0765 11.8388 44.2591 21.5499C44.4156 29.3188 39.6419 36.0399 32.8075 38.8765Z" fill="#E55D45"/>
<path d="M25.4771 46.8499C13.1907 46.8499 3.17383 37.0366 3.17383 24.9999C3.17383 12.9632 13.1907 3.1499 25.4771 3.1499C37.7634 3.1499 47.7803 12.9632 47.7803 24.9999C47.7803 37.0366 37.7634 46.8499 25.4771 46.8499ZM25.4771 3.91657C13.6081 3.91657 3.9564 13.3721 3.9564 24.9999C3.9564 36.6277 13.6081 46.0832 25.4771 46.0832C37.3461 46.0832 46.9978 36.6277 46.9978 24.9999C46.9978 13.3721 37.3461 3.91657 25.4771 3.91657Z" fill="#E55D45"/>
<path d="M25.2167 46.4665C23.6516 46.4665 22.0864 46.2876 20.5734 45.9299C20.2082 45.8276 19.817 45.7254 19.4518 45.5976L18.904 45.4188L18.3562 45.2143L18.0692 45.1121L17.8084 44.9843L17.2606 44.7543L16.7388 44.4988L16.478 44.371L16.2171 44.2432L15.6954 43.9621L15.1998 43.6554C14.8607 43.451 14.5476 43.221 14.2085 43.0165C13.5825 42.5565 12.9564 42.071 12.3825 41.5343C11.2087 40.4865 10.1913 39.2854 9.33051 37.9821C8.91314 37.3176 8.49576 36.6532 8.18274 35.9376C8.00014 35.5799 7.84362 35.2221 7.68711 34.8643C7.60885 34.6854 7.55668 34.5065 7.47842 34.3276C7.40017 34.1488 7.34799 33.9699 7.26974 33.7654C7.16539 33.3821 7.03497 33.0243 6.93062 32.641C6.87845 32.4621 6.82628 32.2576 6.77411 32.0788L6.64368 31.5165C6.59151 31.3376 6.56542 31.1332 6.53934 30.9288L6.435 30.341L6.38282 29.7532C6.35674 29.5488 6.33065 29.3699 6.33065 29.1654C6.09588 26.0476 6.72194 22.8788 8.05231 20.0165C9.40876 17.1799 11.4956 14.6499 14.0781 12.7843C14.2346 12.6565 14.3911 12.5543 14.5737 12.4521L15.0694 12.1199C15.4085 11.8899 15.7476 11.711 16.1128 11.5065L16.6345 11.2254C16.8171 11.1232 16.9997 11.0465 17.1823 10.9699L17.7301 10.7143C17.8344 10.6632 17.9127 10.6376 18.017 10.5865L18.304 10.4843C19.8691 9.89654 21.5908 9.7432 23.2342 10.101C24.8776 10.4588 26.3905 11.3532 27.5122 12.5799C28.6339 13.8065 29.3643 15.3654 29.6252 16.9754C29.886 18.5854 29.6773 20.2976 29.0252 21.8054C28.3731 23.3132 27.2514 24.6676 25.7906 25.5365C24.5645 26.2776 23.5994 27.4021 23.0516 28.7054C22.4777 30.0088 22.2951 31.4654 22.5038 32.871C22.7125 34.2765 23.3385 35.6054 24.3037 36.6788C25.2689 37.7265 26.5471 38.4932 27.9557 38.7999C29.3643 39.1321 30.8773 39.0043 32.2337 38.5187C32.5729 38.391 32.912 38.2376 33.2511 38.0843L33.7728 37.8543L34.2684 37.5732C34.9467 37.241 35.5727 36.8065 36.1988 36.3976L37.1118 35.7076C37.3987 35.4776 37.6856 35.2221 37.9726 34.9665C38.0508 34.9154 38.1291 34.8388 38.1813 34.7876L38.39 34.5832L38.7812 34.1743L38.9899 33.9699L39.0943 33.8676L39.1986 33.7654L39.5638 33.331C40.529 32.181 41.3898 30.9288 42.042 29.5999C42.6941 28.2454 43.1897 26.8399 43.4767 25.3576C43.5288 24.9999 43.6332 24.6165 43.6854 24.2588L43.8158 23.1343C43.8419 22.9554 43.8419 22.751 43.8419 22.5721L43.868 22.0099C43.868 21.831 43.894 21.6265 43.868 21.4476L43.8419 20.8854C43.8419 20.7065 43.8158 20.5021 43.8158 20.3232L43.7636 19.761L43.6854 19.1988C43.6593 19.0199 43.6332 18.8154 43.6071 18.6365L43.5028 18.0743C43.4767 17.8954 43.4245 17.7165 43.3723 17.5376C43.2941 17.1799 43.1636 16.8221 43.0593 16.4643C42.6158 15.0332 41.9637 13.6532 41.1811 12.3754C39.5899 9.79431 37.3204 7.62209 34.6597 6.08876L34.3989 5.93542L34.138 5.80765L33.6163 5.52654L33.0946 5.27098L32.8337 5.1432L32.5729 5.04098L31.999 4.81098L31.4512 4.60654C31.086 4.47876 30.7208 4.37654 30.3556 4.24876C28.8687 3.83987 27.3035 3.58431 25.7384 3.5332C27.3035 3.5332 28.8687 3.71209 30.3817 4.06987C30.7469 4.17209 31.1381 4.27431 31.5033 4.40209L32.0511 4.58098L32.5989 4.78543L32.8859 4.88765L33.1467 5.01543L33.6945 5.24542L34.2163 5.50098L34.4771 5.62876L34.738 5.75654L35.2597 6.03765L35.7553 6.34431C36.0944 6.54876 36.4075 6.77876 36.7466 6.9832C37.3726 7.4432 37.9987 7.92876 38.5726 8.46542C39.7464 9.5132 40.7638 10.7143 41.6246 12.0176C42.042 12.6821 42.4593 13.3465 42.7724 14.0621C42.955 14.4199 43.1115 14.7776 43.268 15.1354C43.3462 15.3143 43.3984 15.4932 43.4767 15.6721C43.5549 15.851 43.6071 16.0299 43.6854 16.2343C43.7897 16.6176 43.9201 16.9754 44.0245 17.3588C44.0766 17.5376 44.1288 17.7421 44.181 17.921L44.3114 18.4832C44.3636 18.6621 44.3897 18.8665 44.4158 19.071L44.5201 19.6588L44.5723 20.2465C44.5984 20.451 44.6244 20.6299 44.6244 20.8343C44.8592 23.9521 44.2332 27.121 42.9028 29.9832C41.5463 32.8199 39.4595 35.3499 36.877 37.2154C36.2249 37.6754 35.5466 38.1099 34.8423 38.4932L34.3206 38.7743L33.7728 39.0299C33.4076 39.2088 33.0685 39.3876 32.6511 39.5154C31.086 40.1032 29.3643 40.2565 27.7209 39.8988C26.8862 39.7199 26.1036 39.4132 25.3732 38.9788C24.6428 38.5699 23.9907 38.0332 23.4168 37.4199C22.2951 36.1932 21.5647 34.6343 21.3038 33.0243C21.043 31.4143 21.2517 29.7021 21.9038 28.1943C22.556 26.6865 23.6776 25.3321 25.1384 24.4632C26.3645 23.7476 27.3296 22.5976 27.8774 21.2943C28.4513 19.991 28.6339 18.5343 28.3991 17.1288C28.1905 15.7232 27.5644 14.3943 26.5992 13.321C25.6341 12.2732 24.3559 11.5065 22.9472 11.1743C21.5647 10.8932 20.0517 11.021 18.6953 11.5065L18.4344 11.6088C18.3562 11.6343 18.2518 11.6854 18.1736 11.711L17.6518 11.941C17.4692 12.0176 17.3127 12.0943 17.1301 12.171L16.6345 12.4521C16.2954 12.631 15.9563 12.8099 15.6432 13.0143L15.1737 13.321C15.0172 13.4232 14.8607 13.5254 14.7042 13.6276L13.7912 14.2921L12.9303 15.0332C12.7738 15.161 12.6695 15.2888 12.513 15.4165L12.1738 15.851C11.8869 16.1065 11.6521 16.4132 11.4174 16.6943C10.4522 17.8443 9.59136 19.0965 8.93922 20.4254C8.28708 21.7799 7.79145 23.1854 7.50451 24.6676L7.40017 25.2299L7.34799 25.511C7.32191 25.6132 7.32191 25.6899 7.29582 25.7921L7.16539 26.9165C7.13931 27.0954 7.13931 27.2999 7.13931 27.4788L7.11322 28.041C7.11322 28.2199 7.08714 28.4243 7.11322 28.6032L7.13931 29.1654C7.13931 29.3443 7.16539 29.5488 7.16539 29.7276L7.21757 30.2899L7.29582 30.8521C7.32191 31.031 7.34799 31.2354 7.37408 31.4143L7.47842 31.9765C7.50451 32.1554 7.55668 32.3343 7.60885 32.5132C7.68711 32.871 7.81754 33.2288 7.92188 33.6121C8.36534 35.0432 9.01748 36.4232 9.80005 37.701C11.3913 40.2821 13.6607 42.4543 16.3215 43.9876L16.5823 44.141L16.8432 44.2687L17.3649 44.5499L17.8866 44.8054L18.1475 44.9332L18.4083 45.0354L18.9561 45.1888L19.5039 45.3932C19.8691 45.521 20.2343 45.6232 20.5995 45.751C22.0864 46.1599 23.6516 46.4154 25.2167 46.4665Z" fill="#E55D45"/>
<path d="M21.2771 21.2178C20.0511 21.2178 18.8772 20.5023 18.3816 19.3267C17.7294 17.7678 18.4859 15.9789 20.0771 15.3145C20.8597 15.0078 21.6945 15.0078 22.477 15.3145C23.2596 15.6211 23.8596 16.2089 24.1726 16.9756C24.4856 17.7423 24.4856 18.56 24.1726 19.3267C23.8596 20.0934 23.2596 20.6811 22.477 20.9878C22.0857 21.1411 21.6945 21.2178 21.2771 21.2178ZM21.2771 16.6178C21.0684 16.6178 20.8858 16.6434 20.6771 16.7456C19.8685 17.0778 19.5033 17.9723 19.8424 18.7389C20.1815 19.5311 21.0945 19.8889 21.8771 19.5567C22.2683 19.4034 22.5553 19.0967 22.7118 18.7389C22.8683 18.3556 22.8683 17.9467 22.7118 17.5634C22.477 16.9756 21.9031 16.6178 21.2771 16.6178Z" fill="#E55D45"/>
<path d="M16.7121 21.8822C15.8774 22.8022 15.147 23.8756 14.5992 25C13.9992 26.2778 13.634 27.6322 13.4775 29.0378L12.7471 29.3444C12.7471 29.2678 12.7471 29.1911 12.7732 29.1144C12.8775 27.6067 13.2427 26.0989 13.8688 24.6933C14.4426 23.4156 15.2252 22.2144 16.1643 21.1411C16.3469 21.3967 16.5295 21.6522 16.7121 21.8822Z" fill="#E55D45"/>
<path d="M14.3125 35.0178C14.3125 35.0433 14.3125 35.0433 14.3386 35.0689L13.9212 35.4778C13.8951 35.4011 13.843 35.3244 13.8169 35.2222L13.6082 34.6856C13.4517 34.3278 13.3734 33.97 13.243 33.6122C12.9821 32.7689 12.8256 31.8744 12.7734 31.0056L13.4256 30.75C13.4517 31.67 13.5821 32.59 13.8169 33.4844C13.9212 33.8422 13.9995 34.2 14.1299 34.5322L14.3125 35.0178Z" fill="#E55D45"/>
<path d="M15.591 37.4202C15.7736 37.7013 15.9823 37.9569 16.191 38.2124L15.9301 38.5957C15.6693 38.2891 15.4345 38.008 15.1997 37.6757C14.9649 37.318 14.7302 36.9602 14.5215 36.6024L14.8867 36.2446C15.0954 36.6535 15.3301 37.0369 15.591 37.4202Z" fill="#E55D45"/>
<path d="M18.4344 40.4357L18.3039 40.7679C17.5474 40.2313 16.8692 39.6179 16.2432 38.9535L16.4779 38.5957C17.0779 39.2601 17.73 39.899 18.4344 40.4357Z" fill="#E55D45"/>
<path d="M22.6078 42.5822C23.4425 42.8377 24.2773 43.0166 25.1642 43.0933V43.2466C24.2773 43.1699 23.3904 43.0166 22.5556 42.7866C21.3296 42.4544 20.1818 41.9433 19.1123 41.2788L19.2427 40.9722C20.2601 41.6622 21.4078 42.1988 22.6078 42.5822Z" fill="#E55D45"/>
<path d="M31.4767 42.2246C30.0942 42.8124 28.6073 43.1702 27.0682 43.2468C26.6509 43.2724 26.2074 43.2724 25.79 43.2724V43.1446C26.2074 43.1702 26.6509 43.1702 27.0682 43.1446C28.5551 43.0935 30.0681 42.7613 31.4767 42.2246Z" fill="#E55D45"/>
<path d="M18.8254 23.4668C17.9646 24.2846 17.2603 25.2302 16.6864 26.2779C16.5299 26.5591 16.3994 26.8657 16.269 27.1468C16.1907 27.3002 16.1386 27.4535 16.0864 27.6068L15.9299 28.0413L15.043 28.3991C15.043 28.3735 15.043 28.3735 15.043 28.3479L15.1734 27.8368L15.3299 27.3513C15.3821 27.1979 15.4343 27.0191 15.5125 26.8657C15.6429 26.5591 15.7734 26.2268 15.9299 25.9202C16.4516 24.8724 17.1298 23.8757 17.9646 23.0068C18.2515 23.1857 18.5385 23.3391 18.8254 23.4668Z" fill="#E55D45"/>
<path d="M15.4339 31.2099L14.7818 31.6444C14.7557 31.1588 14.7557 30.6732 14.8079 30.1621L15.5383 29.8555V29.9321C15.46 30.3666 15.4339 30.7755 15.4339 31.2099Z" fill="#E55D45"/>
<path d="M15.6687 33.7402L15.1992 34.2002C15.1731 34.098 15.147 34.0213 15.1209 33.9191C14.9905 33.408 14.8862 32.8713 14.834 32.3347L15.434 31.9258C15.46 32.5391 15.5383 33.1524 15.6687 33.7402Z" fill="#E55D45"/>
<path d="M17.1823 37.3942C17.6519 38.1354 18.2258 38.8254 18.8779 39.4387L18.6953 39.822C17.9649 39.1831 17.3128 38.442 16.765 37.6498C16.3737 37.0876 16.0346 36.4998 15.7737 35.8609C15.7215 35.7331 15.6694 35.6309 15.6172 35.5031L16.0346 35.0942C16.1128 35.2731 16.165 35.4776 16.2432 35.6565C16.5041 36.2698 16.8171 36.832 17.1823 37.3942Z" fill="#E55D45"/>
<path d="M23.3901 42.1224C23.964 42.3013 24.564 42.4546 25.1639 42.5568V42.7357C24.5379 42.6591 23.9118 42.5313 23.3119 42.3524C21.9293 41.9435 20.625 41.3046 19.4512 40.4357L19.6077 40.1035C20.7033 40.998 22.0076 41.688 23.3901 42.1224Z" fill="#E55D45"/>
<path d="M31.3202 41.8667C30.0681 42.3778 28.7377 42.71 27.3552 42.7867C26.8335 42.8122 26.3118 42.8122 25.79 42.7611V42.6334C26.3118 42.6845 26.8335 42.71 27.3552 42.6845C28.7116 42.6334 30.042 42.3523 31.3202 41.8667Z" fill="#E55D45"/>
<path d="M15.4867 19.4033C14.5477 20.3744 13.739 21.4733 13.0869 22.6488C12.8782 23.0066 12.7217 23.3899 12.5391 23.7733C12.4347 23.9521 12.3825 24.1566 12.3043 24.361L12.0956 24.9488C12.0434 25.1533 11.9913 25.3321 11.913 25.5366L11.8347 25.8433C11.8087 25.9455 11.7826 26.0477 11.7565 26.1499L11.6261 26.7633L11.5739 27.0699L11.5217 27.3766C11.3913 28.2199 11.3652 29.0633 11.3913 29.9066L10.7652 30.1621C10.687 29.191 10.7131 28.2455 10.8174 27.2744L10.8435 26.9421L10.8957 26.6099L11 25.971C11.0261 25.8688 11.0522 25.7666 11.0783 25.6644L11.1565 25.3577C11.2087 25.1533 11.2609 24.9488 11.313 24.7188L11.5217 24.1055C11.6 23.901 11.6521 23.6966 11.7565 23.4921C11.9391 23.0833 12.0956 22.6744 12.3043 22.3166C13.0608 20.8344 14.0781 19.4544 15.3041 18.2788C15.3563 18.6366 15.3824 19.0199 15.4867 19.4033Z" fill="#E55D45"/>
<path d="M11.704 32.2834C11.991 33.6379 12.4866 34.9668 13.1909 36.1679L12.8257 36.5257C12.0431 35.2479 11.4693 33.8679 11.1301 32.4112C11.078 32.1812 11.0258 31.9512 10.9736 31.7212L11.5475 31.4912C11.5997 31.7468 11.6519 32.0023 11.704 32.2834Z" fill="#E55D45"/>
<path d="M18.0692 41.3045L17.9388 41.6112C16.2171 40.589 14.678 39.209 13.5303 37.5734L13.8694 37.2412C14.965 38.8768 16.3997 40.2568 18.0692 41.3045Z" fill="#E55D45"/>
<path d="M21.5124 42.9145C21.5646 42.94 21.6168 42.94 21.6689 42.9656L21.6168 43.1956C21.5646 43.17 21.4863 43.17 21.4342 43.1445C20.5212 42.8634 19.6082 42.5056 18.7734 42.0712L18.8778 41.79C19.7125 42.25 20.5994 42.6334 21.5124 42.9145Z" fill="#E55D45"/>
<path d="M25.1643 43.6045V43.7579C24.0687 43.7068 22.9731 43.5534 21.9297 43.2723L21.9819 43.0679C22.9992 43.349 24.0687 43.5279 25.1643 43.6045Z" fill="#E55D45"/>
<path d="M31.6069 42.582C30.0156 43.2465 28.3201 43.6298 26.5723 43.732C26.3115 43.7576 26.0506 43.7576 25.7637 43.7576V43.6298C26.0245 43.6298 26.2854 43.6298 26.5462 43.6298C28.294 43.5787 30.0156 43.2209 31.6069 42.582Z" fill="#E55D45"/>
<path d="M29.6765 34.9154C29.2591 34.9154 28.8678 34.8387 28.4766 34.6854C27.694 34.3787 27.094 33.791 26.781 33.0243C26.1288 31.4654 26.8853 29.6765 28.4766 29.0121C30.0678 28.3732 31.8938 29.1143 32.572 30.6732C33.2242 32.2321 32.4677 34.021 30.8764 34.6854C30.4852 34.8387 30.0678 34.9154 29.6765 34.9154ZM28.2157 32.4365C28.3722 32.8199 28.6852 33.101 29.0504 33.2543C29.4417 33.4076 29.8591 33.4076 30.2504 33.2543C30.6417 33.101 30.9286 32.7943 31.0851 32.4365C31.2416 32.0532 31.2416 31.6443 31.0851 31.261C30.746 30.4687 29.833 30.111 29.0504 30.4432C28.6592 30.5965 28.3722 30.9032 28.2157 31.261C28.0592 31.6443 28.0592 32.0532 28.2157 32.4365Z" fill="#0D4037"/>
<path d="M35.3636 12.5799C35.181 12.2987 34.9724 12.0432 34.7637 11.7876L35.0245 11.4043C35.2854 11.711 35.5202 11.9921 35.7549 12.3243C35.9897 12.6821 36.2245 13.0399 36.4332 13.3976L36.068 13.7554C35.8593 13.3465 35.6245 12.9632 35.3636 12.5799Z" fill="#E55D45"/>
<path d="M32.5205 9.56464L32.6509 9.23242C33.4074 9.76909 34.0856 10.3824 34.7117 11.0469L34.4769 11.4046C33.877 10.7402 33.2248 10.1013 32.5205 9.56464Z" fill="#E55D45"/>
<path d="M28.3464 7.41786C27.5117 7.16231 26.677 6.98342 25.79 6.90675V6.75342C26.677 6.83008 27.5639 6.98342 28.3986 7.21342C29.6246 7.54564 30.7724 8.05675 31.8419 8.7212L31.7115 9.02786C30.6941 8.33786 29.5464 7.8012 28.3464 7.41786Z" fill="#E55D45"/>
<path d="M19.4775 7.77532C20.8601 7.18754 22.347 6.82976 23.886 6.75309C24.3034 6.72754 24.7468 6.72754 25.1642 6.72754V6.85532C24.7468 6.82976 24.3034 6.82976 23.886 6.85532C22.3991 6.90643 20.8862 7.23865 19.4775 7.77532Z" fill="#E55D45"/>
<path d="M33.7727 12.6055C33.3032 11.8644 32.7293 11.1744 32.0771 10.5611L32.2597 10.1777C32.9901 10.8166 33.6423 11.5577 34.1901 12.35C34.5814 12.9122 34.9205 13.5 35.1813 14.1388C35.2335 14.2666 35.2857 14.3688 35.3379 14.4966L34.9205 14.9055C34.8422 14.7266 34.7901 14.5222 34.7118 14.3433C34.4509 13.73 34.1379 13.1677 33.7727 12.6055Z" fill="#E55D45"/>
<path d="M27.5639 7.87782C26.99 7.69893 26.39 7.54559 25.79 7.46893V7.29004C26.4161 7.36671 27.0422 7.49448 27.6421 7.67337C29.0247 8.08226 30.3289 8.72115 31.5028 9.59004L31.3463 9.92226C30.2507 9.00226 28.9464 8.31226 27.5639 7.87782Z" fill="#E55D45"/>
<path d="M19.6338 8.13356C20.8859 7.62245 22.2163 7.29023 23.5727 7.21356C24.0944 7.18801 24.6162 7.18801 25.1379 7.23912V7.3669C24.6162 7.31579 24.0944 7.29023 23.5727 7.31579C22.2424 7.3669 20.912 7.64801 19.6338 8.13356Z" fill="#E55D45"/>
<path d="M34.2422 28.1178C35.0769 27.1978 35.8073 26.1245 36.3551 25C36.9812 23.7478 37.3464 22.3678 37.5029 20.9878L38.2333 20.6812C38.2333 20.7578 38.2333 20.8345 38.2072 20.9112C38.1029 22.4189 37.7377 23.9267 37.1116 25.3323C36.5377 26.61 35.7552 27.8112 34.8161 28.8845C34.6074 28.6034 34.4248 28.3478 34.2422 28.1178Z" fill="#E55D45"/>
<path d="M36.6413 14.9825C36.6413 14.9569 36.6413 14.9569 36.6152 14.9313L37.0326 14.5225C37.0587 14.5991 37.1109 14.6758 37.1369 14.778L37.3456 15.3147C37.5021 15.6725 37.5804 16.0302 37.7108 16.388C37.9717 17.2313 38.1282 18.1258 38.1804 18.9947L37.5282 19.2502C37.5021 18.3302 37.3717 17.4102 37.1369 16.5158C37.0326 16.158 36.9543 15.8002 36.8239 15.468L36.6413 14.9825Z" fill="#E55D45"/>
<path d="M32.1289 26.5333C32.9897 25.7155 33.694 24.77 34.2679 23.7222C34.4244 23.4411 34.5549 23.1344 34.6853 22.8533C34.7636 22.7 34.8157 22.5466 34.8679 22.3933L35.0244 21.9589L35.9113 21.6011C35.9113 21.6266 35.9113 21.6266 35.9113 21.6522L35.7809 22.1633L35.6244 22.6489C35.5722 22.8022 35.52 22.9811 35.4418 23.1344C35.3114 23.4411 35.1809 23.7733 35.0244 24.08C34.5027 25.1277 33.8245 26.1244 32.9897 26.9933C32.7028 26.8144 32.4158 26.6611 32.1289 26.5333Z" fill="#E55D45"/>
<path d="M35.5204 18.7899L36.1725 18.3555C36.1986 18.841 36.1986 19.3266 36.1464 19.8377L35.416 20.1444V20.0677C35.4943 19.6332 35.5204 19.2244 35.5204 18.7899Z" fill="#E55D45"/>
<path d="M35.2852 16.2598L35.7547 15.7998C35.7808 15.902 35.8069 15.9787 35.833 16.0809C35.9634 16.592 36.0677 17.1287 36.1199 17.6654L35.5199 18.0743C35.4938 17.4609 35.4156 16.8476 35.2852 16.2598Z" fill="#E55D45"/>
<path d="M35.4678 30.5968C36.4069 29.6257 37.2155 28.5268 37.8677 27.3512C38.0763 26.9934 38.2329 26.6101 38.4155 26.2268C38.5198 26.0479 38.572 25.8434 38.6502 25.639L38.8589 25.0512C38.9111 24.8468 38.9633 24.6679 39.0415 24.4634L39.1198 24.1568C39.1459 24.0546 39.1719 23.9523 39.198 23.8501L39.3285 23.2368L39.3806 22.9301L39.4328 22.6234C39.5632 21.7801 39.5893 20.9368 39.5632 20.0934L40.1893 19.8379C40.2675 20.809 40.2415 21.7546 40.1371 22.7257L40.111 23.0579L40.0589 23.3901L39.9545 24.029C39.9284 24.1312 39.9023 24.2334 39.8763 24.3357L39.798 24.6423C39.7458 24.8468 39.6937 25.0512 39.6415 25.2812L39.4328 25.8946C39.3545 26.099 39.3024 26.3034 39.198 26.5079C39.0154 26.9168 38.8589 27.3257 38.6502 27.6834C37.8937 29.1657 36.8764 30.5457 35.6504 31.7212C35.5982 31.3634 35.5721 30.9801 35.4678 30.5968Z" fill="#E55D45"/>
<path d="M39.2506 17.7168C38.9636 16.3624 38.468 15.0335 37.7637 13.8324L38.1289 13.4746C38.9114 14.7524 39.4853 16.1324 39.8244 17.5891C39.8766 17.8191 39.9288 18.0491 39.981 18.2791L39.4071 18.5091C39.3549 18.2535 39.3027 17.9979 39.2506 17.7168Z" fill="#E55D45"/>
<path d="M32.8857 8.69534L33.0162 8.38867C34.7378 9.41089 36.2769 10.7909 37.4247 12.4265L37.0855 12.7587C35.9899 11.1231 34.5552 9.74312 32.8857 8.69534Z" fill="#E55D45"/>
<path d="M29.4417 7.0858C29.3895 7.06024 29.3373 7.06024 29.2852 7.03469L29.3373 6.80469C29.3895 6.83024 29.4678 6.83024 29.5199 6.8558C30.4329 7.13691 31.3459 7.49469 32.1807 7.92913L32.0763 8.21024C31.2416 7.75024 30.3547 7.36691 29.4417 7.0858Z" fill="#E55D45"/>
<path d="M25.79 6.39552V6.24219C26.8856 6.2933 27.9812 6.44663 29.0247 6.72774L28.9725 6.93219C27.9552 6.65108 26.8856 6.47219 25.79 6.39552Z" fill="#E55D45"/>
<path d="M19.3467 7.41774C20.9379 6.7533 22.6335 6.36997 24.3812 6.26774C24.6421 6.24219 24.9029 6.24219 25.1899 6.24219V6.36997C24.929 6.36997 24.6682 6.36997 24.4073 6.36997C22.6596 6.42108 20.9379 6.77885 19.3467 7.41774Z" fill="#E55D45"/>
<path d="M60.6924 16.8733C61.7358 17.8444 63.5618 18.6621 65.8834 18.6621C69.2485 18.6621 71.231 16.8733 71.231 14.5733C71.231 13.1677 70.4745 11.3277 66.6921 10.4844C64.6835 10.0244 62.9618 9.43658 62.9618 7.46881C62.9618 6.42103 63.4314 5.16881 65.2574 5.16881C67.3703 5.16881 69.5094 6.77881 69.1702 9.35992L70.9962 6.59992C69.9789 5.62881 68.3877 4.8877 66.1704 4.8877C63.0923 4.8877 61.0576 6.31881 61.0576 8.64436C61.0576 10.2799 62.0749 12.171 65.8052 13.0399C68.1007 13.5766 69.3789 14.0366 69.3789 15.7233C69.3789 16.7199 68.9094 18.3555 66.666 18.3555C64.5009 18.3555 62.2314 16.7199 62.4923 14.1133L60.6924 16.8733Z" fill="black"/>
<path d="M60.6924 16.8733C61.7358 17.8444 63.5618 18.6621 65.8834 18.6621C69.2485 18.6621 71.231 16.8733 71.231 14.5733C71.231 13.1677 70.4745 11.3277 66.6921 10.4844C64.6835 10.0244 62.9618 9.43658 62.9618 7.46881C62.9618 6.42103 63.4314 5.16881 65.2574 5.16881C67.3703 5.16881 69.5094 6.77881 69.1702 9.35992L70.9962 6.59992C69.9789 5.62881 68.3877 4.8877 66.1704 4.8877C63.0923 4.8877 61.0576 6.31881 61.0576 8.64436C61.0576 10.2799 62.0749 12.171 65.8052 13.0399C68.1007 13.5766 69.3789 14.0366 69.3789 15.7233C69.3789 16.7199 68.9094 18.3555 66.666 18.3555C64.5009 18.3555 62.2314 16.7199 62.4923 14.1133L60.6924 16.8733Z" fill="#461E08"/>
<path d="M60.6924 16.8733C61.7358 17.8444 63.5618 18.6621 65.8834 18.6621C69.2485 18.6621 71.231 16.8733 71.231 14.5733C71.231 13.1677 70.4745 11.3277 66.6921 10.4844C64.6835 10.0244 62.9618 9.43658 62.9618 7.46881C62.9618 6.42103 63.4314 5.16881 65.2574 5.16881C67.3703 5.16881 69.5094 6.77881 69.1702 9.35992L70.9962 6.59992C69.9789 5.62881 68.3877 4.8877 66.1704 4.8877C63.0923 4.8877 61.0576 6.31881 61.0576 8.64436C61.0576 10.2799 62.0749 12.171 65.8052 13.0399C68.1007 13.5766 69.3789 14.0366 69.3789 15.7233C69.3789 16.7199 68.9094 18.3555 66.666 18.3555C64.5009 18.3555 62.2314 16.7199 62.4923 14.1133L60.6924 16.8733Z" fill="#513D2C"/>
<path d="M73.4491 20.2721C73.4491 21.2177 73.2665 21.5499 72.5883 21.7032V21.7543L76.9185 22.4443V22.3932C76.0577 22.0099 75.8751 21.6521 75.8751 20.6299V18.2277C76.3185 18.4066 76.8924 18.4832 77.5967 18.4832C80.8313 18.4832 83.2312 16.6177 83.2312 13.5766C83.2312 10.9954 81.4574 9.05322 77.8837 9.05322C76.7359 9.05322 74.2056 9.23211 72.1709 9.81989V9.92211C72.6665 9.94767 73.1622 10.101 73.4491 10.2543V20.2721ZM75.8751 9.641C76.1359 9.56433 76.5794 9.38544 77.2054 9.38544C79.6836 9.38544 80.727 12.0432 80.727 14.5988C80.727 17.001 79.8923 18.151 78.3532 18.151C77.4141 18.151 76.6316 17.7421 75.8751 17.1799V9.641Z" fill="black"/>
<path d="M73.4491 20.2721C73.4491 21.2177 73.2665 21.5499 72.5883 21.7032V21.7543L76.9185 22.4443V22.3932C76.0577 22.0099 75.8751 21.6521 75.8751 20.6299V18.2277C76.3185 18.4066 76.8924 18.4832 77.5967 18.4832C80.8313 18.4832 83.2312 16.6177 83.2312 13.5766C83.2312 10.9954 81.4574 9.05322 77.8837 9.05322C76.7359 9.05322 74.2056 9.23211 72.1709 9.81989V9.92211C72.6665 9.94767 73.1622 10.101 73.4491 10.2543V20.2721ZM75.8751 9.641C76.1359 9.56433 76.5794 9.38544 77.2054 9.38544C79.6836 9.38544 80.727 12.0432 80.727 14.5988C80.727 17.001 79.8923 18.151 78.3532 18.151C77.4141 18.151 76.6316 17.7421 75.8751 17.1799V9.641Z" fill="#461E08"/>
<path d="M73.4491 20.2721C73.4491 21.2177 73.2665 21.5499 72.5883 21.7032V21.7543L76.9185 22.4443V22.3932C76.0577 22.0099 75.8751 21.6521 75.8751 20.6299V18.2277C76.3185 18.4066 76.8924 18.4832 77.5967 18.4832C80.8313 18.4832 83.2312 16.6177 83.2312 13.5766C83.2312 10.9954 81.4574 9.05322 77.8837 9.05322C76.7359 9.05322 74.2056 9.23211 72.1709 9.81989V9.92211C72.6665 9.94767 73.1622 10.101 73.4491 10.2543V20.2721ZM75.8751 9.641C76.1359 9.56433 76.5794 9.38544 77.2054 9.38544C79.6836 9.38544 80.727 12.0432 80.727 14.5988C80.727 17.001 79.8923 18.151 78.3532 18.151C77.4141 18.151 76.6316 17.7421 75.8751 17.1799V9.641Z" fill="#513D2C"/>
<path d="M85.1612 17.078L85.0568 18.3813H88.3436C87.7697 17.998 87.5871 17.6402 87.5871 16.618V12.8869C87.7436 11.558 88.2132 10.4335 89.1001 10.4335C89.8044 10.4335 90.1696 11.3535 89.7262 12.478H89.8044L91.7347 9.33466C91.3695 9.15577 91.0565 9.10466 90.6913 9.10466C89.3349 9.10466 88.2914 9.89688 87.848 11.098H87.5871V10.4847L87.6915 9.0791L83.9873 9.36021V9.43688C84.3786 9.46243 84.9003 9.61577 85.1612 9.7691V17.078Z" fill="black"/>
<path d="M85.1612 17.078L85.0568 18.3813H88.3436C87.7697 17.998 87.5871 17.6402 87.5871 16.618V12.8869C87.7436 11.558 88.2132 10.4335 89.1001 10.4335C89.8044 10.4335 90.1696 11.3535 89.7262 12.478H89.8044L91.7347 9.33466C91.3695 9.15577 91.0565 9.10466 90.6913 9.10466C89.3349 9.10466 88.2914 9.89688 87.848 11.098H87.5871V10.4847L87.6915 9.0791L83.9873 9.36021V9.43688C84.3786 9.46243 84.9003 9.61577 85.1612 9.7691V17.078Z" fill="#461E08"/>
<path d="M85.1612 17.078L85.0568 18.3813H88.3436C87.7697 17.998 87.5871 17.6402 87.5871 16.618V12.8869C87.7436 11.558 88.2132 10.4335 89.1001 10.4335C89.8044 10.4335 90.1696 11.3535 89.7262 12.478H89.8044L91.7347 9.33466C91.3695 9.15577 91.0565 9.10466 90.6913 9.10466C89.3349 9.10466 88.2914 9.89688 87.848 11.098H87.5871V10.4847L87.6915 9.0791L83.9873 9.36021V9.43688C84.3786 9.46243 84.9003 9.61577 85.1612 9.7691V17.078Z" fill="#513D2C"/>
<path d="M93.2739 18.3812H96.5868C96.0129 17.9978 95.8303 17.64 95.8303 16.6178V10.51L95.9346 9.10449L92.2305 9.3856V9.46227C92.6218 9.48783 93.1435 9.64116 93.4043 9.79449V17.0778L93.2739 18.3812Z" fill="black"/>
<path d="M93.2739 18.3812H96.5868C96.0129 17.9978 95.8303 17.64 95.8303 16.6178V10.51L95.9346 9.10449L92.2305 9.3856V9.46227C92.6218 9.48783 93.1435 9.64116 93.4043 9.79449V17.0778L93.2739 18.3812Z" fill="#461E08"/>
<path d="M93.2739 18.3812H96.5868C96.0129 17.9978 95.8303 17.64 95.8303 16.6178V10.51L95.9346 9.10449L92.2305 9.3856V9.46227C92.6218 9.48783 93.1435 9.64116 93.4043 9.79449V17.0778L93.2739 18.3812Z" fill="#513D2C"/>
<path d="M94.5258 7.72452C95.3084 7.72452 95.9344 7.11119 95.9344 6.31896C95.9344 5.5523 95.3084 4.93896 94.5258 4.93896C93.7433 4.93896 93.1172 5.5523 93.1172 6.31896C93.1172 7.11119 93.7433 7.72452 94.5258 7.72452Z" fill="black"/>
<path d="M94.5258 7.72452C95.3084 7.72452 95.9344 7.11119 95.9344 6.31896C95.9344 5.5523 95.3084 4.93896 94.5258 4.93896C93.7433 4.93896 93.1172 5.5523 93.1172 6.31896C93.1172 7.11119 93.7433 7.72452 94.5258 7.72452Z" fill="#461E08"/>
<path d="M94.5258 7.72452C95.3084 7.72452 95.9344 7.11119 95.9344 6.31896C95.9344 5.5523 95.3084 4.93896 94.5258 4.93896C93.7433 4.93896 93.1172 5.5523 93.1172 6.31896C93.1172 7.11119 93.7433 7.72452 94.5258 7.72452Z" fill="#513D2C"/>
<path d="M105.482 12.5802V17.078L105.377 18.3813H108.69C108.116 17.998 107.934 17.6402 107.934 16.618V12.5291C107.934 9.66688 106.29 9.0791 105.091 9.0791C103.343 9.0791 101.83 10.178 100.969 10.7913V10.5102L101.073 9.10466L97.3691 9.38577V9.46243C97.7604 9.48799 98.2821 9.64132 98.543 9.79466V17.078L98.4387 18.3813H101.752C101.178 17.998 100.995 17.6402 100.995 16.618V11.2513C101.699 10.7402 102.665 9.97355 103.864 9.97355C104.725 9.97355 105.482 10.4591 105.482 12.5802Z" fill="black"/>
<path d="M105.482 12.5802V17.078L105.377 18.3813H108.69C108.116 17.998 107.934 17.6402 107.934 16.618V12.5291C107.934 9.66688 106.29 9.0791 105.091 9.0791C103.343 9.0791 101.83 10.178 100.969 10.7913V10.5102L101.073 9.10466L97.3691 9.38577V9.46243C97.7604 9.48799 98.2821 9.64132 98.543 9.79466V17.078L98.4387 18.3813H101.752C101.178 17.998 100.995 17.6402 100.995 16.618V11.2513C101.699 10.7402 102.665 9.97355 103.864 9.97355C104.725 9.97355 105.482 10.4591 105.482 12.5802Z" fill="#461E08"/>
<path d="M105.482 12.5802V17.078L105.377 18.3813H108.69C108.116 17.998 107.934 17.6402 107.934 16.618V12.5291C107.934 9.66688 106.29 9.0791 105.091 9.0791C103.343 9.0791 101.83 10.178 100.969 10.7913V10.5102L101.073 9.10466L97.3691 9.38577V9.46243C97.7604 9.48799 98.2821 9.64132 98.543 9.79466V17.078L98.4387 18.3813H101.752C101.178 17.998 100.995 17.6402 100.995 16.618V11.2513C101.699 10.7402 102.665 9.97355 103.864 9.97355C104.725 9.97355 105.482 10.4591 105.482 12.5802Z" fill="#513D2C"/>
<path d="M114.456 18.5089C115.604 18.5089 116.543 18.2023 117.195 17.7167V19.3523C117.195 20.8089 116.334 21.7034 115.317 21.7034C114.664 21.7034 113.621 21.6012 112.838 19.94L110.569 20.6045C111.325 21.9334 112.656 22.3423 113.673 22.3423C115.838 22.3423 119.621 20.2723 119.621 19.1734V9.79449C118.395 9.30894 117.064 9.10449 115.838 9.10449C111.769 9.10449 109.812 11.4556 109.812 14.2156C109.839 16.8223 111.639 18.5089 114.456 18.5089ZM114.977 9.46227C115.89 9.46227 116.569 9.87116 117.195 10.51V17.3078C116.803 17.7167 116.308 17.9467 115.656 17.9467C113.725 17.9467 112.265 15.8767 112.265 13.1167C112.265 10.9189 113.178 9.46227 114.977 9.46227Z" fill="black"/>
<path d="M114.456 18.5089C115.604 18.5089 116.543 18.2023 117.195 17.7167V19.3523C117.195 20.8089 116.334 21.7034 115.317 21.7034C114.664 21.7034 113.621 21.6012 112.838 19.94L110.569 20.6045C111.325 21.9334 112.656 22.3423 113.673 22.3423C115.838 22.3423 119.621 20.2723 119.621 19.1734V9.79449C118.395 9.30894 117.064 9.10449 115.838 9.10449C111.769 9.10449 109.812 11.4556 109.812 14.2156C109.839 16.8223 111.639 18.5089 114.456 18.5089ZM114.977 9.46227C115.89 9.46227 116.569 9.87116 117.195 10.51V17.3078C116.803 17.7167 116.308 17.9467 115.656 17.9467C113.725 17.9467 112.265 15.8767 112.265 13.1167C112.265 10.9189 113.178 9.46227 114.977 9.46227Z" fill="#461E08"/>
<path d="M114.456 18.5089C115.604 18.5089 116.543 18.2023 117.195 17.7167V19.3523C117.195 20.8089 116.334 21.7034 115.317 21.7034C114.664 21.7034 113.621 21.6012 112.838 19.94L110.569 20.6045C111.325 21.9334 112.656 22.3423 113.673 22.3423C115.838 22.3423 119.621 20.2723 119.621 19.1734V9.79449C118.395 9.30894 117.064 9.10449 115.838 9.10449C111.769 9.10449 109.812 11.4556 109.812 14.2156C109.839 16.8223 111.639 18.5089 114.456 18.5089ZM114.977 9.46227C115.89 9.46227 116.569 9.87116 117.195 10.51V17.3078C116.803 17.7167 116.308 17.9467 115.656 17.9467C113.725 17.9467 112.265 15.8767 112.265 13.1167C112.265 10.9189 113.178 9.46227 114.977 9.46227Z" fill="#513D2C"/>
<path d="M124.812 5.14355V5.24578C125.594 5.348 126.272 5.55244 126.272 6.21689V16.9247C126.272 17.6147 125.594 17.998 124.812 18.2791V18.3813H130.368V18.2791C129.585 18.1769 128.907 17.9724 128.907 17.308V12.0947H130.681C133.029 12.0947 133.968 12.6058 134.411 14.318V9.53911C133.942 11.2769 133.029 11.788 130.681 11.788H128.907V5.45022H131.437C133.915 5.45022 134.672 6.39578 136.133 8.51689L136.211 8.49133L135.507 5.16911H124.812V5.14355Z" fill="black"/>
<path d="M124.812 5.14355V5.24578C125.594 5.348 126.272 5.55244 126.272 6.21689V16.9247C126.272 17.6147 125.594 17.998 124.812 18.2791V18.3813H130.368V18.2791C129.585 18.1769 128.907 17.9724 128.907 17.308V12.0947H130.681C133.029 12.0947 133.968 12.6058 134.411 14.318V9.53911C133.942 11.2769 133.029 11.788 130.681 11.788H128.907V5.45022H131.437C133.915 5.45022 134.672 6.39578 136.133 8.51689L136.211 8.49133L135.507 5.16911H124.812V5.14355Z" fill="#461E08"/>
<path d="M124.812 5.14355V5.24578C125.594 5.348 126.272 5.55244 126.272 6.21689V16.9247C126.272 17.6147 125.594 17.998 124.812 18.2791V18.3813H130.368V18.2791C129.585 18.1769 128.907 17.9724 128.907 17.308V12.0947H130.681C133.029 12.0947 133.968 12.6058 134.411 14.318V9.53911C133.942 11.2769 133.029 11.788 130.681 11.788H128.907V5.45022H131.437C133.915 5.45022 134.672 6.39578 136.133 8.51689L136.211 8.49133L135.507 5.16911H124.812V5.14355Z" fill="#513D2C"/>
<path d="M141.689 9.10449C138.611 9.10449 136.576 11.0212 136.576 13.8067C136.576 16.6434 138.585 18.5089 141.689 18.5089C144.767 18.5089 146.802 16.5667 146.802 13.8067C146.802 10.97 144.767 9.10449 141.689 9.10449ZM142.445 18.2023C140.15 18.2023 138.924 14.88 138.924 12.3756C138.924 10.5356 139.55 9.43671 140.932 9.43671C143.254 9.43671 144.454 12.7589 144.454 15.2889C144.454 17.0523 143.828 18.2023 142.445 18.2023Z" fill="black"/>
<path d="M141.689 9.10449C138.611 9.10449 136.576 11.0212 136.576 13.8067C136.576 16.6434 138.585 18.5089 141.689 18.5089C144.767 18.5089 146.802 16.5667 146.802 13.8067C146.802 10.97 144.767 9.10449 141.689 9.10449ZM142.445 18.2023C140.15 18.2023 138.924 14.88 138.924 12.3756C138.924 10.5356 139.55 9.43671 140.932 9.43671C143.254 9.43671 144.454 12.7589 144.454 15.2889C144.454 17.0523 143.828 18.2023 142.445 18.2023Z" fill="#461E08"/>
<path d="M141.689 9.10449C138.611 9.10449 136.576 11.0212 136.576 13.8067C136.576 16.6434 138.585 18.5089 141.689 18.5089C144.767 18.5089 146.802 16.5667 146.802 13.8067C146.802 10.97 144.767 9.10449 141.689 9.10449ZM142.445 18.2023C140.15 18.2023 138.924 14.88 138.924 12.3756C138.924 10.5356 139.55 9.43671 140.932 9.43671C143.254 9.43671 144.454 12.7589 144.454 15.2889C144.454 17.0523 143.828 18.2023 142.445 18.2023Z" fill="#513D2C"/>
<path d="M151.419 11.1234H151.158V10.51L151.263 9.10449L147.559 9.3856V9.46227C147.95 9.48783 148.472 9.64116 148.732 9.79449V17.0778L148.628 18.3812H151.915C151.341 17.9978 151.158 17.64 151.158 16.6178V12.8867C151.315 11.5578 151.784 10.4334 152.671 10.4334C153.376 10.4334 153.741 11.3534 153.297 12.4778H153.376L155.306 9.33449C154.941 9.1556 154.628 9.10449 154.263 9.10449C152.906 9.10449 151.863 9.89671 151.419 11.1234Z" fill="black"/>
<path d="M151.419 11.1234H151.158V10.51L151.263 9.10449L147.559 9.3856V9.46227C147.95 9.48783 148.472 9.64116 148.732 9.79449V17.0778L148.628 18.3812H151.915C151.341 17.9978 151.158 17.64 151.158 16.6178V12.8867C151.315 11.5578 151.784 10.4334 152.671 10.4334C153.376 10.4334 153.741 11.3534 153.297 12.4778H153.376L155.306 9.33449C154.941 9.1556 154.628 9.10449 154.263 9.10449C152.906 9.10449 151.863 9.89671 151.419 11.1234Z" fill="#461E08"/>
<path d="M151.419 11.1234H151.158V10.51L151.263 9.10449L147.559 9.3856V9.46227C147.95 9.48783 148.472 9.64116 148.732 9.79449V17.0778L148.628 18.3812H151.915C151.341 17.9978 151.158 17.64 151.158 16.6178V12.8867C151.315 11.5578 151.784 10.4334 152.671 10.4334C153.376 10.4334 153.741 11.3534 153.297 12.4778H153.376L155.306 9.33449C154.941 9.1556 154.628 9.10449 154.263 9.10449C152.906 9.10449 151.863 9.89671 151.419 11.1234Z" fill="#513D2C"/>
<path d="M161.984 17.5891C159.688 17.5891 158.149 15.8002 158.097 13.1169H163.158C164.175 13.1169 164.697 12.4269 164.697 11.6347C164.697 10.4847 163.575 9.0791 161.123 9.0791C158.254 9.0791 155.593 10.868 155.593 13.9091C155.593 16.618 157.68 18.4835 160.758 18.4835C162.792 18.4835 164.358 17.6402 164.931 16.5669L164.827 16.4902C164.227 17.308 162.923 17.5891 161.984 17.5891ZM160.497 9.38577C161.906 9.38577 162.636 10.7658 162.636 11.7624C162.636 12.3247 162.401 12.7591 161.958 12.7591L158.097 12.7847C158.175 10.6891 159.219 9.38577 160.497 9.38577Z" fill="black"/>
<path d="M161.984 17.5891C159.688 17.5891 158.149 15.8002 158.097 13.1169H163.158C164.175 13.1169 164.697 12.4269 164.697 11.6347C164.697 10.4847 163.575 9.0791 161.123 9.0791C158.254 9.0791 155.593 10.868 155.593 13.9091C155.593 16.618 157.68 18.4835 160.758 18.4835C162.792 18.4835 164.358 17.6402 164.931 16.5669L164.827 16.4902C164.227 17.308 162.923 17.5891 161.984 17.5891ZM160.497 9.38577C161.906 9.38577 162.636 10.7658 162.636 11.7624C162.636 12.3247 162.401 12.7591 161.958 12.7591L158.097 12.7847C158.175 10.6891 159.219 9.38577 160.497 9.38577Z" fill="#461E08"/>
<path d="M161.984 17.5891C159.688 17.5891 158.149 15.8002 158.097 13.1169H163.158C164.175 13.1169 164.697 12.4269 164.697 11.6347C164.697 10.4847 163.575 9.0791 161.123 9.0791C158.254 9.0791 155.593 10.868 155.593 13.9091C155.593 16.618 157.68 18.4835 160.758 18.4835C162.792 18.4835 164.358 17.6402 164.931 16.5669L164.827 16.4902C164.227 17.308 162.923 17.5891 161.984 17.5891ZM160.497 9.38577C161.906 9.38577 162.636 10.7658 162.636 11.7624C162.636 12.3247 162.401 12.7591 161.958 12.7591L158.097 12.7847C158.175 10.6891 159.219 9.38577 160.497 9.38577Z" fill="#513D2C"/>
<path d="M170.253 12.5799C168.949 12.3499 167.879 11.9154 167.879 10.7143C167.879 10.2032 168.088 9.35989 169.366 9.35989C170.775 9.35989 172.235 10.4588 172.131 11.9666H172.157L173.461 10.1777C172.757 9.53878 171.557 9.05322 170.044 9.05322C167.801 9.05322 166.184 10.0754 166.184 11.7877C166.184 12.8354 166.784 14.4454 169.705 14.8288C171.349 15.0588 172.209 15.5954 172.209 16.7454C172.209 17.6399 171.688 18.1766 170.54 18.1766C168.949 18.1766 167.175 17.1032 167.227 15.4421H167.201L166.001 17.3588C166.757 17.9721 168.349 18.4832 169.809 18.4832C172.183 18.4832 173.722 17.2054 173.722 15.4932C173.748 13.9343 172.444 12.9632 170.253 12.5799Z" fill="black"/>
<path d="M170.253 12.5799C168.949 12.3499 167.879 11.9154 167.879 10.7143C167.879 10.2032 168.088 9.35989 169.366 9.35989C170.775 9.35989 172.235 10.4588 172.131 11.9666H172.157L173.461 10.1777C172.757 9.53878 171.557 9.05322 170.044 9.05322C167.801 9.05322 166.184 10.0754 166.184 11.7877C166.184 12.8354 166.784 14.4454 169.705 14.8288C171.349 15.0588 172.209 15.5954 172.209 16.7454C172.209 17.6399 171.688 18.1766 170.54 18.1766C168.949 18.1766 167.175 17.1032 167.227 15.4421H167.201L166.001 17.3588C166.757 17.9721 168.349 18.4832 169.809 18.4832C172.183 18.4832 173.722 17.2054 173.722 15.4932C173.748 13.9343 172.444 12.9632 170.253 12.5799Z" fill="#461E08"/>
<path d="M170.253 12.5799C168.949 12.3499 167.879 11.9154 167.879 10.7143C167.879 10.2032 168.088 9.35989 169.366 9.35989C170.775 9.35989 172.235 10.4588 172.131 11.9666H172.157L173.461 10.1777C172.757 9.53878 171.557 9.05322 170.044 9.05322C167.801 9.05322 166.184 10.0754 166.184 11.7877C166.184 12.8354 166.784 14.4454 169.705 14.8288C171.349 15.0588 172.209 15.5954 172.209 16.7454C172.209 17.6399 171.688 18.1766 170.54 18.1766C168.949 18.1766 167.175 17.1032 167.227 15.4421H167.201L166.001 17.3588C166.757 17.9721 168.349 18.4832 169.809 18.4832C172.183 18.4832 173.722 17.2054 173.722 15.4932C173.748 13.9343 172.444 12.9632 170.253 12.5799Z" fill="#513D2C"/>
<path d="M178.366 18.0491V9.66683H180.635L180.74 9.20683H178.392V6.70238L178.548 5.8335L174.166 7.82683V7.92905C175.444 7.57127 175.94 7.46905 175.94 8.26127V17.0779L175.888 18.2024L177.975 18.6879H178.366L181.027 18.0491V17.9724L178.366 18.0491Z" fill="black"/>
<path d="M178.366 18.0491V9.66683H180.635L180.74 9.20683H178.392V6.70238L178.548 5.8335L174.166 7.82683V7.92905C175.444 7.57127 175.94 7.46905 175.94 8.26127V17.0779L175.888 18.2024L177.975 18.6879H178.366L181.027 18.0491V17.9724L178.366 18.0491Z" fill="#461E08"/>
<path d="M178.366 18.0491V9.66683H180.635L180.74 9.20683H178.392V6.70238L178.548 5.8335L174.166 7.82683V7.92905C175.444 7.57127 175.94 7.46905 175.94 8.26127V17.0779L175.888 18.2024L177.975 18.6879H178.366L181.027 18.0491V17.9724L178.366 18.0491Z" fill="#513D2C"/>
<path d="M83.5439 41.9944C82.2918 43.7577 80.5962 44.3711 79.0571 44.3711C76.5529 44.3711 74.2835 42.7611 72.4835 40.2822L70.2923 37.2666C69.588 36.2955 69.1446 36.3211 68.8055 36.4233L66.5099 38.6977C66.2491 38.9788 65.9882 39.3111 65.9621 39.6177C64.4752 38.1355 63.5883 35.6311 63.5883 33.2033C63.5883 30.0599 65.0752 27.9133 67.5012 27.9133C70.7619 27.9133 72.9009 31.8744 72.9009 35.8866C72.9009 37.4455 72.5357 38.9533 72.1183 39.1833L72.1966 39.3111C74.9878 38.4933 75.6399 36.0911 75.6399 34.1744C75.6399 30.3155 72.5357 27.5811 68.2577 27.5811C64.0579 27.5811 60.8232 30.2133 60.8232 34.4555C60.8232 38.7233 64.0579 41.3299 68.1272 41.3299C68.8055 41.3299 69.4576 41.2788 69.9532 41.0488C71.9618 43.7577 74.2052 45.1122 77.2572 45.1122C81.1179 45.1122 83.0483 43.0933 83.6743 41.9688H83.5439V41.9944ZM69.0141 40.9977C67.8925 40.9977 66.4578 40.4866 66.4578 39.3877C66.4578 38.7744 67.1099 38.2633 67.449 38.2633C67.7099 38.2633 68.1012 38.5188 68.8055 39.4644L69.8489 40.9211C69.5619 40.9722 69.275 40.9977 69.0141 40.9977Z" fill="black"/>
<path d="M83.5439 41.9944C82.2918 43.7577 80.5962 44.3711 79.0571 44.3711C76.5529 44.3711 74.2835 42.7611 72.4835 40.2822L70.2923 37.2666C69.588 36.2955 69.1446 36.3211 68.8055 36.4233L66.5099 38.6977C66.2491 38.9788 65.9882 39.3111 65.9621 39.6177C64.4752 38.1355 63.5883 35.6311 63.5883 33.2033C63.5883 30.0599 65.0752 27.9133 67.5012 27.9133C70.7619 27.9133 72.9009 31.8744 72.9009 35.8866C72.9009 37.4455 72.5357 38.9533 72.1183 39.1833L72.1966 39.3111C74.9878 38.4933 75.6399 36.0911 75.6399 34.1744C75.6399 30.3155 72.5357 27.5811 68.2577 27.5811C64.0579 27.5811 60.8232 30.2133 60.8232 34.4555C60.8232 38.7233 64.0579 41.3299 68.1272 41.3299C68.8055 41.3299 69.4576 41.2788 69.9532 41.0488C71.9618 43.7577 74.2052 45.1122 77.2572 45.1122C81.1179 45.1122 83.0483 43.0933 83.6743 41.9688H83.5439V41.9944ZM69.0141 40.9977C67.8925 40.9977 66.4578 40.4866 66.4578 39.3877C66.4578 38.7744 67.1099 38.2633 67.449 38.2633C67.7099 38.2633 68.1012 38.5188 68.8055 39.4644L69.8489 40.9211C69.5619 40.9722 69.275 40.9977 69.0141 40.9977Z" fill="#461E08"/>
<path d="M83.5439 41.9944C82.2918 43.7577 80.5962 44.3711 79.0571 44.3711C76.5529 44.3711 74.2835 42.7611 72.4835 40.2822L70.2923 37.2666C69.588 36.2955 69.1446 36.3211 68.8055 36.4233L66.5099 38.6977C66.2491 38.9788 65.9882 39.3111 65.9621 39.6177C64.4752 38.1355 63.5883 35.6311 63.5883 33.2033C63.5883 30.0599 65.0752 27.9133 67.5012 27.9133C70.7619 27.9133 72.9009 31.8744 72.9009 35.8866C72.9009 37.4455 72.5357 38.9533 72.1183 39.1833L72.1966 39.3111C74.9878 38.4933 75.6399 36.0911 75.6399 34.1744C75.6399 30.3155 72.5357 27.5811 68.2577 27.5811C64.0579 27.5811 60.8232 30.2133 60.8232 34.4555C60.8232 38.7233 64.0579 41.3299 68.1272 41.3299C68.8055 41.3299 69.4576 41.2788 69.9532 41.0488C71.9618 43.7577 74.2052 45.1122 77.2572 45.1122C81.1179 45.1122 83.0483 43.0933 83.6743 41.9688H83.5439V41.9944ZM69.0141 40.9977C67.8925 40.9977 66.4578 40.4866 66.4578 39.3877C66.4578 38.7744 67.1099 38.2633 67.449 38.2633C67.7099 38.2633 68.1012 38.5188 68.8055 39.4644L69.8489 40.9211C69.5619 40.9722 69.275 40.9977 69.0141 40.9977Z" fill="#513D2C"/>
<path d="M77.518 41.0745H80.8309C80.257 40.6912 80.0744 40.3334 80.0744 39.3112V33.2034L80.1788 31.7979L76.4746 32.079V32.1556C76.8659 32.1812 77.3876 32.3345 77.6485 32.4879V39.7456L77.518 41.0745Z" fill="black"/>
<path d="M77.518 41.0745H80.8309C80.257 40.6912 80.0744 40.3334 80.0744 39.3112V33.2034L80.1788 31.7979L76.4746 32.079V32.1556C76.8659 32.1812 77.3876 32.3345 77.6485 32.4879V39.7456L77.518 41.0745Z" fill="#461E08"/>
<path d="M77.518 41.0745H80.8309C80.257 40.6912 80.0744 40.3334 80.0744 39.3112V33.2034L80.1788 31.7979L76.4746 32.079V32.1556C76.8659 32.1812 77.3876 32.3345 77.6485 32.4879V39.7456L77.518 41.0745Z" fill="#513D2C"/>
<path d="M80.1786 29.0123C80.1786 28.2457 79.5525 27.6323 78.77 27.6323C77.9874 27.6323 77.3613 28.2457 77.3613 29.0123C77.3613 29.8045 77.9874 30.4179 78.77 30.4179C79.5525 30.4179 80.1786 29.8045 80.1786 29.0123Z" fill="black"/>
<path d="M80.1786 29.0123C80.1786 28.2457 79.5525 27.6323 78.77 27.6323C77.9874 27.6323 77.3613 28.2457 77.3613 29.0123C77.3613 29.8045 77.9874 30.4179 78.77 30.4179C79.5525 30.4179 80.1786 29.8045 80.1786 29.0123Z" fill="#461E08"/>
<path d="M80.1786 29.0123C80.1786 28.2457 79.5525 27.6323 78.77 27.6323C77.9874 27.6323 77.3613 28.2457 77.3613 29.0123C77.3613 29.8045 77.9874 30.4179 78.77 30.4179C79.5525 30.4179 80.1786 29.8045 80.1786 29.0123Z" fill="#513D2C"/>
<path d="M81.9785 36.909C81.9785 39.5412 83.8045 41.2279 86.5957 41.2279C87.7435 41.2279 88.6825 40.9212 89.3347 40.4357V42.0712C89.3347 43.5279 88.4739 44.4223 87.4565 44.4223C86.8044 44.4223 85.7609 44.3201 84.9784 42.659L82.7089 43.3235C83.4654 44.6523 84.7958 45.0612 85.8131 45.0612C87.9782 45.0612 91.7607 42.9912 91.7607 41.8923V32.5135C90.5346 32.0279 89.2043 31.8235 87.9782 31.8235C83.9349 31.7979 81.9785 34.1235 81.9785 36.909ZM89.3608 39.9757C88.9695 40.3846 88.4739 40.6146 87.8217 40.6146C85.8914 40.6146 84.4306 38.5446 84.4306 35.7846C84.4306 33.5868 85.3436 32.1301 87.1435 32.1301C88.0565 32.1301 88.7347 32.539 89.3608 33.1779V39.9757Z" fill="black"/>
<path d="M81.9785 36.909C81.9785 39.5412 83.8045 41.2279 86.5957 41.2279C87.7435 41.2279 88.6825 40.9212 89.3347 40.4357V42.0712C89.3347 43.5279 88.4739 44.4223 87.4565 44.4223C86.8044 44.4223 85.7609 44.3201 84.9784 42.659L82.7089 43.3235C83.4654 44.6523 84.7958 45.0612 85.8131 45.0612C87.9782 45.0612 91.7607 42.9912 91.7607 41.8923V32.5135C90.5346 32.0279 89.2043 31.8235 87.9782 31.8235C83.9349 31.7979 81.9785 34.1235 81.9785 36.909ZM89.3608 39.9757C88.9695 40.3846 88.4739 40.6146 87.8217 40.6146C85.8914 40.6146 84.4306 38.5446 84.4306 35.7846C84.4306 33.5868 85.3436 32.1301 87.1435 32.1301C88.0565 32.1301 88.7347 32.539 89.3608 33.1779V39.9757Z" fill="#461E08"/>
<path d="M81.9785 36.909C81.9785 39.5412 83.8045 41.2279 86.5957 41.2279C87.7435 41.2279 88.6825 40.9212 89.3347 40.4357V42.0712C89.3347 43.5279 88.4739 44.4223 87.4565 44.4223C86.8044 44.4223 85.7609 44.3201 84.9784 42.659L82.7089 43.3235C83.4654 44.6523 84.7958 45.0612 85.8131 45.0612C87.9782 45.0612 91.7607 42.9912 91.7607 41.8923V32.5135C90.5346 32.0279 89.2043 31.8235 87.9782 31.8235C83.9349 31.7979 81.9785 34.1235 81.9785 36.909ZM89.3608 39.9757C88.9695 40.3846 88.4739 40.6146 87.8217 40.6146C85.8914 40.6146 84.4306 38.5446 84.4306 35.7846C84.4306 33.5868 85.3436 32.1301 87.1435 32.1301C88.0565 32.1301 88.7347 32.539 89.3608 33.1779V39.9757Z" fill="#513D2C"/>
<path d="M98.7261 31.7979C95.648 31.7979 93.6133 33.7145 93.6133 36.5001C93.6133 39.3367 95.6219 41.2023 98.7261 41.2023C101.804 41.2023 103.839 39.2856 103.839 36.5001C103.813 33.6634 101.804 31.7979 98.7261 31.7979ZM99.4565 40.8956C97.1609 40.8956 95.9349 37.5734 95.9349 35.069C95.9349 33.229 96.561 32.1301 97.9435 32.1301C100.265 32.1301 101.465 35.4523 101.465 37.9823C101.465 39.7456 100.839 40.8956 99.4565 40.8956Z" fill="black"/>
<path d="M98.7261 31.7979C95.648 31.7979 93.6133 33.7145 93.6133 36.5001C93.6133 39.3367 95.6219 41.2023 98.7261 41.2023C101.804 41.2023 103.839 39.2856 103.839 36.5001C103.813 33.6634 101.804 31.7979 98.7261 31.7979ZM99.4565 40.8956C97.1609 40.8956 95.9349 37.5734 95.9349 35.069C95.9349 33.229 96.561 32.1301 97.9435 32.1301C100.265 32.1301 101.465 35.4523 101.465 37.9823C101.465 39.7456 100.839 40.8956 99.4565 40.8956Z" fill="#461E08"/>
<path d="M98.7261 31.7979C95.648 31.7979 93.6133 33.7145 93.6133 36.5001C93.6133 39.3367 95.6219 41.2023 98.7261 41.2023C101.804 41.2023 103.839 39.2856 103.839 36.5001C103.813 33.6634 101.804 31.7979 98.7261 31.7979ZM99.4565 40.8956C97.1609 40.8956 95.9349 37.5734 95.9349 35.069C95.9349 33.229 96.561 32.1301 97.9435 32.1301C100.265 32.1301 101.465 35.4523 101.465 37.9823C101.465 39.7456 100.839 40.8956 99.4565 40.8956Z" fill="#513D2C"/>
<path d="M115.159 39.3113V35.2225C115.159 32.3602 113.516 31.7725 112.316 31.7725C110.568 31.7725 109.055 32.8713 108.195 33.4847V33.2036L108.299 31.798L104.595 32.0791V32.1558C104.986 32.1813 105.508 32.3347 105.769 32.488V39.7458L105.664 41.0491H108.951C108.377 40.6658 108.195 40.308 108.195 39.2858V33.9191C108.899 33.408 109.864 32.6414 111.064 32.6414C111.977 32.6414 112.733 33.1269 112.733 35.248V39.7458L112.629 41.0491H115.942C115.342 40.6913 115.159 40.3336 115.159 39.3113Z" fill="black"/>
<path d="M115.159 39.3113V35.2225C115.159 32.3602 113.516 31.7725 112.316 31.7725C110.568 31.7725 109.055 32.8713 108.195 33.4847V33.2036L108.299 31.798L104.595 32.0791V32.1558C104.986 32.1813 105.508 32.3347 105.769 32.488V39.7458L105.664 41.0491H108.951C108.377 40.6658 108.195 40.308 108.195 39.2858V33.9191C108.899 33.408 109.864 32.6414 111.064 32.6414C111.977 32.6414 112.733 33.1269 112.733 35.248V39.7458L112.629 41.0491H115.942C115.342 40.6913 115.159 40.3336 115.159 39.3113Z" fill="#461E08"/>
<path d="M115.159 39.3113V35.2225C115.159 32.3602 113.516 31.7725 112.316 31.7725C110.568 31.7725 109.055 32.8713 108.195 33.4847V33.2036L108.299 31.798L104.595 32.0791V32.1558C104.986 32.1813 105.508 32.3347 105.769 32.488V39.7458L105.664 41.0491H108.951C108.377 40.6658 108.195 40.308 108.195 39.2858V33.9191C108.899 33.408 109.864 32.6414 111.064 32.6414C111.977 32.6414 112.733 33.1269 112.733 35.248V39.7458L112.629 41.0491H115.942C115.342 40.6913 115.159 40.3336 115.159 39.3113Z" fill="#513D2C"/>
<path d="M117.063 36.909C117.063 39.5412 118.889 41.2279 121.681 41.2279C122.828 41.2279 123.768 40.9212 124.42 40.4357V42.0712C124.42 43.5279 123.559 44.4223 122.541 44.4223C121.889 44.4223 120.846 44.3201 120.063 42.659L117.794 43.3235C118.55 44.6523 119.881 45.0612 120.898 45.0612C123.063 45.0612 126.846 42.9912 126.846 41.8923V32.5135C125.62 32.0279 124.289 31.8235 123.063 31.8235C119.02 31.7979 117.063 34.1235 117.063 36.909ZM124.42 39.9757C124.028 40.3846 123.533 40.6146 122.881 40.6146C120.95 40.6146 119.489 38.5446 119.489 35.7846C119.489 33.5868 120.402 32.1301 122.202 32.1301C123.115 32.1301 123.794 32.539 124.42 33.1779V39.9757Z" fill="black"/>
<path d="M117.063 36.909C117.063 39.5412 118.889 41.2279 121.681 41.2279C122.828 41.2279 123.768 40.9212 124.42 40.4357V42.0712C124.42 43.5279 123.559 44.4223 122.541 44.4223C121.889 44.4223 120.846 44.3201 120.063 42.659L117.794 43.3235C118.55 44.6523 119.881 45.0612 120.898 45.0612C123.063 45.0612 126.846 42.9912 126.846 41.8923V32.5135C125.62 32.0279 124.289 31.8235 123.063 31.8235C119.02 31.7979 117.063 34.1235 117.063 36.909ZM124.42 39.9757C124.028 40.3846 123.533 40.6146 122.881 40.6146C120.95 40.6146 119.489 38.5446 119.489 35.7846C119.489 33.5868 120.402 32.1301 122.202 32.1301C123.115 32.1301 123.794 32.539 124.42 33.1779V39.9757Z" fill="#461E08"/>
<path d="M117.063 36.909C117.063 39.5412 118.889 41.2279 121.681 41.2279C122.828 41.2279 123.768 40.9212 124.42 40.4357V42.0712C124.42 43.5279 123.559 44.4223 122.541 44.4223C121.889 44.4223 120.846 44.3201 120.063 42.659L117.794 43.3235C118.55 44.6523 119.881 45.0612 120.898 45.0612C123.063 45.0612 126.846 42.9912 126.846 41.8923V32.5135C125.62 32.0279 124.289 31.8235 123.063 31.8235C119.02 31.7979 117.063 34.1235 117.063 36.909ZM124.42 39.9757C124.028 40.3846 123.533 40.6146 122.881 40.6146C120.95 40.6146 119.489 38.5446 119.489 35.7846C119.489 33.5868 120.402 32.1301 122.202 32.1301C123.115 32.1301 123.794 32.539 124.42 33.1779V39.9757Z" fill="#513D2C"/>
<path d="M133.315 27.5811C133.68 27.5811 134.046 27.6833 134.385 27.8622C134.75 28.0411 135.011 28.3222 135.219 28.6544C135.428 29.0122 135.506 29.3699 135.506 29.7277C135.506 30.1111 135.402 30.4688 135.219 30.8011C135.037 31.1333 134.75 31.4144 134.411 31.5933C134.072 31.7722 133.706 31.8744 133.315 31.8744C132.924 31.8744 132.559 31.7722 132.22 31.5933C131.881 31.4144 131.594 31.1333 131.411 30.8011C131.228 30.4688 131.124 30.1111 131.124 29.7277C131.124 29.3444 131.228 28.9866 131.411 28.6544C131.62 28.2966 131.881 28.0411 132.246 27.8622C132.585 27.6577 132.95 27.5811 133.315 27.5811ZM133.315 27.9388C133.002 27.9388 132.715 28.0155 132.402 28.1688C132.115 28.3222 131.881 28.5522 131.724 28.8333C131.567 29.1144 131.463 29.4211 131.463 29.7277C131.463 30.0344 131.541 30.3411 131.698 30.6222C131.854 30.9033 132.089 31.1333 132.376 31.2866C132.663 31.4399 132.976 31.5166 133.289 31.5166C133.602 31.5166 133.915 31.4399 134.202 31.2866C134.489 31.1333 134.724 30.9033 134.88 30.6222C135.037 30.3411 135.115 30.0344 135.115 29.7277C135.115 29.4211 135.037 29.1144 134.88 28.8333C134.724 28.5522 134.489 28.3222 134.202 28.1688C133.941 28.0155 133.628 27.9388 133.315 27.9388ZM134.02 30.0855L134.385 30.1877C134.333 30.4177 134.202 30.6222 134.02 30.7499C133.837 30.9033 133.602 30.9544 133.341 30.9544C133.002 30.9544 132.715 30.8522 132.507 30.6222C132.298 30.4177 132.194 30.1111 132.194 29.7277C132.194 29.4722 132.246 29.2677 132.35 29.0633C132.454 28.8844 132.585 28.7311 132.767 28.6544C132.95 28.5522 133.159 28.5011 133.393 28.5011C133.654 28.5011 133.863 28.5522 134.046 28.6799C134.228 28.8077 134.333 28.9611 134.385 29.1655L134.046 29.2422C133.993 29.0888 133.889 28.9866 133.785 28.9099C133.68 28.8333 133.55 28.8077 133.393 28.8077C133.159 28.8077 132.976 28.8844 132.846 29.0377C132.689 29.1911 132.637 29.4211 132.637 29.7022C132.637 29.9833 132.715 30.2133 132.846 30.3666C132.976 30.5199 133.159 30.5966 133.367 30.5966C133.55 30.5966 133.706 30.5455 133.837 30.4433C133.889 30.3922 133.993 30.2388 134.02 30.0855Z" fill="black"/>
<path d="M133.315 27.5811C133.68 27.5811 134.046 27.6833 134.385 27.8622C134.75 28.0411 135.011 28.3222 135.219 28.6544C135.428 29.0122 135.506 29.3699 135.506 29.7277C135.506 30.1111 135.402 30.4688 135.219 30.8011C135.037 31.1333 134.75 31.4144 134.411 31.5933C134.072 31.7722 133.706 31.8744 133.315 31.8744C132.924 31.8744 132.559 31.7722 132.22 31.5933C131.881 31.4144 131.594 31.1333 131.411 30.8011C131.228 30.4688 131.124 30.1111 131.124 29.7277C131.124 29.3444 131.228 28.9866 131.411 28.6544C131.62 28.2966 131.881 28.0411 132.246 27.8622C132.585 27.6577 132.95 27.5811 133.315 27.5811ZM133.315 27.9388C133.002 27.9388 132.715 28.0155 132.402 28.1688C132.115 28.3222 131.881 28.5522 131.724 28.8333C131.567 29.1144 131.463 29.4211 131.463 29.7277C131.463 30.0344 131.541 30.3411 131.698 30.6222C131.854 30.9033 132.089 31.1333 132.376 31.2866C132.663 31.4399 132.976 31.5166 133.289 31.5166C133.602 31.5166 133.915 31.4399 134.202 31.2866C134.489 31.1333 134.724 30.9033 134.88 30.6222C135.037 30.3411 135.115 30.0344 135.115 29.7277C135.115 29.4211 135.037 29.1144 134.88 28.8333C134.724 28.5522 134.489 28.3222 134.202 28.1688C133.941 28.0155 133.628 27.9388 133.315 27.9388ZM134.02 30.0855L134.385 30.1877C134.333 30.4177 134.202 30.6222 134.02 30.7499C133.837 30.9033 133.602 30.9544 133.341 30.9544C133.002 30.9544 132.715 30.8522 132.507 30.6222C132.298 30.4177 132.194 30.1111 132.194 29.7277C132.194 29.4722 132.246 29.2677 132.35 29.0633C132.454 28.8844 132.585 28.7311 132.767 28.6544C132.95 28.5522 133.159 28.5011 133.393 28.5011C133.654 28.5011 133.863 28.5522 134.046 28.6799C134.228 28.8077 134.333 28.9611 134.385 29.1655L134.046 29.2422C133.993 29.0888 133.889 28.9866 133.785 28.9099C133.68 28.8333 133.55 28.8077 133.393 28.8077C133.159 28.8077 132.976 28.8844 132.846 29.0377C132.689 29.1911 132.637 29.4211 132.637 29.7022C132.637 29.9833 132.715 30.2133 132.846 30.3666C132.976 30.5199 133.159 30.5966 133.367 30.5966C133.55 30.5966 133.706 30.5455 133.837 30.4433C133.889 30.3922 133.993 30.2388 134.02 30.0855Z" fill="#461E08"/>
<path d="M133.315 27.5811C133.68 27.5811 134.046 27.6833 134.385 27.8622C134.75 28.0411 135.011 28.3222 135.219 28.6544C135.428 29.0122 135.506 29.3699 135.506 29.7277C135.506 30.1111 135.402 30.4688 135.219 30.8011C135.037 31.1333 134.75 31.4144 134.411 31.5933C134.072 31.7722 133.706 31.8744 133.315 31.8744C132.924 31.8744 132.559 31.7722 132.22 31.5933C131.881 31.4144 131.594 31.1333 131.411 30.8011C131.228 30.4688 131.124 30.1111 131.124 29.7277C131.124 29.3444 131.228 28.9866 131.411 28.6544C131.62 28.2966 131.881 28.0411 132.246 27.8622C132.585 27.6577 132.95 27.5811 133.315 27.5811ZM133.315 27.9388C133.002 27.9388 132.715 28.0155 132.402 28.1688C132.115 28.3222 131.881 28.5522 131.724 28.8333C131.567 29.1144 131.463 29.4211 131.463 29.7277C131.463 30.0344 131.541 30.3411 131.698 30.6222C131.854 30.9033 132.089 31.1333 132.376 31.2866C132.663 31.4399 132.976 31.5166 133.289 31.5166C133.602 31.5166 133.915 31.4399 134.202 31.2866C134.489 31.1333 134.724 30.9033 134.88 30.6222C135.037 30.3411 135.115 30.0344 135.115 29.7277C135.115 29.4211 135.037 29.1144 134.88 28.8333C134.724 28.5522 134.489 28.3222 134.202 28.1688C133.941 28.0155 133.628 27.9388 133.315 27.9388ZM134.02 30.0855L134.385 30.1877C134.333 30.4177 134.202 30.6222 134.02 30.7499C133.837 30.9033 133.602 30.9544 133.341 30.9544C133.002 30.9544 132.715 30.8522 132.507 30.6222C132.298 30.4177 132.194 30.1111 132.194 29.7277C132.194 29.4722 132.246 29.2677 132.35 29.0633C132.454 28.8844 132.585 28.7311 132.767 28.6544C132.95 28.5522 133.159 28.5011 133.393 28.5011C133.654 28.5011 133.863 28.5522 134.046 28.6799C134.228 28.8077 134.333 28.9611 134.385 29.1655L134.046 29.2422C133.993 29.0888 133.889 28.9866 133.785 28.9099C133.68 28.8333 133.55 28.8077 133.393 28.8077C133.159 28.8077 132.976 28.8844 132.846 29.0377C132.689 29.1911 132.637 29.4211 132.637 29.7022C132.637 29.9833 132.715 30.2133 132.846 30.3666C132.976 30.5199 133.159 30.5966 133.367 30.5966C133.55 30.5966 133.706 30.5455 133.837 30.4433C133.889 30.3922 133.993 30.2388 134.02 30.0855Z" fill="#513D2C"/>
</svg>
