<svg width="31" height="30" viewBox="0 0 31 30" fill="none" xmlns="http://www.w3.org/2000/svg">
<path d="M30.6823 15.4482C30.9068 6.86245 24.0225 -0.111135 15.492 0.00134176C7.29818 0.113819 0.675799 6.89994 0.750628 15.1108C0.788043 20.9971 4.23018 26.0585 9.16891 28.4956C9.46822 28.6455 9.80496 28.4206 9.76754 28.0831C9.73013 27.1083 9.76754 26.096 9.95461 25.2712C10.1417 24.4464 10.89 21.297 11.3764 19.2349C11.6009 18.2226 11.6383 17.1729 11.4512 16.1606C11.3764 15.8231 11.339 15.4482 11.339 14.9983C11.339 12.7862 12.611 11.1366 14.2199 11.1366C15.5668 11.1366 16.2403 12.1489 16.2403 13.3861C16.2403 14.7358 15.3797 16.7979 14.9308 18.71C14.5566 20.2847 15.7165 21.597 17.2879 21.597C20.1314 21.597 22.3014 18.5976 22.3014 14.2859C22.3014 10.4617 19.5702 7.79976 15.6416 7.79976C11.1145 7.79976 8.45803 11.2116 8.45803 14.7358C8.45803 16.1231 8.98184 17.5853 9.6553 18.3726C9.76754 18.5226 9.80496 18.6725 9.76754 18.8225C9.6553 19.3099 9.3934 20.3972 9.31857 20.6222C9.24374 20.9221 9.09408 20.9596 8.79476 20.8471C6.81179 19.8723 5.53969 16.9479 5.53969 14.6234C5.53969 9.59939 9.16891 4.98783 16.0532 4.98783C21.5531 4.98783 25.8558 8.92453 25.8558 14.211C25.8558 19.7223 22.4137 24.1089 17.5872 24.1089C16.3151 24.1089 15.1178 23.584 14.4069 22.8717C14.1825 22.6467 13.8083 22.7592 13.7335 23.0592C13.4716 23.9965 13.0974 25.5711 12.9478 26.0585C12.7233 26.9584 12.2369 28.0081 11.7131 28.9455C11.5634 29.1704 11.7131 29.5078 11.975 29.5453C13.2097 29.8453 14.4818 30.0327 15.7913 29.9952C23.7232 29.9203 30.4578 23.3216 30.6823 15.4482Z" fill="white"/>
</svg>
