<svg width="18" height="18" viewBox="0 0 18 18" fill="none" xmlns="http://www.w3.org/2000/svg">
<path fill-rule="evenodd" clip-rule="evenodd" d="M9 0C8.21517 0 7.57895 0.636227 7.57895 1.42105V7.57895L1.42105 7.57895C0.636227 7.57895 0 8.21517 0 9C0 9.78483 0.636227 10.4211 1.42105 10.4211H7.57895V16.5789C7.57895 17.3638 8.21517 18 9 18C9.78483 18 10.4211 17.3638 10.4211 16.5789V10.4211H16.5789C17.3638 10.4211 18 9.78483 18 9C18 8.21517 17.3638 7.57895 16.5789 7.57895L10.4211 7.57895V1.42105C10.4211 0.636227 9.78483 0 9 0Z" fill="#0D4037"/>
</svg>
