<svg width="24" height="24" viewBox="0 0 24 24" fill="none" xmlns="http://www.w3.org/2000/svg">
<path d="M21.6522 21.0125L16.502 15.8561C19.0914 12.4857 18.8325 7.61738 15.7251 4.53505C14.0276 2.8355 11.8408 2 9.62541 2C7.4099 2 5.22328 2.83529 3.52573 4.53505C0.159393 7.90545 0.159393 13.3787 3.52573 16.7491C5.22323 18.4487 7.41006 19.2842 9.62541 19.2842C11.4668 19.2842 13.3082 18.7081 14.8332 17.527L20.0121 22.6544C20.2423 22.8849 20.5299 23 20.8464 23C21.1342 23 21.4507 22.8849 21.6807 22.6544C22.1124 22.2224 22.1124 21.4732 21.652 21.0125L21.6522 21.0125ZM9.65423 16.9507C7.95673 16.9507 6.40293 16.2882 5.19451 15.1071C2.74878 12.6584 2.74878 8.65437 5.19451 6.17699C6.37421 4.99586 7.95673 4.33335 9.65423 4.33335C11.3517 4.33335 12.9055 4.99586 14.114 6.17699C15.3224 7.35812 15.9554 8.94254 15.9554 10.6421C15.9554 12.3416 15.2937 13.8973 14.114 15.1072C12.9342 16.3171 11.3231 16.9508 9.65423 16.9508V16.9507Z" fill="#2D353D"/>
</svg>
