<svg width="21" height="21" viewBox="0 0 21 21" fill="none" xmlns="http://www.w3.org/2000/svg">
<path d="M20.6522 19.0125L15.502 13.8561C18.0914 10.4857 17.8325 5.61738 14.7251 2.53505C13.0276 0.835501 10.8408 0 8.62541 0C6.4099 0 4.22328 0.835295 2.52573 2.53505C-0.840607 5.90545 -0.840607 11.3787 2.52573 14.7491C4.22323 16.4487 6.41006 17.2842 8.62541 17.2842C10.4668 17.2842 12.3082 16.7081 13.8332 15.527L19.0121 20.6544C19.2423 20.8849 19.5299 21 19.8464 21C20.1342 21 20.4507 20.8849 20.6807 20.6544C21.1124 20.2224 21.1124 19.4732 20.652 19.0125L20.6522 19.0125ZM8.65423 14.9507C6.95673 14.9507 5.40293 14.2882 4.19451 13.1071C1.74878 10.6584 1.74878 6.65437 4.19451 4.17699C5.37421 2.99586 6.95673 2.33335 8.65423 2.33335C10.3517 2.33335 11.9055 2.99586 13.114 4.17699C14.3224 5.35812 14.9554 6.94254 14.9554 8.64209C14.9554 10.3416 14.2937 11.8973 13.114 13.1072C11.9342 14.3171 10.3231 14.9508 8.65423 14.9508V14.9507Z" fill="#2D353D"/>
</svg>
