<svg width="31" height="30" viewBox="0 0 31 30" fill="none" xmlns="http://www.w3.org/2000/svg">
<path d="M13.6053 17.8102L18.4745 15L13.6053 12.1898V17.8102Z" fill="white"/>
<path d="M15.4698 0C7.20401 0 0.500977 6.717 0.500977 15C0.500977 23.283 7.20401 30 15.4698 30C23.7356 30 30.4386 23.283 30.4386 15C30.4386 6.717 23.7356 0 15.4698 0ZM24.823 15.0153C24.823 15.0153 24.823 18.0574 24.4379 19.5243C24.2221 20.3272 23.5903 20.9603 22.7891 21.1764C21.3252 21.5625 15.4698 21.5625 15.4698 21.5625C15.4698 21.5625 9.62968 21.5625 8.15052 21.161C7.34927 20.945 6.7175 20.3117 6.50166 19.5087C6.11634 18.0574 6.11634 15 6.11634 15C6.11634 15 6.11634 11.9582 6.50166 10.4913C6.71727 9.68834 7.36458 9.03969 8.15052 8.82362C9.61438 8.4375 15.4698 8.4375 15.4698 8.4375C15.4698 8.4375 21.3252 8.4375 22.7891 8.83896C23.5903 9.05502 24.2221 9.68834 24.4379 10.4913C24.8385 11.9582 24.823 15.0153 24.823 15.0153Z" fill="white"/>
</svg>
