<svg width="24" height="25" viewBox="0 0 24 25" fill="none" xmlns="http://www.w3.org/2000/svg">
<rect y="0.5" width="24" height="24" rx="12" fill="#8235A7"/>
<path d="M15.6472 14.928C15.7219 14.928 15.7872 14.9583 15.8432 15.019L16.3822 15.6C15.9716 16.076 15.4722 16.447 14.8842 16.713C14.3009 16.979 13.5939 17.112 12.7632 17.112C12.0446 17.112 11.3912 16.9883 10.8032 16.741C10.2152 16.489 9.71355 16.139 9.29822 15.691C8.88289 15.2383 8.56089 14.697 8.33222 14.067C8.10355 13.437 7.98922 12.744 7.98922 11.988C7.98922 11.232 8.10822 10.539 8.34622 9.909C8.58422 9.279 8.91789 8.73767 9.34722 8.285C9.78122 7.83233 10.2992 7.48233 10.9012 7.235C11.5032 6.983 12.1682 6.857 12.8962 6.857C13.6102 6.857 14.2402 6.97133 14.7862 7.2C15.3322 7.42867 15.8129 7.739 16.2282 8.131L15.7802 8.754C15.7522 8.80067 15.7149 8.84033 15.6682 8.873C15.6262 8.901 15.5679 8.915 15.4932 8.915C15.4092 8.915 15.3066 8.87067 15.1852 8.782C15.0639 8.68867 14.9052 8.586 14.7092 8.474C14.5132 8.362 14.2682 8.26167 13.9742 8.173C13.6802 8.07967 13.3186 8.033 12.8892 8.033C12.3712 8.033 11.8976 8.124 11.4682 8.306C11.0389 8.48333 10.6679 8.74233 10.3552 9.083C10.0472 9.42367 9.80689 9.839 9.63422 10.329C9.46155 10.819 9.37522 11.372 9.37522 11.988C9.37522 12.6133 9.46389 13.171 9.64122 13.661C9.82322 14.151 10.0682 14.5663 10.3762 14.907C10.6889 15.243 11.0552 15.4997 11.4752 15.677C11.8999 15.8543 12.3572 15.943 12.8472 15.943C13.1459 15.943 13.4142 15.9267 13.6522 15.894C13.8949 15.8567 14.1166 15.8007 14.3172 15.726C14.5226 15.6513 14.7116 15.558 14.8842 15.446C15.0616 15.3293 15.2366 15.1917 15.4092 15.033C15.4886 14.963 15.5679 14.928 15.6472 14.928Z" fill="white"/>
</svg>
