<svg width="24" height="25" viewBox="0 0 24 25" fill="none" xmlns="http://www.w3.org/2000/svg">
<rect y="0.5" width="24" height="24" rx="12" fill="#B1871B"/>
<path d="M16.6498 11.988C16.6498 12.7393 16.5308 13.423 16.2928 14.039C16.0548 14.655 15.7188 15.1823 15.2848 15.621C14.8508 16.0597 14.3281 16.4003 13.7168 16.643C13.1101 16.881 12.4381 17 11.7008 17H7.9558V6.969H11.7008C12.4381 6.969 13.1101 7.09033 13.7168 7.333C14.3281 7.571 14.8508 7.91167 15.2848 8.355C15.7188 8.79367 16.0548 9.321 16.2928 9.937C16.5308 10.553 16.6498 11.2367 16.6498 11.988ZM15.2568 11.988C15.2568 11.372 15.1728 10.8213 15.0048 10.336C14.8368 9.85067 14.5988 9.44 14.2908 9.104C13.9828 8.768 13.6095 8.51133 13.1708 8.334C12.7321 8.15667 12.2421 8.068 11.7008 8.068H9.3138V15.901H11.7008C12.2421 15.901 12.7321 15.8123 13.1708 15.635C13.6095 15.4577 13.9828 15.2033 14.2908 14.872C14.5988 14.536 14.8368 14.1253 15.0048 13.64C15.1728 13.1547 15.2568 12.604 15.2568 11.988Z" fill="white"/>
</svg>
