<svg width="30" height="30" viewBox="0 0 30 30" fill="none" xmlns="http://www.w3.org/2000/svg">
<path fill-rule="evenodd" clip-rule="evenodd" d="M6.75 1.25C5.09315 1.25 3.75 2.59315 3.75 4.25V25.75C3.75 27.4069 5.09315 28.75 6.75 28.75H23.25C24.9069 28.75 26.25 27.4069 26.25 25.75V4.25C26.25 2.59315 24.9069 1.25 23.25 1.25H6.75ZM8.45343 8.75H21.5468C22.0735 8.75 22.4998 8.19049 22.5 7.5C22.5 6.80948 22.0731 6.25 21.5466 6.25H8.45343C7.92674 6.25 7.5 6.80971 7.5 7.5C7.5 8.19052 7.92692 8.75 8.45343 8.75ZM21.5468 13.75H8.45343C7.92692 13.75 7.5 13.1905 7.5 12.5C7.5 11.8097 7.92674 11.25 8.45343 11.25H21.5466C22.0731 11.25 22.5 11.8095 22.5 12.5C22.5002 13.1905 22.0735 13.75 21.5468 13.75ZM8.45343 18.75H21.5468C22.0735 18.75 22.4998 18.1905 22.5 17.5C22.5 16.8095 22.0731 16.25 21.5466 16.25H8.45343C7.92674 16.25 7.5 16.8097 7.5 17.5C7.5 18.1905 7.92692 18.75 8.45343 18.75Z" fill="#E55D45"/>
</svg>
