<svg width="30" height="30" viewBox="0 0 30 30" fill="none" xmlns="http://www.w3.org/2000/svg">
<path d="M23.5059 24.9999H6.52657C5.86599 25.0058 5.22607 24.7638 4.72719 24.3195C4.2283 23.8751 3.90485 23.259 3.81768 22.587L2.01355 8.67146C1.97062 8.33238 2.03028 7.98796 2.18445 7.68484C2.33862 7.38171 2.57986 7.13454 2.87549 6.97679C3.17111 6.81904 3.50684 6.75834 3.83721 6.80291C4.16757 6.84748 4.4766 6.99517 4.72245 7.22597L7.75641 10.1114C7.91662 10.2723 8.10752 10.3974 8.31713 10.4789C8.52673 10.5605 8.75051 10.5966 8.97439 10.5851C9.19827 10.5737 9.41741 10.5148 9.61805 10.4122C9.81868 10.3096 9.99647 10.1656 10.1402 9.98908L13.7702 5.59702C13.9227 5.41009 14.1133 5.25976 14.3286 5.15661C14.5439 5.05346 14.7786 5 15.0163 5C15.2539 5 15.4886 5.05346 15.7039 5.15661C15.9192 5.25976 16.1098 5.41009 16.2623 5.59702L19.8923 9.98908C20.0343 10.1619 20.209 10.3033 20.4059 10.4047C20.6029 10.5061 20.8178 10.5654 21.0377 10.5789C21.2576 10.5924 21.4779 10.5599 21.6852 10.4834C21.8925 10.4068 22.0825 10.2878 22.2436 10.1336L25.2776 7.20929C25.5234 6.97849 25.8324 6.83081 26.1628 6.78624C26.4932 6.74166 26.8289 6.80236 27.1245 6.96011C27.4201 7.11786 27.6614 7.36503 27.8156 7.66816C27.9697 7.97128 28.0294 8.3157 27.9865 8.65478L26.1823 22.5537C26.1031 23.226 25.7875 23.8455 25.2947 24.2959C24.8019 24.7463 24.1659 24.9967 23.5059 24.9999Z" fill="#E55D45"/>
</svg>
