<svg width="216" height="64" viewBox="0 0 216 64" fill="none" xmlns="http://www.w3.org/2000/svg">
<g clip-path="url(#clip0_1548_38886)">
<circle cx="10" cy="23" r="8" fill="white" stroke="#E55D45" stroke-width="4"/>
<rect x="17.1743" y="18.5137" width="137.48" height="2" transform="rotate(5 17.1743 18.5137)" fill="#E55D45"/>
<path fill-rule="evenodd" clip-rule="evenodd" d="M42.4927 11.7117C42.4376 11.7059 42.3481 11.723 42.1969 11.7692C42.1595 11.781 42.0862 11.8023 42.0342 11.8179C41.9821 11.8321 41.9375 11.8472 41.9359 11.8511C41.9342 11.8549 41.8789 11.8724 41.8135 11.8901C41.7471 11.9082 41.6803 11.9287 41.6648 11.9356C41.6492 11.9424 41.6169 11.952 41.5924 11.9564C41.5683 11.9605 41.5126 11.9762 41.4694 11.9907C41.4262 12.0046 41.3728 12.0201 41.3507 12.025C41.3288 12.0301 41.2666 12.0462 41.2133 12.0612C41.1602 12.0759 41.0766 12.0958 41.0274 12.105C40.9791 12.1148 40.9077 12.1297 40.8706 12.1381C40.7665 12.1615 40.553 12.1943 40.4045 12.2102C40.3318 12.2177 40.2416 12.2281 40.2042 12.2328C40.1296 12.2426 39.9617 12.2475 39.8144 12.244C39.7615 12.2428 39.6888 12.2439 39.6539 12.2457C39.6186 12.2476 39.5854 12.2477 39.58 12.2454C39.5747 12.2431 39.5358 12.2408 39.4938 12.2403C39.3994 12.2393 39.2278 12.2289 39.1062 12.2161C39.0564 12.2105 38.9663 12.204 38.9059 12.1997C38.8462 12.1961 38.772 12.1902 38.7409 12.1867C38.5962 12.1708 38.4317 12.1548 38.2091 12.1337C38.0751 12.1219 37.947 12.1095 37.9232 12.1064C37.8997 12.1044 37.842 12.1002 37.7961 12.0976C37.7501 12.0955 37.6551 12.0896 37.5848 12.0854C37.3238 12.0676 37.1418 12.0646 36.9407 12.0731C36.8623 12.0769 36.7841 12.0783 36.7665 12.077C36.7497 12.0761 36.6833 12.0796 36.6184 12.0859C36.5546 12.0914 36.473 12.0987 36.4367 12.101C36.4014 12.1036 36.3476 12.1093 36.3182 12.1146C36.289 12.1192 36.2044 12.1311 36.1311 12.1398C35.7202 12.1927 35.2295 12.3257 34.8579 12.4856C34.6685 12.5668 34.6047 12.5954 34.5491 12.6262C34.517 12.6438 34.4522 12.6791 34.4053 12.7037C34.1863 12.8216 33.7998 13.1079 33.6328 13.2765C33.6138 13.2951 33.5761 13.3341 33.5483 13.3615C33.5025 13.4085 33.4084 13.5156 33.3518 13.5877C33.3126 13.6364 33.2674 13.7009 33.1988 13.8055C33.0391 14.0485 33.0382 14.0507 32.8855 14.4049C32.7265 14.7738 32.7165 14.801 32.6326 15.1345C32.5709 15.3786 32.5256 15.7016 32.5186 15.9441C32.5145 16.0749 32.5353 16.3013 32.5521 16.3085C32.5544 16.3095 32.5768 16.2976 32.6005 16.2818C32.7014 16.2154 32.8268 16.1408 32.8658 16.1242C32.8887 16.1144 32.9415 16.0866 32.9836 16.0627C33.1594 15.961 33.6888 15.7303 33.8904 15.667C33.9303 15.6538 34.0127 15.6282 34.0734 15.6093C34.1637 15.5799 34.3893 15.5171 34.6166 15.4568C34.6418 15.4508 34.7018 15.437 34.7504 15.4274C34.7987 15.4176 34.8671 15.4032 34.9043 15.3948C34.975 15.3795 35.0149 15.3724 35.1326 15.3549C35.173 15.3488 35.2478 15.3371 35.2977 15.328C35.3464 15.3193 35.4733 15.302 35.5779 15.2889C35.6833 15.2751 35.8401 15.2546 35.9273 15.2429C36.0148 15.2304 36.1503 15.2133 36.2281 15.2045C36.3068 15.1954 36.3957 15.1842 36.4258 15.1794C36.4558 15.1743 36.4835 15.1709 36.4865 15.1722C36.4972 15.1769 36.981 15.1016 37.0955 15.0763C37.118 15.0724 37.1616 15.066 37.192 15.0622C37.2883 15.0524 37.5383 15.0046 37.6457 14.9754C37.6732 14.9676 37.7464 14.9486 37.8068 14.9326C37.8671 14.9162 37.9583 14.8908 38.0097 14.8762C38.0606 14.8611 38.1336 14.8405 38.1703 14.8302C38.4663 14.7492 38.7208 14.6639 39.0228 14.5439C39.2112 14.4694 39.3125 14.4231 39.4318 14.3576C39.5187 14.3095 39.5925 14.2703 39.5963 14.2701C39.6003 14.2691 39.6065 14.2736 39.6107 14.2799C39.6232 14.2971 39.5023 14.4116 39.3531 14.5245C39.0122 14.7828 38.4203 15.0659 37.883 15.227C37.8122 15.2489 37.7203 15.2776 37.6788 15.2919C37.6381 15.3069 37.5841 15.323 37.5596 15.3278C37.5349 15.3325 37.4784 15.3466 37.4326 15.3604C37.3882 15.3737 37.3138 15.3892 37.2691 15.3942C37.2244 15.3999 37.1682 15.4091 37.1431 15.4145C37.0239 15.4395 36.7187 15.4839 36.4722 15.5113C36.4476 15.5143 36.3858 15.521 36.3363 15.5273C36.2866 15.5338 36.2082 15.5421 36.1608 15.5469C36.1144 15.5522 36.0431 15.5608 36.0033 15.5671C35.9637 15.5735 35.876 15.584 35.8082 15.5909C35.7409 15.5977 35.672 15.6068 35.6555 15.6102C35.6393 15.6141 35.5834 15.6197 35.5322 15.6235C35.4806 15.6283 35.4117 15.6374 35.3791 15.6438C35.3463 15.6504 35.296 15.6585 35.2676 15.6613C35.2183 15.667 35.1024 15.6844 35.0065 15.7023C34.9818 15.707 34.9091 15.7208 34.8446 15.7324C34.7801 15.7434 34.7013 15.7606 34.6705 15.7698C34.6398 15.778 34.5823 15.792 34.5438 15.7995C34.5054 15.8073 34.4272 15.8275 34.3712 15.8439C34.3147 15.8599 34.2511 15.8776 34.23 15.8827C34.2082 15.8869 34.1594 15.9019 34.1215 15.9142C34.0834 15.9276 34.0099 15.9516 33.9572 15.9685C33.7879 16.0241 33.4259 16.1722 33.2702 16.2508C33.1756 16.2982 33.06 16.3608 32.9714 16.4135C32.9324 16.4364 32.877 16.4647 32.8479 16.4775C32.7625 16.5144 32.5338 16.6587 32.3485 16.793C32.0954 16.9768 31.9056 17.1425 31.6819 17.3749C31.6099 17.4499 31.5278 17.5327 31.5001 17.5575C31.472 17.5825 31.4429 17.6121 31.4342 17.6237C31.4259 17.6346 31.3861 17.6769 31.3456 17.7161C31.3046 17.7563 31.2439 17.8218 31.2104 17.8616C31.1769 17.9011 31.1148 17.9753 31.0715 18.026C31.0286 18.0768 30.9837 18.1323 30.9729 18.149C30.9619 18.166 30.9424 18.1901 30.9302 18.2021C30.9042 18.2267 30.7769 18.3935 30.7475 18.4402C30.737 18.4583 30.7134 18.4939 30.6944 18.521C30.6263 18.6195 30.4989 18.8179 30.4626 18.8808C30.3874 19.0106 30.2198 19.3719 30.1783 19.4928C30.1566 19.5555 30.1103 19.6853 30.0755 19.7822C29.994 20.0102 29.9862 20.069 30.0244 20.1768C30.0465 20.2387 30.0808 20.2843 30.1083 20.289C30.1372 20.2934 30.2243 20.2508 30.2736 20.2081C30.3397 20.151 30.3684 20.1013 30.4209 19.9552C30.5626 19.5583 30.6999 19.2353 30.742 19.1958C30.7598 19.18 30.7766 19.1495 30.8085 19.0758C30.8421 18.9983 30.8637 18.959 30.9099 18.8942C30.9423 18.8488 31.0001 18.7627 31.0385 18.7036C31.0773 18.6456 31.1295 18.571 31.1556 18.5379C31.5496 18.0448 31.8116 17.7712 32.1386 17.5143C32.4766 17.2485 32.6312 17.1379 32.7972 17.042C32.8314 17.0215 32.9006 16.9802 32.9512 16.949C33.0016 16.9177 33.0461 16.8926 33.0507 16.8946C33.0545 16.8963 33.0934 16.9375 33.1375 16.9854C33.2891 17.1541 33.5088 17.355 33.7869 17.5792C34.0038 17.7553 33.9979 17.7501 34.1462 17.8433C34.1817 17.8651 34.2304 17.8962 34.2559 17.9126C34.2815 17.9283 34.3452 17.9645 34.3973 17.9926C34.4497 18.0216 34.5182 18.0595 34.5498 18.0777C34.5814 18.096 34.728 18.1659 34.8753 18.2324C35.2976 18.4237 35.657 18.5459 36.0427 18.6301C36.1423 18.6518 36.2539 18.6757 36.2901 18.6833C36.5025 18.7304 36.9578 18.7834 37.1401 18.783C37.1851 18.7835 37.2724 18.7823 37.3349 18.7836C37.4966 18.7833 37.6463 18.7687 37.8309 18.7359C38.0521 18.6964 38.1341 18.6798 38.2039 18.6603C38.2436 18.6497 38.3027 18.6345 38.3358 18.6265C38.4102 18.6089 38.8301 18.4438 38.9614 18.3799C39.0154 18.3534 39.0966 18.3138 39.1433 18.2918C39.1891 18.2691 39.2441 18.2398 39.2654 18.2263C39.2865 18.2131 39.3579 18.1711 39.4261 18.133C39.7238 17.9643 40.0675 17.7044 40.324 17.4539C40.352 17.4263 40.3965 17.3842 40.4227 17.3614C40.5897 17.211 40.9714 16.7764 41.1452 16.5378C41.233 16.418 41.3397 16.264 41.3601 16.2293C41.3723 16.2075 41.4193 16.1325 41.4639 16.0623C41.5895 15.8667 41.77 15.4857 41.8773 15.1923C41.9038 15.1207 41.9506 14.9939 41.9805 14.9103C42.068 14.6732 42.0967 14.5908 42.1515 14.4162C42.2333 14.1566 42.2679 14.0433 42.2858 13.9692C42.2953 13.9308 42.3067 13.8835 42.3127 13.8634C42.3187 13.8433 42.3311 13.7919 42.3405 13.7492C42.3501 13.7062 42.3682 13.6269 42.3812 13.5726C42.3945 13.5189 42.409 13.4521 42.4136 13.4245C42.4185 13.3968 42.4264 13.3597 42.4306 13.3416C42.4382 13.3114 42.4691 13.149 42.4947 13.0085C42.5009 12.9759 42.5084 12.9233 42.5126 12.8907C42.5195 12.837 42.5508 12.6799 42.5838 12.5285C42.5914 12.4945 42.6029 12.4365 42.6098 12.3996C42.6166 12.3631 42.6374 12.2782 42.6553 12.2119C42.6734 12.1449 42.6915 12.0697 42.6949 12.0452C42.7103 11.9308 42.683 11.8296 42.6221 11.7745C42.5903 11.7454 42.5298 11.7164 42.493 11.7122L42.4927 11.7117Z" fill="#E55D45"/>
<path fill-rule="evenodd" clip-rule="evenodd" d="M96.4927 16.7117C96.4376 16.7059 96.3481 16.723 96.1969 16.7692C96.1595 16.781 96.0862 16.8023 96.0342 16.8179C95.9821 16.8321 95.9375 16.8472 95.9359 16.8511C95.9342 16.8549 95.8789 16.8724 95.8135 16.8901C95.7471 16.9082 95.6803 16.9287 95.6648 16.9356C95.6492 16.9424 95.6169 16.952 95.5924 16.9564C95.5683 16.9605 95.5126 16.9762 95.4694 16.9907C95.4262 17.0046 95.3728 17.0201 95.3507 17.025C95.3288 17.0301 95.2666 17.0462 95.2133 17.0612C95.1602 17.0759 95.0766 17.0958 95.0274 17.105C94.9791 17.1148 94.9077 17.1297 94.8706 17.1381C94.7665 17.1615 94.553 17.1943 94.4045 17.2102C94.3318 17.2177 94.2416 17.2281 94.2042 17.2328C94.1296 17.2426 93.9617 17.2475 93.8144 17.244C93.7615 17.2428 93.6888 17.2439 93.6539 17.2457C93.6186 17.2476 93.5854 17.2477 93.58 17.2454C93.5747 17.2431 93.5358 17.2408 93.4938 17.2403C93.3994 17.2393 93.2278 17.2289 93.1062 17.2161C93.0564 17.2105 92.9663 17.204 92.9059 17.1997C92.8462 17.1961 92.772 17.1902 92.7409 17.1867C92.5962 17.1708 92.4317 17.1548 92.2091 17.1337C92.0751 17.1219 91.947 17.1095 91.9232 17.1064C91.8997 17.1044 91.842 17.1002 91.7961 17.0976C91.7501 17.0955 91.6551 17.0896 91.5848 17.0854C91.3238 17.0676 91.1418 17.0646 90.9407 17.0731C90.8623 17.0769 90.7841 17.0783 90.7665 17.077C90.7497 17.0761 90.6833 17.0796 90.6184 17.0859C90.5546 17.0914 90.473 17.0987 90.4367 17.101C90.4014 17.1036 90.3476 17.1093 90.3182 17.1146C90.289 17.1192 90.2044 17.1311 90.1311 17.1398C89.7202 17.1927 89.2295 17.3257 88.8579 17.4856C88.6685 17.5668 88.6047 17.5954 88.5491 17.6262C88.517 17.6438 88.4522 17.6791 88.4053 17.7037C88.1863 17.8216 87.7998 18.1079 87.6328 18.2765C87.6138 18.2951 87.5761 18.3341 87.5483 18.3615C87.5025 18.4085 87.4084 18.5156 87.3518 18.5877C87.3126 18.6364 87.2674 18.7009 87.1988 18.8055C87.0391 19.0485 87.0382 19.0507 86.8855 19.4049C86.7265 19.7738 86.7165 19.801 86.6326 20.1345C86.5709 20.3786 86.5256 20.7016 86.5186 20.9441C86.5145 21.0749 86.5353 21.3013 86.5521 21.3085C86.5544 21.3095 86.5768 21.2976 86.6005 21.2818C86.7014 21.2154 86.8268 21.1408 86.8658 21.1242C86.8887 21.1144 86.9415 21.0866 86.9836 21.0627C87.1594 20.961 87.6888 20.7303 87.8904 20.667C87.9303 20.6538 88.0127 20.6282 88.0734 20.6093C88.1637 20.5799 88.3893 20.5171 88.6166 20.4568C88.6418 20.4508 88.7018 20.437 88.7504 20.4274C88.7987 20.4176 88.8671 20.4032 88.9043 20.3948C88.975 20.3795 89.0149 20.3724 89.1326 20.3549C89.173 20.3488 89.2478 20.3371 89.2977 20.328C89.3464 20.3193 89.4733 20.302 89.5779 20.2889C89.6833 20.2751 89.8401 20.2546 89.9273 20.2429C90.0148 20.2304 90.1503 20.2133 90.2281 20.2045C90.3068 20.1954 90.3957 20.1842 90.4258 20.1794C90.4558 20.1743 90.4835 20.1709 90.4865 20.1722C90.4972 20.1769 90.981 20.1016 91.0955 20.0763C91.118 20.0724 91.1616 20.066 91.192 20.0622C91.2883 20.0524 91.5383 20.0046 91.6457 19.9754C91.6732 19.9676 91.7464 19.9486 91.8068 19.9326C91.8671 19.9162 91.9583 19.8908 92.0097 19.8762C92.0606 19.8611 92.1336 19.8405 92.1703 19.8302C92.4663 19.7492 92.7208 19.6639 93.0228 19.5439C93.2112 19.4694 93.3125 19.4231 93.4318 19.3576C93.5187 19.3095 93.5925 19.2703 93.5963 19.2701C93.6003 19.2691 93.6065 19.2736 93.6107 19.2799C93.6232 19.2971 93.5023 19.4116 93.3531 19.5245C93.0122 19.7828 92.4203 20.0659 91.883 20.227C91.8122 20.2489 91.7203 20.2776 91.6788 20.2919C91.6381 20.3069 91.5841 20.323 91.5596 20.3278C91.5349 20.3325 91.4784 20.3466 91.4326 20.3604C91.3882 20.3737 91.3138 20.3892 91.2691 20.3942C91.2244 20.3999 91.1682 20.4091 91.1431 20.4145C91.0239 20.4395 90.7187 20.4839 90.4722 20.5113C90.4476 20.5143 90.3858 20.521 90.3363 20.5273C90.2866 20.5338 90.2082 20.5421 90.1608 20.5469C90.1144 20.5522 90.0431 20.5608 90.0033 20.5671C89.9637 20.5735 89.876 20.584 89.8082 20.5909C89.7409 20.5977 89.672 20.6068 89.6555 20.6102C89.6393 20.6141 89.5834 20.6197 89.5322 20.6235C89.4806 20.6283 89.4117 20.6374 89.3791 20.6438C89.3463 20.6504 89.296 20.6585 89.2676 20.6613C89.2183 20.667 89.1024 20.6844 89.0065 20.7023C88.9818 20.707 88.9091 20.7208 88.8446 20.7324C88.7801 20.7434 88.7013 20.7606 88.6705 20.7698C88.6398 20.778 88.5823 20.792 88.5438 20.7995C88.5054 20.8073 88.4272 20.8275 88.3712 20.8439C88.3147 20.8599 88.2511 20.8776 88.23 20.8827C88.2082 20.8869 88.1594 20.9019 88.1215 20.9142C88.0834 20.9276 88.0099 20.9516 87.9572 20.9685C87.7879 21.0241 87.4259 21.1722 87.2702 21.2508C87.1756 21.2982 87.06 21.3608 86.9714 21.4135C86.9324 21.4364 86.877 21.4647 86.8479 21.4775C86.7625 21.5144 86.5338 21.6587 86.3485 21.793C86.0954 21.9768 85.9056 22.1425 85.6819 22.3749C85.6099 22.4499 85.5278 22.5327 85.5001 22.5575C85.472 22.5825 85.4429 22.6121 85.4342 22.6237C85.4259 22.6346 85.3861 22.6769 85.3456 22.7161C85.3046 22.7563 85.2439 22.8218 85.2104 22.8616C85.1769 22.9011 85.1148 22.9753 85.0715 23.026C85.0286 23.0768 84.9837 23.1323 84.9729 23.149C84.9619 23.166 84.9424 23.1901 84.9302 23.2021C84.9042 23.2267 84.7769 23.3935 84.7475 23.4402C84.737 23.4583 84.7134 23.4939 84.6944 23.521C84.6263 23.6195 84.4989 23.8179 84.4626 23.8808C84.3874 24.0106 84.2198 24.3719 84.1783 24.4928C84.1566 24.5555 84.1103 24.6853 84.0755 24.7822C83.994 25.0102 83.9862 25.069 84.0244 25.1768C84.0465 25.2387 84.0808 25.2843 84.1083 25.289C84.1372 25.2934 84.2243 25.2508 84.2736 25.2081C84.3397 25.151 84.3684 25.1013 84.4209 24.9552C84.5626 24.5583 84.6999 24.2353 84.742 24.1958C84.7598 24.18 84.7766 24.1495 84.8085 24.0758C84.8421 23.9983 84.8637 23.959 84.9099 23.8942C84.9423 23.8488 85.0001 23.7627 85.0385 23.7036C85.0773 23.6456 85.1295 23.571 85.1556 23.5379C85.5496 23.0448 85.8116 22.7712 86.1386 22.5143C86.4766 22.2485 86.6312 22.1379 86.7972 22.042C86.8314 22.0215 86.9006 21.9802 86.9512 21.949C87.0016 21.9177 87.0461 21.8926 87.0507 21.8946C87.0545 21.8963 87.0934 21.9375 87.1375 21.9854C87.2891 22.1541 87.5088 22.355 87.7869 22.5792C88.0038 22.7553 87.9979 22.7501 88.1462 22.8433C88.1817 22.8651 88.2304 22.8962 88.2559 22.9126C88.2815 22.9283 88.3452 22.9645 88.3973 22.9926C88.4497 23.0216 88.5182 23.0595 88.5498 23.0777C88.5814 23.096 88.728 23.1659 88.8753 23.2324C89.2976 23.4237 89.657 23.5459 90.0427 23.6301C90.1423 23.6518 90.2539 23.6757 90.2901 23.6833C90.5025 23.7304 90.9578 23.7834 91.1401 23.783C91.1851 23.7835 91.2724 23.7823 91.3349 23.7836C91.4966 23.7833 91.6463 23.7687 91.8309 23.7359C92.0521 23.6964 92.1341 23.6798 92.2039 23.6603C92.2436 23.6497 92.3027 23.6345 92.3358 23.6265C92.4102 23.6089 92.8301 23.4438 92.9614 23.3799C93.0154 23.3534 93.0966 23.3138 93.1433 23.2918C93.1891 23.2691 93.2441 23.2398 93.2654 23.2263C93.2865 23.2131 93.3579 23.1711 93.4261 23.133C93.7238 22.9643 94.0675 22.7044 94.324 22.4539C94.352 22.4263 94.3965 22.3842 94.4227 22.3614C94.5897 22.211 94.9714 21.7764 95.1452 21.5378C95.233 21.418 95.3397 21.264 95.3601 21.2293C95.3723 21.2075 95.4193 21.1325 95.4639 21.0623C95.5895 20.8667 95.77 20.4857 95.8773 20.1923C95.9038 20.1207 95.9506 19.9939 95.9805 19.9103C96.068 19.6732 96.0967 19.5908 96.1515 19.4162C96.2333 19.1566 96.2679 19.0433 96.2858 18.9692C96.2953 18.9308 96.3067 18.8835 96.3127 18.8634C96.3187 18.8433 96.3311 18.7919 96.3405 18.7492C96.3501 18.7062 96.3682 18.6269 96.3812 18.5726C96.3945 18.5189 96.409 18.4521 96.4136 18.4245C96.4185 18.3968 96.4264 18.3597 96.4306 18.3416C96.4382 18.3114 96.4691 18.149 96.4947 18.0085C96.5009 17.9759 96.5084 17.9233 96.5126 17.8907C96.5195 17.837 96.5508 17.6799 96.5838 17.5285C96.5914 17.4945 96.6029 17.4365 96.6098 17.3996C96.6166 17.3631 96.6374 17.2782 96.6553 17.2119C96.6734 17.1449 96.6915 17.0697 96.6949 17.0452C96.7103 16.9308 96.683 16.8296 96.6221 16.7745C96.5903 16.7454 96.5298 16.7164 96.493 16.7122L96.4927 16.7117Z" fill="#E55D45"/>
<path fill-rule="evenodd" clip-rule="evenodd" d="M59.6633 34.1052C59.6082 34.0996 59.524 34.0646 59.3855 33.9884C59.3513 33.9692 59.2839 33.9333 59.2362 33.9075C59.1881 33.8829 59.1476 33.859 59.1468 33.8548C59.1459 33.8507 59.0954 33.8224 59.035 33.7916C58.9737 33.7603 58.9125 33.7265 58.8988 33.7167C58.8849 33.7068 58.8553 33.6908 58.8322 33.6814C58.8094 33.6725 58.7581 33.6458 58.7188 33.6227C58.6793 33.6003 58.6302 33.5742 58.6096 33.5648C58.5892 33.5554 58.5317 33.5269 58.4826 33.5013C58.4335 33.4761 58.3558 33.4394 58.3095 33.4204C58.2642 33.4009 58.1974 33.3716 58.1628 33.3559C58.0657 33.3117 57.8634 33.2358 57.7213 33.1899C57.6517 33.1677 57.5655 33.139 57.5299 33.1268C57.4589 33.1019 57.2955 33.0627 57.1506 33.036C57.0986 33.0264 57.0277 33.0104 56.9939 33.0015C56.9597 32.9924 56.9272 32.9855 56.9215 32.9867C56.9159 32.9879 56.8773 32.9822 56.836 32.974C56.7435 32.9558 56.5734 32.9308 56.4518 32.9184C56.4018 32.9137 56.3123 32.9016 56.2523 32.8935C56.1931 32.8847 56.1193 32.8754 56.0882 32.8724C55.9433 32.8584 55.7789 32.8404 55.5568 32.8154C55.4232 32.7996 55.2953 32.7856 55.2713 32.7836C55.2479 32.7808 55.1906 32.7731 55.145 32.7663C55.0997 32.759 55.0055 32.7452 54.9358 32.735C54.6767 32.6989 54.4979 32.6647 54.3027 32.6152C54.2268 32.5955 54.1506 32.578 54.1331 32.5757C54.1165 32.5732 54.0522 32.5562 53.9899 32.5367C53.9286 32.5182 53.8503 32.4944 53.8152 32.4847C53.7812 32.475 53.7297 32.4584 53.7019 32.4472C53.6743 32.4367 53.594 32.4077 53.524 32.3842C53.1327 32.2484 52.6795 32.0177 52.3486 31.7851C52.1797 31.6669 52.1231 31.6259 52.075 31.5843C52.0472 31.5605 51.991 31.5128 51.9501 31.479C51.7599 31.3188 51.4402 30.9595 51.3112 30.7603C51.2965 30.7381 51.2675 30.6923 51.2459 30.6597C51.2107 30.6044 51.1405 30.4803 51.0999 30.3982C51.0714 30.3424 51.0404 30.2701 50.9947 30.1537C50.8881 29.8831 50.8876 29.8807 50.8107 29.5028C50.7305 29.1091 50.7263 29.0805 50.7124 28.7369C50.702 28.4853 50.7238 28.1599 50.7666 27.9211C50.7893 27.7922 50.856 27.5749 50.874 27.5712C50.8764 27.5707 50.8959 27.587 50.9158 27.6073C51.001 27.693 51.1085 27.7917 51.1432 27.8159C51.1637 27.8301 51.2097 27.8681 51.246 27.9002C51.3973 28.0357 51.8682 28.3699 52.0527 28.4731C52.089 28.4941 52.1644 28.5361 52.2199 28.567C52.3023 28.6143 52.5102 28.7219 52.7204 28.8275C52.7439 28.8385 52.7998 28.8643 52.8453 28.8836C52.8906 28.9031 52.9547 28.9312 52.9893 28.947C53.0554 28.9765 53.093 28.9916 53.2047 29.0328C53.243 29.047 53.3137 29.0738 53.3607 29.0929C53.4067 29.1114 53.5273 29.1543 53.627 29.1886C53.7273 29.2236 53.8767 29.2758 53.9596 29.3051C54.0427 29.3352 54.1718 29.3797 54.2461 29.4043C54.3214 29.4293 54.4061 29.4584 54.4346 29.4693C54.4628 29.4804 54.4893 29.4894 54.4925 29.4887C54.5039 29.4864 54.9621 29.6591 55.069 29.7073C55.0902 29.7156 55.1316 29.7309 55.1605 29.7408C55.2528 29.7701 55.4877 29.868 55.5869 29.9186C55.6122 29.9318 55.6799 29.9654 55.7358 29.9935C55.7914 30.0219 55.8756 30.0654 55.9228 30.0902C55.9696 30.1154 56.0368 30.1505 56.0707 30.1681C56.3438 30.308 56.5754 30.4436 56.8465 30.6228C57.0157 30.7343 57.1053 30.8004 57.2087 30.8889C57.2839 30.9537 57.3482 31.0072 57.3518 31.0082C57.3555 31.01 57.3625 31.0069 57.3679 31.0015C57.3837 30.9873 57.2888 30.8504 57.1658 30.7094C56.8851 30.3868 56.3636 29.9886 55.8707 29.7209C55.8058 29.685 55.7218 29.6381 55.684 29.6156C55.6473 29.5926 55.5977 29.5658 55.5748 29.556C55.5515 29.5464 55.4991 29.521 55.4571 29.4982C55.4163 29.476 55.3467 29.4457 55.304 29.4316C55.2614 29.4169 55.2082 29.3964 55.1848 29.386C55.0732 29.3371 54.7836 29.2312 54.5479 29.1539C54.5244 29.1459 54.4653 29.1267 54.4181 29.1105C54.3709 29.0939 54.2958 29.0697 54.2504 29.0553C54.2061 29.0407 54.138 29.0176 54.1003 29.0033C54.0629 28.989 53.9792 28.9607 53.9142 28.9401C53.8497 28.9197 53.7842 28.8967 53.7687 28.8899C53.7536 28.8828 53.7001 28.8659 53.6507 28.8517C53.6012 28.8364 53.5356 28.8134 53.505 28.8005C53.4743 28.7873 53.4267 28.7691 53.3995 28.7606C53.3524 28.7448 53.2425 28.7041 53.1523 28.6669C53.129 28.6573 53.0607 28.6289 53 28.6043C52.9391 28.5804 52.8655 28.5474 52.8372 28.5321C52.8089 28.5178 52.7555 28.4924 52.7193 28.4771C52.6833 28.4616 52.6109 28.4258 52.5594 28.3983C52.5074 28.3711 52.4488 28.3407 52.4291 28.3315C52.4087 28.3229 52.364 28.2982 52.3294 28.2784C52.2948 28.2575 52.2278 28.219 52.1797 28.1916C52.0253 28.1025 51.7014 27.8835 51.565 27.7747C51.4821 27.7089 51.3818 27.6241 51.3058 27.5543C51.2724 27.5239 51.224 27.4849 51.1981 27.4664C51.122 27.4127 50.9277 27.2248 50.7738 27.0553C50.5637 26.8236 50.4118 26.6226 50.2404 26.3494C50.1853 26.2611 50.1218 26.1633 50.0998 26.1334C50.0775 26.1032 50.055 26.0682 50.0489 26.0551C50.0429 26.0427 50.0127 25.9932 49.981 25.9466C49.9491 25.8988 49.9031 25.8223 49.8785 25.7765C49.8538 25.7309 49.8082 25.6456 49.7761 25.5871C49.7446 25.5286 49.712 25.4651 49.7048 25.4465C49.6976 25.4276 49.6834 25.4 49.6739 25.3858C49.6534 25.3564 49.563 25.1671 49.5439 25.1153C49.5372 25.0955 49.5214 25.0558 49.5084 25.0254C49.4619 24.915 49.3778 24.6947 49.3551 24.6258C49.308 24.4833 49.218 24.0953 49.2021 23.9685C49.1937 23.9027 49.1749 23.7662 49.1607 23.6642C49.1275 23.4244 49.132 23.3652 49.1914 23.2675C49.2258 23.2115 49.2686 23.1739 49.2966 23.1749C49.3257 23.1765 49.4022 23.236 49.4417 23.2879C49.4948 23.3573 49.5127 23.4118 49.5342 23.5655C49.5916 23.9831 49.6599 24.3274 49.6931 24.3746C49.7072 24.3938 49.7174 24.427 49.7336 24.5057C49.7506 24.5884 49.7637 24.6313 49.7957 24.7042C49.8181 24.7553 49.8571 24.8514 49.8825 24.9171C49.9086 24.9818 49.9445 25.0655 49.9633 25.1032C50.248 25.6666 50.4485 25.988 50.7159 26.3063C50.9924 26.6357 51.1211 26.7756 51.2639 26.9035C51.2933 26.9305 51.3525 26.9851 51.3957 27.026C51.4386 27.0669 51.477 27.1006 51.4819 27.0996C51.486 27.0988 51.5325 27.0663 51.5855 27.0285C51.7684 26.8944 52.0245 26.7427 52.3427 26.5802C52.591 26.4522 52.5842 26.4561 52.7484 26.3952C52.7876 26.3812 52.8417 26.3606 52.87 26.3498C52.8982 26.3397 52.968 26.3172 53.0248 26.3004C53.082 26.2828 53.1567 26.2597 53.1914 26.2484C53.2261 26.237 53.3839 26.1985 53.5417 26.1635C53.9942 26.0628 54.371 26.0167 54.7658 26.0132C54.8677 26.0123 54.9818 26.0118 55.0188 26.0118C55.2364 26.0091 55.6929 26.0504 55.8712 26.0881C55.9154 26.0968 56.0006 26.1158 56.062 26.1275C56.2203 26.1608 56.3638 26.2057 56.5378 26.2757C56.7462 26.3595 56.8231 26.3926 56.8875 26.426C56.9241 26.4445 56.9789 26.4714 57.0096 26.486C57.0788 26.5185 57.4561 26.7661 57.5715 26.8555C57.6189 26.8924 57.6903 26.9478 57.7316 26.9789C57.7717 27.0105 57.8195 27.0505 57.8376 27.068C57.8556 27.0852 57.9168 27.141 57.9758 27.1923C58.2327 27.4183 58.5159 27.743 58.7158 28.0407C58.7375 28.0735 58.7724 28.1238 58.7935 28.1514C58.9261 28.3329 59.2107 28.8363 59.332 29.1055C59.3935 29.2408 59.4664 29.4133 59.4793 29.4514C59.4867 29.4753 59.5174 29.5584 59.5467 29.6361C59.6296 29.8533 59.7284 30.2632 59.7733 30.5724C59.7845 30.6479 59.8045 30.7815 59.8166 30.8695C59.8537 31.1195 59.8649 31.206 59.8829 31.3882C59.9098 31.659 59.9205 31.777 59.9229 31.8532C59.9242 31.8927 59.9257 31.9414 59.9275 31.9622C59.9293 31.9831 59.9308 32.036 59.9314 32.0797C59.9319 32.1237 59.9334 32.2051 59.935 32.2609C59.9371 32.3162 59.9376 32.3845 59.9365 32.4125C59.9355 32.4407 59.9357 32.4786 59.9361 32.4972C59.9374 32.5283 59.9344 32.6935 59.9307 32.8363C59.9301 32.8695 59.9266 32.9225 59.9241 32.9553C59.9199 33.0093 59.9183 33.1694 59.9197 33.3244C59.9201 33.3592 59.9195 33.4184 59.9187 33.4558C59.9179 33.493 59.9209 33.5804 59.9248 33.6489C59.9289 33.7182 59.9312 33.7955 59.9295 33.8201C59.9212 33.9353 59.8737 34.0288 59.8028 34.0702C59.7658 34.0923 59.7006 34.1082 59.6637 34.1048L59.6633 34.1052Z" fill="#E55D45"/>
<path fill-rule="evenodd" clip-rule="evenodd" d="M130.053 38.5341C129.997 38.5339 129.91 38.5072 129.765 38.4449C129.729 38.4291 129.658 38.4 129.608 38.3789C129.558 38.3591 129.516 38.3393 129.514 38.3352C129.513 38.3312 129.46 38.3079 129.397 38.2832C129.333 38.2581 129.269 38.2304 129.254 38.2219C129.239 38.2134 129.208 38.2004 129.184 38.1933C129.161 38.1867 129.107 38.1651 129.066 38.146C129.024 38.1275 128.973 38.1063 128.951 38.099C128.93 38.0917 128.87 38.0689 128.819 38.0482C128.767 38.0279 128.687 37.999 128.639 37.9846C128.592 37.9696 128.522 37.947 128.486 37.9347C128.385 37.9001 128.177 37.8444 128.031 37.8125C127.959 37.7972 127.871 37.7771 127.834 37.7685C127.761 37.7506 127.595 37.7275 127.448 37.7151C127.395 37.7106 127.323 37.7016 127.288 37.696C127.254 37.6903 127.221 37.6866 127.215 37.6883C127.209 37.6901 127.171 37.6882 127.129 37.6841C127.035 37.6749 126.863 37.6666 126.741 37.6662C126.691 37.6664 126.6 37.6631 126.54 37.6609C126.48 37.6579 126.406 37.6558 126.374 37.6559C126.229 37.6561 126.064 37.6542 125.84 37.6511C125.706 37.6484 125.577 37.6468 125.553 37.6472C125.529 37.6467 125.471 37.6446 125.425 37.6423C125.38 37.6394 125.285 37.635 125.214 37.6315C124.953 37.621 124.772 37.6043 124.572 37.5741C124.495 37.5619 124.417 37.552 124.4 37.5514C124.383 37.5505 124.317 37.5398 124.253 37.5265C124.191 37.5141 124.11 37.498 124.074 37.4918C124.04 37.4855 123.987 37.474 123.958 37.4655C123.93 37.4578 123.847 37.4368 123.775 37.4202C123.372 37.3232 122.899 37.1378 122.547 36.9386C122.367 36.8374 122.307 36.8022 122.255 36.7655C122.225 36.7445 122.164 36.7025 122.12 36.6729C121.915 36.532 121.562 36.2056 121.414 36.0199C121.397 35.9993 121.364 35.9565 121.339 35.9262C121.299 35.8746 121.217 35.7579 121.169 35.6801C121.135 35.6274 121.097 35.5585 121.04 35.4471C120.908 35.1882 120.907 35.1859 120.793 34.8172C120.675 34.4333 120.668 34.4052 120.621 34.0646C120.586 33.8152 120.576 33.4892 120.595 33.2474C120.605 33.1169 120.65 32.8941 120.668 32.8887C120.67 32.888 120.691 32.9023 120.713 32.9205C120.806 32.9975 120.923 33.0852 120.96 33.1059C120.982 33.1181 121.031 33.1514 121.07 33.1798C121.234 33.2999 121.735 33.5865 121.929 33.6713C121.967 33.6887 122.046 33.7231 122.105 33.7485C122.191 33.7874 122.409 33.8743 122.628 33.9588C122.653 33.9675 122.711 33.9877 122.758 34.0025C122.805 34.0174 122.871 34.0392 122.907 34.0516C122.976 34.0744 123.015 34.0859 123.13 34.116C123.17 34.1263 123.243 34.146 123.291 34.1605C123.339 34.1745 123.463 34.2054 123.566 34.2297C123.669 34.2548 123.823 34.2922 123.908 34.3133C123.994 34.3352 124.126 34.3668 124.203 34.384C124.28 34.4016 124.367 34.4223 124.397 34.4303C124.426 34.4386 124.453 34.445 124.456 34.444C124.467 34.4406 124.94 34.5678 125.051 34.6053C125.073 34.6116 125.116 34.6227 125.146 34.6297C125.24 34.6499 125.484 34.7244 125.587 34.7651C125.614 34.7758 125.685 34.8026 125.743 34.8251C125.801 34.8479 125.889 34.883 125.938 34.9031C125.987 34.9237 126.058 34.952 126.093 34.9662C126.379 35.0787 126.622 35.1911 126.91 35.3431C127.089 35.4375 127.185 35.4945 127.296 35.5725C127.377 35.6297 127.447 35.6767 127.45 35.6774C127.454 35.6788 127.461 35.6749 127.466 35.6691C127.48 35.6534 127.372 35.5264 127.236 35.3981C126.925 35.1044 126.367 34.759 125.851 34.5407C125.782 34.5113 125.694 34.4728 125.655 34.4541C125.616 34.4348 125.564 34.4129 125.54 34.4054C125.516 34.3981 125.461 34.378 125.417 34.3593C125.374 34.3413 125.302 34.3178 125.258 34.308C125.214 34.2976 125.16 34.2823 125.135 34.2742C125.019 34.2365 124.721 34.1593 124.479 34.1054C124.455 34.0998 124.394 34.0864 124.345 34.0748C124.297 34.063 124.22 34.0462 124.173 34.0363C124.128 34.0261 124.057 34.0098 124.019 33.9992C123.98 33.9886 123.894 33.9686 123.827 33.9544C123.761 33.9404 123.694 33.9239 123.677 33.9187C123.662 33.9131 123.607 33.9014 123.556 33.8921C123.506 33.8818 123.438 33.8653 123.406 33.8554C123.374 33.8453 123.325 33.8318 123.297 33.826C123.249 33.8149 123.136 33.7851 123.042 33.7569C123.018 33.7496 122.947 33.728 122.885 33.7095C122.822 33.6916 122.745 33.6659 122.716 33.6534C122.686 33.642 122.63 33.6219 122.593 33.6102C122.556 33.5983 122.48 33.5698 122.426 33.5474C122.372 33.5254 122.31 33.5009 122.29 33.4936C122.269 33.4871 122.222 33.4668 122.185 33.4505C122.149 33.4331 122.079 33.4013 122.028 33.3787C121.866 33.3052 121.522 33.1188 121.376 33.0238C121.287 32.9664 121.179 32.8918 121.096 32.8297C121.06 32.8027 121.008 32.7686 120.98 32.7528C120.899 32.7068 120.688 32.5387 120.518 32.385C120.286 32.1749 120.115 31.9897 119.918 31.7345C119.855 31.6521 119.782 31.5609 119.757 31.5333C119.732 31.5054 119.706 31.4728 119.699 31.4603C119.692 31.4485 119.657 31.4022 119.621 31.3589C119.584 31.3145 119.531 31.2428 119.502 31.1996C119.473 31.1567 119.419 31.0762 119.382 31.0211C119.345 30.966 119.306 30.906 119.297 30.8882C119.288 30.8701 119.271 30.844 119.26 30.8308C119.237 30.8035 119.129 30.624 119.105 30.5743C119.096 30.5552 119.076 30.5172 119.06 30.4882C119.003 30.3829 118.898 30.1719 118.869 30.1055C118.808 29.9683 118.681 29.591 118.653 29.4663C118.638 29.4016 118.606 29.2676 118.582 29.1675C118.525 28.932 118.524 28.8727 118.574 28.7697C118.602 28.7106 118.641 28.6689 118.669 28.6672C118.698 28.666 118.78 28.7177 118.825 28.7655C118.884 28.8294 118.907 28.882 118.944 29.0328C119.042 29.4428 119.143 29.7788 119.181 29.8226C119.197 29.8402 119.21 29.8724 119.234 29.949C119.259 30.0297 119.276 30.0711 119.315 30.1405C119.342 30.1892 119.391 30.281 119.422 30.3439C119.455 30.4058 119.498 30.4857 119.521 30.5214C119.859 31.0542 120.09 31.3545 120.387 31.6452C120.695 31.9461 120.836 32.0728 120.991 32.1861C121.023 32.2102 121.087 32.2587 121.134 32.2952C121.181 32.3318 121.222 32.3615 121.227 32.36C121.231 32.3588 121.274 32.322 121.323 32.2792C121.492 32.1279 121.732 31.9519 122.033 31.7591C122.268 31.6075 122.261 31.6121 122.419 31.5354C122.456 31.5176 122.508 31.4919 122.535 31.4784C122.562 31.4656 122.63 31.4364 122.685 31.4142C122.74 31.391 122.812 31.3607 122.845 31.3461C122.879 31.3313 123.032 31.2777 123.186 31.2275C123.626 31.083 123.997 31.0004 124.389 30.9585C124.491 30.9476 124.604 30.936 124.641 30.9323C124.857 30.9085 125.315 30.905 125.497 30.9251C125.541 30.9295 125.628 30.9401 125.69 30.9457C125.851 30.9634 125.998 30.9941 126.178 31.0468C126.394 31.1099 126.474 31.1353 126.541 31.1623C126.579 31.1771 126.636 31.1985 126.668 31.2101C126.74 31.2356 127.14 31.4453 127.264 31.523C127.315 31.5551 127.391 31.6033 127.435 31.6302C127.478 31.6577 127.53 31.6928 127.549 31.7085C127.569 31.7239 127.635 31.7735 127.699 31.8187C127.977 32.0186 128.29 32.3141 128.518 32.5909C128.543 32.6214 128.583 32.668 128.606 32.6935C128.756 32.8612 129.088 33.3344 129.235 33.5905C129.31 33.7191 129.399 33.8837 129.416 33.9204C129.425 33.9435 129.464 34.0231 129.501 34.0976C129.604 34.3057 129.743 34.704 129.818 35.0074C129.836 35.0814 129.869 35.2124 129.89 35.2988C129.951 35.544 129.971 35.629 130.006 35.8085C130.059 36.0754 130.082 36.1918 130.091 36.2674C130.097 36.3066 130.103 36.3549 130.107 36.3755C130.11 36.3961 130.117 36.4486 130.122 36.492C130.127 36.5358 130.136 36.6167 130.143 36.672C130.151 36.7268 130.158 36.7948 130.16 36.8227C130.161 36.8509 130.165 36.8886 130.167 36.907C130.172 36.9379 130.185 37.1027 130.195 37.2451C130.198 37.2782 130.199 37.3313 130.2 37.3641C130.201 37.4183 130.215 37.5778 130.232 37.732C130.236 37.7665 130.241 37.8255 130.244 37.8628C130.246 37.8999 130.258 37.9866 130.269 38.0544C130.279 38.1229 130.289 38.1996 130.29 38.2244C130.293 38.3398 130.255 38.4374 130.188 38.4856C130.154 38.5112 130.09 38.5334 130.053 38.5336L130.053 38.5341Z" fill="#E55D45"/>
<rect x="152.131" width="64" height="64" rx="32" fill="#E55D45"/>
<path d="M198.798 30.1331C198.798 26.7818 196.06 24.0665 192.68 24.0665C191.806 24.0665 190.978 24.2494 190.226 24.5758C190.24 24.407 190.249 24.2382 190.249 24.0665C190.249 20.7153 187.511 18 184.131 18C180.752 18 178.014 20.7153 178.014 24.0665C178.014 24.2382 178.022 24.407 178.036 24.5758C177.284 24.2494 176.456 24.0665 175.582 24.0665C172.203 24.0665 169.464 26.7818 169.464 30.1331C169.464 33.0059 171.482 35.4145 174.186 36.0392C173.295 37.0944 172.759 38.4506 172.759 39.9335C172.759 43.2847 175.497 46 178.876 46C181.109 46 183.064 44.8126 184.131 43.0399C185.198 44.8126 187.153 46 189.386 46C192.765 46 195.504 43.2847 195.504 39.9335C195.504 38.4506 194.967 37.0944 194.076 36.0392C196.78 35.4117 198.798 33.0059 198.798 30.1331ZM185.476 27.5078C185.57 27.2602 185.848 27.1336 186.097 27.2264C186.347 27.3193 186.475 27.595 186.381 27.8426C186.288 28.0902 186.01 28.2169 185.76 28.124C185.51 28.0312 185.382 27.7554 185.476 27.5078ZM184.131 26.8747C184.398 26.8747 184.614 27.0885 184.614 27.353C184.614 27.6175 184.398 27.8314 184.131 27.8314C183.864 27.8314 183.649 27.6175 183.649 27.353C183.646 27.0885 183.862 26.8747 184.131 26.8747ZM181.969 27.3024C182.216 27.2011 182.5 27.3164 182.602 27.5612C182.704 27.806 182.588 28.0874 182.341 28.1887C182.094 28.29 181.81 28.1747 181.708 27.9299C181.606 27.6851 181.722 27.4037 181.969 27.3024ZM180.153 28.5067C180.343 28.3182 180.647 28.3182 180.837 28.5067C181.027 28.6952 181.027 28.9963 180.837 29.1848C180.647 29.3733 180.343 29.3733 180.153 29.1848C179.966 28.9991 179.966 28.6952 180.153 28.5067ZM178.862 30.4988C178.956 30.2512 179.234 30.1246 179.483 30.2175C179.733 30.3103 179.861 30.5861 179.767 30.8337C179.674 31.0813 179.395 31.2079 179.146 31.1151C178.896 31.0222 178.768 30.7465 178.862 30.4988ZM178.507 32.4516C178.507 32.1871 178.723 31.9733 178.99 31.9733C179.256 31.9733 179.472 32.1871 179.472 32.4516C179.472 32.7161 179.256 32.93 178.99 32.93C178.723 32.93 178.507 32.7161 178.507 32.4516ZM179.571 34.8518C179.325 34.9531 179.041 34.8377 178.939 34.5929C178.837 34.3481 178.953 34.0667 179.2 33.9654C179.447 33.8641 179.73 33.9795 179.832 34.2243C179.935 34.4691 179.815 34.7505 179.571 34.8518ZM180.837 36.3937C180.647 36.5823 180.343 36.5823 180.153 36.3937C179.963 36.2052 179.963 35.9041 180.153 35.7156C180.343 35.5271 180.647 35.5271 180.837 35.7156C181.027 35.9041 181.027 36.2052 180.837 36.3937ZM182.783 37.3926C182.69 37.6402 182.412 37.7669 182.162 37.674C181.912 37.5811 181.785 37.3054 181.878 37.0578C181.972 36.8102 182.25 36.6835 182.5 36.7764C182.749 36.8693 182.877 37.145 182.783 37.3926ZM184.131 38.0257C183.864 38.0257 183.649 37.8119 183.649 37.5474C183.649 37.2829 183.864 37.069 184.131 37.069C184.398 37.069 184.614 37.2829 184.614 37.5474C184.614 37.8119 184.398 38.0257 184.131 38.0257ZM186.29 37.598C186.044 37.6993 185.76 37.584 185.658 37.3392C185.556 37.0944 185.672 36.813 185.919 36.7117C186.166 36.6104 186.449 36.7258 186.551 36.9706C186.654 37.2154 186.537 37.4967 186.29 37.598ZM184.131 36.5091C181.87 36.5091 180.037 34.6914 180.037 32.4488C180.037 30.2062 181.87 28.3885 184.131 28.3885C186.393 28.3885 188.226 30.2062 188.226 32.4488C188.223 34.6914 186.39 36.5091 184.131 36.5091ZM188.106 36.3937C187.916 36.5823 187.613 36.5823 187.423 36.3937C187.232 36.2052 187.232 35.9041 187.423 35.7156C187.61 35.5271 187.916 35.5271 188.106 35.7156C188.294 35.9041 188.294 36.2052 188.106 36.3937ZM188.106 29.1848C187.916 29.3733 187.613 29.3733 187.423 29.1848C187.232 28.9963 187.232 28.6952 187.423 28.5067C187.61 28.3182 187.916 28.3182 188.106 28.5067C188.294 28.6952 188.294 28.9991 188.106 29.1848ZM188.688 30.0514C188.935 29.9502 189.219 30.0655 189.321 30.3103C189.423 30.5551 189.307 30.8365 189.06 30.9378C188.813 31.0391 188.529 30.9237 188.427 30.6789C188.325 30.4313 188.444 30.1527 188.688 30.0514ZM189.397 34.4016C189.304 34.6492 189.026 34.7758 188.776 34.6829C188.526 34.5901 188.399 34.3143 188.492 34.0667C188.586 33.8191 188.864 33.6925 189.114 33.7853C189.363 33.8782 189.491 34.154 189.397 34.4016ZM189.27 32.93C189.003 32.93 188.787 32.7161 188.787 32.4516C188.787 32.1871 189.003 31.9733 189.27 31.9733C189.536 31.9733 189.752 32.1871 189.752 32.4516C189.752 32.7161 189.536 32.93 189.27 32.93Z" fill="white"/>
</g>
<defs>
<clipPath id="clip0_1548_38886">
<rect width="216" height="64" fill="white"/>
</clipPath>
</defs>
</svg>
