<svg width="31" height="30" viewBox="0 0 31 30" fill="none" xmlns="http://www.w3.org/2000/svg">
<path d="M15.5938 0C7.32803 0 0.625 6.717 0.625 15C0.625 23.283 7.32803 30 15.5938 30C23.8596 30 30.5626 23.283 30.5626 15C30.5626 6.717 23.8596 0 15.5938 0ZM24.1373 18.5511C24.0958 19.468 23.9503 20.094 23.7379 20.6419C23.2913 21.7989 22.3786 22.7135 21.224 23.161C20.6774 23.3739 20.0525 23.5194 19.1378 23.5613C18.2212 23.6032 17.9284 23.6133 15.594 23.6133C13.2595 23.6133 12.9669 23.6032 12.0501 23.5613C11.1353 23.5194 10.5104 23.3739 9.96384 23.161C9.39008 22.9447 8.87068 22.6057 8.44128 22.1674C8.00411 21.7374 7.66584 21.2167 7.45 20.6419C7.23758 20.0942 7.09209 19.468 7.05052 18.5513C7.00826 17.6326 6.99844 17.3392 6.99844 15C6.99844 12.6608 7.00826 12.3674 7.05029 11.4489C7.09186 10.532 7.23712 9.90601 7.44954 9.35806C7.66539 8.78334 8.00388 8.26264 8.44128 7.83257C8.87046 7.39426 9.39008 7.05528 9.96361 6.83899C10.5104 6.62613 11.1351 6.48056 12.0501 6.43868C12.9667 6.39679 13.2595 6.38672 15.5938 6.38672C17.9281 6.38672 18.2209 6.39679 19.1375 6.4389C20.0525 6.48056 20.6772 6.62613 21.224 6.83876C21.7976 7.05505 22.3172 7.39426 22.7466 7.83257C23.1837 8.26286 23.5222 8.78334 23.7379 9.35806C23.9505 9.90601 24.0958 10.532 24.1376 11.4489C24.1794 12.3674 24.1892 12.6608 24.1892 15C24.1892 17.3392 24.1794 17.6326 24.1373 18.5511Z" fill="white"/>
<path fill-rule="evenodd" clip-rule="evenodd" d="M11.1799 15C11.1799 17.4429 13.156 19.4229 15.5938 19.4229C18.0314 19.4229 20.0075 17.4429 20.0075 15C20.0075 12.5571 18.0314 10.5771 15.5938 10.5771C13.156 10.5771 11.1799 12.5571 11.1799 15ZM19.1506 10.4022C19.1506 10.9731 19.6124 11.4359 20.182 11.4359C20.7517 11.4359 21.2133 10.9731 21.2135 10.4022C21.2135 9.83139 20.7517 9.36859 20.182 9.36859C19.6124 9.36859 19.1506 9.83139 19.1506 10.4022ZM15.5938 17.8711C17.1762 17.8711 18.4589 16.5857 18.4589 15C18.4589 13.4143 17.1762 12.1289 15.5938 12.1289C14.0114 12.1289 12.7287 13.4143 12.7287 15C12.7287 16.5857 14.0114 17.8711 15.5938 17.8711Z" fill="white"/>
</svg>
