<svg width="70" height="70" viewBox="0 0 70 70" fill="none" xmlns="http://www.w3.org/2000/svg">
<path d="M59.4338 0H10.5662C7.76443 0.0031557 5.07903 1.11762 3.09834 3.09834C1.11711 5.07957 0.00323137 7.76497 0 10.5662V59.4338C0.00315556 62.235 1.1171 64.9204 3.09834 66.9017C5.07903 68.8824 7.76443 69.9968 10.5662 70H59.4338C62.2356 69.9968 64.921 68.8824 66.9017 66.9017C68.8829 64.9204 69.9968 62.235 70 59.4338V10.5662C69.9968 7.76497 68.8829 5.07957 66.9017 3.09834C64.921 1.11765 62.2356 0.00323137 59.4338 0ZM3.1421 10.5662C3.1442 8.59813 3.92732 6.71047 5.31896 5.31883C6.71114 3.92665 8.59813 3.14412 10.5668 3.14196H59.4345C61.4031 3.14407 63.2902 3.92666 64.6824 5.31883C66.074 6.71047 66.8571 8.59799 66.8593 10.5662V45.5996L55.7977 35.7714C55.1661 35.2076 54.2005 35.2475 53.6178 35.8618L43.1884 46.8093L32.9257 35.8698C32.6307 35.5553 32.2189 35.3759 31.7876 35.3743H31.7797H31.7802C31.3511 35.3743 30.9408 35.5489 30.6442 35.8587L4.31666 63.4048C3.55352 62.2204 3.14645 60.8424 3.1433 59.4334L3.1421 10.5662ZM6.52278 65.6448L31.7692 39.2284L57.6874 66.8566H10.5674C9.12995 66.8555 7.72418 66.4337 6.52346 65.6437L6.52278 65.6448ZM61.6458 66.4837L45.3396 49.103L54.8444 39.1264L66.8583 49.8003V59.4334C66.8531 61.0101 66.3445 62.5442 65.4068 63.8123C64.469 65.0803 63.151 66.0165 61.6452 66.4835L61.6458 66.4837Z" fill="#DADADA"/>
</svg>
