<svg width="1920" height="683" viewBox="0 0 1920 683" fill="none" xmlns="http://www.w3.org/2000/svg">
<path d="M1415.26 132.73C1410.35 136.439 1403.86 140.78 1400.73 144.201C1397.6 147.622 1380.36 155.136 1374.71 163.867C1365.57 177.983 1347.94 185.736 1333.19 192.745C1324.72 196.772 1328.34 197.875 1326.26 204.442C1324.87 208.823 1317.15 213.693 1312.67 215.082C1304.67 217.556 1297.11 219.029 1290.24 223.937C1283.88 228.485 1276.93 238.424 1268.9 239.4C1260.39 240.436 1255.47 241.04 1247.91 245.877C1245.73 247.267 1231.36 249.556 1231.05 251.361C1230.31 255.676 1232.26 259.142 1227.32 261.737C1221.44 264.821 1213.55 268.315 1207.27 270.195C1201.55 271.905 1195.38 273.554 1189.4 273.896C1187.74 273.99 1186.6 276.609 1184.5 277.2C1181.42 278.071 1169.63 278.236 1168.6 282.222C1165.78 293.189 1155.98 285.19 1150.87 292.928C1147.23 298.435 1140.15 294.344 1136.8 300.856C1128.31 305.325 1122.47 310.71 1115.43 316.292C1113.8 317.585 1112.57 320.434 1110.65 321.36C1105.95 323.636 1098.02 323.034 1092.81 323.034C1080.96 323.034 1074.44 333.314 1062.7 334.4C1058.14 334.821 1041 340.187 1037.68 342.097C1029.15 347.011 1026.3 342.436 1017.75 347.324C1006.53 353.73 995.317 361.007 980.222 361.007H934.49L905.272 353.163C895.319 353.163 887.268 361.836 877.431 361.007C852.202 358.883 827.001 368.61 801.827 365.936C790.05 368.487 798.876 363.674 786.84 365.158C754.311 369.169 747.316 375.658 715.212 373.551C698.071 372.426 685.404 373.551 668.308 373.551C659.349 373.551 641.672 371.441 632.739 371.872C624.927 372.249 613.93 374.273 606.16 375.071C600.565 375.646 575.16 369.714 570.2 371.872C559.457 376.547 543.894 370.418 531.504 370.51C526.546 370.547 475.8 374.775 476.001 375.294C476.36 376.226 484.325 376.499 485.113 376.596C492.398 377.487 499.186 379.116 506.23 380.687C515.229 382.695 525.566 384.307 533.128 380.687C538.327 378.198 544.668 380.503 550.265 380.687C556.357 380.888 561.762 375.956 567.568 377.619C571.373 378.708 572.016 384.128 575.99 384.128C583.078 384.128 590.733 383.485 597.734 384.314C610.729 385.852 613.767 393.892 627 393.892C643.201 393.892 668.491 395.22 684.5 397.518C696.074 399.18 709.454 389.986 721.291 389.986C739.523 389.986 757.677 410.033 776 410.033C791.99 410.033 800.956 403.47 808 402.033C815.044 400.596 823.092 394.366 833.255 392.176C843.418 389.986 857.756 390.518 865.697 389.986C879.73 389.046 882.116 389.986 896.185 389.986C904.089 389.986 921.045 388.754 928.627 389.986C937.583 391.442 939.85 387.958 948.171 390.823C949.631 391.326 974.399 390.399 976.313 389.986C989.117 387.224 1007.16 394.45 1020.48 393.892C1040.68 393.046 1043.15 401.29 1062.7 397.518C1069.33 396.239 1089.77 397.632 1096.7 397.518C1109.8 397.303 1120.78 389.616 1133.83 390.823C1141.66 391.547 1145.41 389.771 1150.87 393.892C1152.93 395.45 1158.3 393.339 1161.4 393.892C1167.88 395.047 1172.11 394.027 1178.24 392.915C1183.92 391.887 1192.37 391.062 1198.23 392.218C1215.18 395.564 1230.52 400.047 1248.19 401.61C1267.84 403.348 1285.66 401.664 1305.44 400.029C1340 397.174 1353.31 409.865 1387.31 403.935C1402.74 401.242 1415.82 396.149 1431.05 392.683C1442.03 390.184 1453.21 389.986 1464.61 389.986C1480.33 389.986 1496.11 389.677 1511.8 390.451C1537.99 391.743 1566.76 395.469 1592.5 389.707C1621.87 383.133 1647.1 369.033 1678.41 366.739C1688.74 365.982 1699.35 366.112 1709.52 364.461C1725 361.947 1738.72 355.937 1752.82 350.838C1764.16 346.738 1776.6 344.182 1787.7 339.819C1791.31 338.401 1794 336.525 1796.19 334.007C1801.13 328.317 1810.77 325.644 1818.06 321.918C1828.01 316.831 1838.69 310.874 1847.47 304.762C1854.61 299.792 1914.28 113.634 1923 110.335C1917.48 107.953 1911.33 106.682 1906.54 102.404C1901.96 98.3164 1898.83 94.594 1892.7 93.8361C1891.84 93.7302 1892.29 92.6155 1892.03 91.9242C1891.43 90.3344 1890.13 90.5543 1888.9 89.8708C1883.32 86.7893 1877.04 89.1251 1871.17 87.7465C1870.1 87.4966 1864.41 85.7842 1863.96 83.9229C1862.01 75.9226 1850.88 79.8018 1847.22 73.1599C1845.83 70.6402 1842.21 67.3477 1839.53 67.1058C1836.73 66.852 1833.84 67.0704 1831.03 67.0704C1828.58 67.0704 1828.39 67.6329 1826.48 68.2741C1824.77 68.8477 1822.55 67.4751 1821.05 66.7871C1818.13 65.4459 1814.32 65.0744 1811.64 63.2467C1808.9 61.3787 1806.61 59.5143 1803.95 57.5466C1800.35 54.8715 1795.6 54.0466 1791.5 53.0502C1785.98 51.7102 1781.13 49.2758 1775.58 48.5892C1771.88 48.1327 1768.72 45.2043 1765.18 44.1637C1760.78 42.8741 1756.71 42.0213 1752.24 41.5438C1751.2 41.4334 1750.42 40.5976 1749.34 40.4462C1748.1 40.2715 1746.48 40.6825 1745.3 40.163C1744.36 39.7486 1742.47 38.4941 1741.63 37.7555C1739.9 36.2452 1738.27 35.1049 1736.32 33.9318C1734.54 32.8624 1731.77 31.9768 1730.41 30.3206C1729.01 28.6172 1727.29 28.6356 1726.04 26.9217C1725.23 25.8218 1724.28 24.9851 1723.38 24.0186C1722.46 23.0258 1721.86 20.8163 1721.72 19.416C1721.6 18.1138 1719.39 18.6371 1718.59 18.6371C1709.08 18.6371 1700.25 22.3293 1690.88 23.0627C1687 23.3664 1683.63 23.3934 1680.17 25.3639C1677.14 27.0951 1675.06 29.0065 1672.21 31.3827C1669.84 33.3557 1667.02 34.5594 1664.73 36.4809C1660.88 39.7104 1656.51 38.2927 1652.4 40.3046C1648.93 42.0015 1644.18 43.0908 1640.43 43.491C1633.5 44.2308 1626.23 47.3706 1619.5 49.4389C1616.19 50.4591 1612.7 50.8435 1609.34 51.811C1594.37 56.1236 1580.18 63.4924 1566.61 72.4518C1560.93 76.2064 1554.94 79.0226 1549.94 83.9937C1544.54 89.3555 1539.46 88.9496 1532.72 90.3665C1518.43 93.3689 1503.25 91.8599 1490.5 100.705C1487.64 102.692 1485.76 106.86 1483.15 108.848C1479.91 111.31 1476.12 110.405 1472.17 110.405C1461.95 110.405 1462.28 128.083 1452.11 129.048C1442.99 129.913 1434 130.181 1424.85 130.181C1423.1 130.181 1419.76 129.396 1418.4 130.818C1417.59 131.662 1416.21 132.019 1415.26 132.73Z" fill="#C4DED0"/>
<path d="M1858.93 71.5025C1875.64 65.7219 1879.01 43.7657 1913.47 27.6832C1917.93 21.9995 1922.9 17.5887 1927.76 14.2085C1927.03 9.04603 1941.05 10.3267 1935.37 4.30951C1933.25 2.06321 1947.28 3.75798 1951.56 4.2791C1951.82 4.273 1952.02 4.28352 1952.18 4.3092C1953.23 4.48313 1952.81 4.43093 1951.56 4.2791C1948.49 4.35215 1938.39 6.81613 1927.76 14.2085C1927.84 14.7427 1928.07 15.3458 1928.5 16.0332C1937.45 30.3631 1934.92 56.5115 1941.72 71.5025C1953.43 97.3213 1960.92 127.028 1958.22 155.188C1957.52 162.557 1951.66 168.994 1949.07 176.04C1946.37 183.366 1943.78 193.664 1935.37 199.206C1930.16 202.637 1947.24 217.722 1941.72 220.892C1932.02 226.464 1929.45 242.126 1918.32 246.069C1900.38 252.422 1854.2 238.535 1837.08 246.069C1821.08 253.113 1803.7 256.849 1787.37 263.182C1771.33 269.397 1755.5 275.608 1738.73 280.559C1720.77 285.862 1702.65 289.953 1683.88 290.926C1664.84 291.913 1645.63 295.19 1626.67 294.568C1619.05 294.318 1613.18 293.45 1605.44 294.006C1596.31 294.663 1587.75 293.15 1578.99 292.202C1567.7 290.982 1556.72 290.12 1547.27 285.676C1537.95 281.287 1529.81 272.904 1518.56 271.06C1498.15 267.714 1480.48 254.968 1468.43 243.325C1473.75 242.176 1479.34 241.319 1484.52 239.803C1489.86 238.242 1489.33 232.614 1493.83 232.013C1499.27 231.285 1514.97 244.832 1520.25 243.29C1525.36 241.795 1532.36 241.689 1536.99 239.545C1539.75 238.267 1542.97 237.032 1545.55 235.572C1548.6 233.848 1549.29 231.191 1551.83 229.186C1554.05 227.425 1557.6 226.579 1560.15 224.976C1562.2 223.68 1563.96 222.195 1565.96 220.892C1572.75 216.469 1575.96 214.028 1584.58 214.828C1588.72 215.214 1593.09 214.859 1597.11 215.609C1601.73 216.469 1605.94 217.533 1610.9 216.202C1617.88 214.329 1620.12 211.092 1625.59 207.995C1629.35 205.868 1633.17 212.175 1637.86 211.16C1652.62 207.968 1657.29 193.197 1671.59 188.162C1688.87 182.081 1700.12 179.536 1713.88 166.771C1719.91 161.174 1739.89 157.341 1749.84 155.188C1768.84 151.08 1786.71 127.643 1813.08 114.6C1839.46 101.557 1842.22 77.2831 1858.93 71.5025Z" fill="#8EB8AE"/>
<path d="M1889.77 249.576C1898.36 249.576 1906.07 246.277 1913.54 244.149C1916.45 244.982 1923 244.439 1923 246.862V263.404C1923 271.139 1920.66 278.699 1919.72 286.428C1919.08 291.615 1921.53 292.995 1911.84 293.512C1900.44 294.12 1889.05 294.838 1877.62 295.358C1850.55 296.591 1824.39 294.479 1797.44 293.813C1774.86 293.255 1752.24 293.43 1729.8 294.718C1715.25 295.552 1700.52 294.752 1685.93 295.057C1655.2 295.698 1625.75 301.988 1595.97 305.57C1585.37 306.844 1596.81 307.2 1586.96 309.413C1579.11 311.175 1571.8 313.388 1563.84 315.028C1541.94 319.545 1529.16 317.402 1506.25 317.402C1503.2 317.402 1499.98 318.167 1497.45 319.173C1489.16 322.464 1480.7 323.692 1470.98 325.013C1454.59 327.24 1437.55 329.21 1420.94 330.816C1400.95 332.749 1397.77 338.061 1378.38 341.103L1376.78 341.354C1364.32 343.307 1352.18 345.21 1340.03 347.773C1330.13 349.859 1319.82 350.185 1309.56 351.315C1293.52 353.079 1278.09 365.087 1262.21 367.392C1244.01 370.033 1223.55 374.384 1205.54 377.44C1190.52 379.988 1182.55 381.007 1166.66 381.007C1145.1 381.007 1127.46 384.645 1105.9 384.319C1102.6 384.27 1008.02 399.973 1020.06 386.613C1022.28 385.053 1047 380.986 1067.83 377.44C1088.66 373.894 1086.51 373.873 1094.16 370.327C1099.22 370.327 1102.97 368.555 1107.69 368.292C1113.2 367.986 1112.58 367.69 1116.88 361.653C1120.24 360.124 1126.07 358.321 1129.41 356.755C1132.11 355.486 1139.39 351.521 1139.39 349.154C1139.39 346.667 1146.32 347.281 1149.3 346.667C1154.59 345.579 1154.81 342.021 1152.39 339.508C1148.12 335.063 1155.63 332.499 1162.64 332.499C1167.57 332.499 1167.14 332.088 1170.25 331.067C1174.69 329.612 1179.36 328.685 1183.65 327.073C1188.25 325.347 1195.44 324.111 1198.75 321.647C1202.14 319.13 1205.62 316.646 1209.13 314.186C1214.51 310.411 1218.26 306.612 1222.41 302.392C1224.34 300.442 1223.27 297.304 1223.27 295.195C1223.27 288.2 1235.1 281.404 1246.71 280.738C1255.14 280.254 1249.27 266.645 1249.27 263.97C1249.27 257.043 1252.05 252.299 1262.21 248.219C1268.48 245.702 1264.95 241.068 1267.27 237.216C1269.51 233.477 1278.86 230.275 1284.21 228.173C1286.77 227.167 1290.65 226.082 1290.65 224.065C1290.65 220.644 1290.42 217.197 1290.65 213.778C1290.86 210.489 1295.16 208.075 1296.49 205.149C1298.21 201.362 1298.56 197.839 1298.92 193.958C1299.34 189.373 1314.76 189.693 1318.42 186.422C1320.28 184.765 1321.38 183.616 1321.38 181.674C1321.38 180.311 1320.29 176.451 1323.15 175.721C1329.26 174.162 1335.41 173.662 1341.74 172.405C1350.07 170.748 1353.43 166.838 1356.84 168.335C1360.24 169.828 1363.96 173.153 1365.05 175.344C1366.7 178.668 1376.22 183.385 1380.74 185.216C1391.72 189.658 1385.12 190.99 1397.58 193.374C1407.05 195.186 1413.07 199.153 1420.7 202.418C1426.51 204.906 1428.2 210.722 1433.96 212.591C1436.81 213.514 1442.94 212.742 1446.31 212.742L1446.97 212.742C1456.77 212.739 1463.06 212.738 1468.77 218.093C1472.76 221.843 1478.34 224.614 1485.71 226.986C1491.19 228.747 1492.78 228.417 1493.07 231.733C1493.16 232.784 1493.83 234.934 1494.51 235.916C1499.43 242.968 1504.11 247.376 1515.14 249.444C1522.08 250.746 1524.15 249.202 1530.11 247.786C1533.18 247.056 1535.75 247.329 1537.4 249.067C1542.65 254.594 1544.73 255.895 1553.33 257.869C1558.96 259.161 1555.43 261.089 1561.98 265.931C1568.52 270.774 1569.34 267.65 1574.95 269.582C1580.57 271.515 1590.37 269.153 1593.41 272.374C1596.46 275.596 1602.21 273.786 1614.42 276.706C1626.63 279.626 1634.34 276.706 1643.9 276.706C1647.79 276.706 1655.65 275.83 1659.23 276.857C1665.42 278.631 1666.36 280.531 1672.6 282.545C1678.03 284.297 1683.81 280.271 1688.95 280.097C1692.36 279.982 1695.97 278.741 1699.07 278.741C1705.64 278.741 1711.63 277.749 1717.85 276.857C1722.45 276.197 1728.51 276.706 1733.22 276.706C1738.79 276.706 1737.91 272.636 1744.51 272.636H1762.9C1765.66 272.636 1774.68 273.55 1776.43 272.297C1777.84 271.281 1779.86 270.15 1781.68 269.396C1786.98 267.2 1794.7 265.175 1801.18 265.175C1813.34 265.175 1825.54 263.277 1837.63 262.613C1842.81 262.329 1844.67 262.749 1847.74 260.164C1852.26 256.363 1858.3 253.239 1864.69 250.48C1867.55 249.243 1870.51 249.576 1873.94 249.576H1889.77Z" fill="#5A8D84"/>
<path d="M1899.61 245.171C1908.55 249.259 1926.31 242.653 1925.55 250.234C1924.81 257.643 1927.35 265.383 1927.95 267.206L1927.98 267.323C1929.88 273.125 1928.72 275.725 1932.84 281.078C1939.32 289.48 1937.86 289.414 1937.86 289.414C1937.86 289.414 1934.93 296.248 1932.84 296.083C1914.25 294.617 1923.63 295.294 1905.96 291.308C1891.99 288.155 1879.76 296.582 1865.31 294.947C1849.1 293.112 1831.04 281.348 1814.79 279.619C1802.55 278.316 1790.18 275.656 1777.82 275.078C1767.98 274.617 1757.97 275.038 1748.11 275C1742.6 274.979 1737.13 274.536 1731.63 274.536C1727.47 274.536 1723.54 275.533 1719.37 275.723C1702.09 276.51 1685.81 289.27 1668.5 289.502C1654.65 289.687 1638.2 283.906 1624.5 285.425C1607.12 287.352 1591.91 294.212 1574.5 296.082C1552.19 298.477 1553.75 313.215 1531.15 313.654C1526.53 313.744 1505.89 303.317 1504.07 306.378C1501.29 311.033 1490.62 303.51 1490.12 308.519C1490.03 309.461 1491.04 315.241 1489.56 315.796C1488.59 316.159 1485.15 315.148 1484.74 315.048C1478.45 313.49 1481.85 325.44 1475.84 323.434C1470.54 321.668 1465.5 319.657 1460.38 317.68C1458.88 317.099 1456.63 316.02 1454.78 315.899C1453.09 315.789 1448.66 319.227 1447.55 319.924C1444.99 321.537 1442.78 323.308 1439.84 324.621C1432.83 327.758 1425.56 327.511 1418.1 329.704C1412.73 331.283 1407.84 333.226 1403.28 335.742C1399.41 337.884 1394.63 338.988 1390.5 340.851C1386.76 342.535 1377.94 339.126 1373.87 340.49C1369.75 341.869 1363.03 334.83 1359.57 336.774C1356.75 338.357 1353.12 339.034 1350.17 340.49C1346.14 342.474 1342.48 342.781 1337.57 343.535C1331.41 344.478 1325.28 345.413 1318.99 345.806C1308.22 346.477 1297.42 346.948 1286.68 347.767C1279.11 348.344 1272.26 350.833 1264.9 352.076C1254.74 353.792 1244.37 354.869 1234.17 356.488C1224.41 358.039 1215.42 359.533 1205.44 359.533C1198.49 359.533 1191.91 359.421 1185.05 358.501C1176.1 357.301 1180.92 356.857 1185.2 355.095C1190.66 352.849 1197.12 351.016 1201.45 347.818C1202.82 346.807 1203.47 345.38 1205.29 344.67C1209.16 343.15 1213.64 344.18 1217.85 343.457C1223.08 342.56 1227.21 340.218 1232.03 338.658C1236.79 337.114 1241.37 335.578 1246.51 334.71C1249.01 334.289 1251.74 333.889 1254.03 333.033C1254.91 332.705 1255.15 332.015 1256.1 331.691C1258.4 330.902 1261.49 330.917 1263.96 330.839C1274.45 330.509 1285.01 331.026 1295.4 329.704C1299.7 329.158 1302.82 328.749 1301.8 325.679C1301.32 324.238 1300.43 321.976 1302.1 320.724C1306.87 317.154 1316.29 316.374 1322.94 315.873C1329.36 315.389 1334.33 314.748 1340.39 313.654C1341.92 313.378 1352.75 311.538 1350.17 310.042C1348.52 309.088 1349.92 307.118 1347.76 306.378C1345.27 305.523 1337.83 306.297 1337.12 303.591C1336.85 302.586 1340.92 302.043 1341.59 301.888C1351.63 299.549 1361.01 297.124 1371.64 296.082C1380.35 295.228 1389.02 295.118 1397.78 294.947C1398.54 294.932 1400.37 294.947 1399.97 294.508C1399.49 293.985 1397.38 292.813 1398.24 292.082C1400.8 289.883 1408.36 289.714 1412 289.502C1417.27 289.195 1421.37 288.859 1425.69 286.612C1428.49 285.158 1431.28 283.679 1433.52 281.812C1434.25 281.2 1434.8 280.386 1435.85 280.006C1439.82 278.572 1446.07 277.872 1450.44 277.426C1457.19 276.738 1463.93 276.394 1470.75 276.394C1473.32 276.394 1476.15 276.151 1478.69 276.419C1480.11 276.57 1481.69 277.322 1483.24 277.529C1487.95 278.158 1492.77 277.323 1497.57 277.323C1502.81 277.323 1508.51 277.748 1513.71 277.219C1517.9 276.793 1520.43 275.182 1524.24 274.278C1533.14 272.163 1542.85 270.051 1550.94 266.64C1561.26 262.293 1574.41 260.685 1586.03 258.976C1590.3 258.348 1595.22 258.011 1599.35 257.067C1605.01 255.773 1610.03 254.267 1615.94 253.377C1626.13 251.838 1636.08 249.087 1646.18 247.235C1658.33 245.008 1671.92 243.692 1683.64 240.423C1691.49 238.232 1696.93 234.687 1705.68 237.688C1708.7 238.723 1710.85 241.147 1713.95 241.92C1716.02 242.434 1719.18 242.023 1721.33 242.023C1724.98 242.023 1728.44 241.768 1732.05 241.584C1735.82 241.393 1738.29 239.83 1741.52 238.617C1747.96 236.2 1754.23 237.042 1761.12 237.585C1779.75 239.052 1798.97 235.388 1816.37 241.043C1823.49 243.355 1833.78 242.952 1841.53 242.952C1849.66 242.952 1857.29 242.085 1865.31 241.662C1871.94 241.312 1878.66 241.133 1885.32 241.094C1887.35 241.082 1889.39 240.968 1891.33 241.455C1894.32 242.207 1896.99 243.974 1899.61 245.171Z" fill="#186F6A"/>
<path d="M1825.46 274.526C1844.04 274.526 1852.42 288.978 1871 288.978C1859.58 292.482 1918.26 287.088 1923 288.978V383.533H929C929 383.533 985.546 377.519 988.206 377.205C1009.05 374.745 1020.84 377.911 1041.49 374.576C1047.18 373.658 1051.34 372.541 1057.33 372.541C1066.26 372.541 1074.48 370.959 1082.96 369.437C1088.08 368.519 1094.48 368.543 1099.22 367.045C1105.03 365.207 1112.41 364.269 1118.79 363.33C1130.66 361.583 1144.99 358.144 1157.11 357.884C1166.4 357.686 1172.42 357.028 1178.35 352.897C1183.49 349.313 1188.1 348.724 1195.27 348.724C1209.31 348.724 1225.45 349.15 1238.73 346.434C1242.93 345.574 1247.44 346.236 1251.75 345.925C1255 345.69 1256.94 343.806 1260.04 343.33C1265.28 342.526 1270.6 341.623 1275.89 340.683C1281.38 339.708 1285.53 337.732 1291.65 337.732C1306.42 337.732 1320.5 337.367 1335.11 335.9C1349.76 334.427 1364.01 328.766 1378.57 328.571C1385.27 328.482 1393.62 329.591 1399.88 328.113C1403.74 327.203 1407.93 326.096 1412.08 325.823C1415.52 325.597 1416.5 323.472 1419.04 322.363C1422.39 320.905 1426.79 320.865 1430.16 319.36C1438.25 315.75 1442.08 316.755 1451.56 315.543C1461.17 314.315 1471.52 311.215 1479.67 307.961C1487.86 304.695 1498.31 298.633 1500.58 292.388C1502.78 286.294 1533.42 304.202 1535.66 303.635C1538.77 302.85 1540.11 291.638 1542.63 288.978C1543.99 287.543 1551.33 279.144 1555.4 281.141C1558.7 282.762 1563.98 282.77 1568.17 282.77C1583.9 282.77 1599.1 281.68 1613.96 278.749C1618.6 277.834 1625.78 275.78 1630.46 275.492C1637.13 275.084 1644.22 276.215 1650.95 276.358C1659.54 276.539 1670.26 279.459 1676.75 274.882C1683.22 270.31 1689.01 269.725 1697.9 267.401C1706.46 265.16 1715.92 263.533 1725.27 263.533C1739.74 263.533 1748.64 266.87 1761.43 270.454C1781.49 276.079 1804.02 274.526 1825.46 274.526Z" fill="#21484A"/>
<path d="M1873.31 94.471C1874.91 95.0276 1876.49 95.8742 1878.03 96.4797C1877.12 97.2152 1875.02 97.7001 1873.78 98.2971C1872.99 98.6809 1871.52 98.9454 1871.08 99.4875C1870.55 100.151 1869.23 100.599 1868.31 101.092C1866.82 101.882 1865.42 102.229 1863.63 102.74C1861.87 103.242 1859.83 103.215 1857.91 103.42C1855.66 103.661 1853.35 103.778 1851.11 104.042C1848.68 104.327 1846.29 104.602 1843.82 104.749C1840.42 104.95 1837.13 104.706 1833.73 104.706H1825.91C1822.45 104.706 1818.82 104.687 1816.32 103.223C1815.47 102.725 1814.57 102.268 1813.66 101.805L1813.64 101.794C1812.86 101.397 1812.33 100.77 1811.41 100.476C1810.61 100.219 1810.12 99.8836 1809.24 99.6682C1807.88 99.3316 1806.63 98.9137 1805.41 98.4513C1804.22 98.0009 1802.45 97.8383 1801.07 97.6276C1798.91 97.2975 1796.5 97.1563 1794.26 97.0536C1787.48 96.7424 1780.67 97.1493 1773.88 97.1493H1768.93C1765.33 97.1493 1761.92 96.9743 1758.36 96.7242C1754.4 96.4453 1750.39 96.5777 1746.44 96.3096C1745.33 96.2337 1744.15 96.2884 1743.02 96.2884C1742.55 96.2884 1741.13 96.1457 1740.73 96.3309C1739.63 96.8404 1738.36 96.7667 1736.95 96.7667C1734.57 96.7667 1732.22 96.3618 1729.86 96.2884C1727.56 96.217 1725.32 95.8958 1723.02 95.8154C1721.09 95.7478 1719.21 95.7145 1717.26 95.7145C1716.23 95.7145 1715.4 95.3943 1714.47 95.2149C1712.52 94.8396 1710.63 94.3521 1708.66 94.0139C1707.67 93.8445 1706.49 93.5144 1705.43 93.5144C1704.9 93.5144 1704.62 93.4642 1705.38 93.3125C1707.17 92.955 1709.17 92.7642 1710.72 92.1221C1712.21 91.5086 1713.22 90.9498 1715.21 90.8361C1715.49 90.8202 1715.34 90.6529 1715.43 90.5491C1715.62 90.3105 1716.04 90.3435 1716.44 90.2409C1718.25 89.7784 1720.29 90.129 1722.19 89.922C1722.54 89.8845 1724.38 89.6275 1724.53 89.3481C1725.16 88.1473 1728.77 88.7295 1729.96 87.7326C1730.41 87.3544 1731.58 86.8602 1732.45 86.8239C1733.36 86.7858 1734.3 86.8186 1735.21 86.8186C1736 86.8186 1736.06 86.903 1736.68 86.9992C1737.24 87.0853 1737.96 86.8793 1738.44 86.7761C1739.39 86.5747 1740.63 86.519 1741.5 86.2446C1742.38 85.9643 1743.13 85.6844 1743.99 85.3891C1745.16 84.9875 1746.7 84.8637 1748.03 84.7142C1749.82 84.513 1751.39 84.1476 1753.19 84.0446C1754.39 83.976 1755.42 83.5365 1756.56 83.3803C1757.99 83.1867 1759.31 83.0587 1760.76 82.9871C1761.1 82.9705 1761.35 82.845 1761.7 82.8223C1762.1 82.7961 1762.63 82.8578 1763.01 82.7798C1763.31 82.7176 1763.93 82.5293 1764.2 82.4184C1764.76 82.1918 1765.29 82.0206 1765.92 81.8445C1766.5 81.684 1767.4 81.5511 1767.84 81.3025C1768.29 81.0468 1768.85 81.0496 1769.26 80.7923C1769.52 80.6272 1769.83 80.5016 1770.12 80.3566C1770.42 80.2075 1770.61 79.8759 1770.66 79.6657C1770.7 79.4703 1771.41 79.5488 1771.67 79.5488C1774.76 79.5488 1777.62 80.103 1780.66 80.2131C1781.92 80.2587 1783.01 80.2627 1784.13 80.5585C1785.12 80.8183 1785.79 81.1052 1786.71 81.4619C1787.48 81.758 1788.39 81.9387 1789.14 82.2271C1790.39 82.7119 1791.8 82.4991 1793.14 82.8011C1794.26 83.0558 1795.8 83.2193 1797.02 83.2793C1799.27 83.3904 1801.62 83.8617 1803.81 84.1721C1804.88 84.3252 1806.01 84.3829 1807.1 84.5282C1811.96 85.1755 1816.56 86.2815 1820.96 87.6263C1822.8 88.1899 1824.74 88.6126 1826.37 89.3587C1828.12 90.1635 1829.76 90.1026 1831.95 90.3153C1836.58 90.7659 1841.51 90.5394 1845.64 91.867C1846.57 92.1653 1847.18 92.791 1848.03 93.0893C1849.08 93.4588 1850.31 93.3231 1851.59 93.3231C1854.9 93.3231 1858.07 93.7734 1861.36 93.9183C1864.32 94.0481 1867.24 94.0883 1870.2 94.0883C1870.77 94.0883 1871.86 93.9706 1872.3 94.184C1872.56 94.3106 1873.01 94.3642 1873.31 94.471Z" fill="#FEF5E4"/>
<path d="M1737.97 122.188C1738.82 121.893 1739.66 121.443 1740.49 121.121C1740 120.73 1738.88 120.473 1738.22 120.156C1737.79 119.952 1737.01 119.811 1736.78 119.523C1736.49 119.171 1735.79 118.933 1735.29 118.671C1734.5 118.251 1733.75 118.067 1732.79 117.796C1731.85 117.529 1730.77 117.543 1729.74 117.434C1728.53 117.306 1727.3 117.244 1726.1 117.104C1724.81 116.953 1723.53 116.806 1722.21 116.728C1720.39 116.621 1718.64 116.751 1716.82 116.751H1712.64C1710.79 116.751 1708.85 116.761 1707.52 117.539C1707.07 117.803 1706.59 118.046 1706.1 118.292L1706.09 118.298C1705.67 118.509 1705.39 118.842 1704.9 118.998C1704.47 119.135 1704.2 119.313 1703.74 119.427C1703.01 119.606 1702.34 119.828 1701.69 120.074C1701.05 120.313 1700.11 120.399 1699.37 120.511C1698.22 120.687 1696.93 120.762 1695.73 120.816C1692.11 120.982 1688.47 120.765 1684.85 120.765H1682.2C1680.28 120.765 1678.46 120.858 1676.56 120.991C1674.44 121.139 1672.3 121.069 1670.19 121.212C1669.59 121.252 1668.96 121.223 1668.36 121.223C1668.11 121.223 1667.35 121.299 1667.14 121.2C1666.55 120.93 1665.87 120.969 1665.11 120.969C1663.84 120.969 1662.59 121.184 1661.33 121.223C1660.1 121.261 1658.9 121.431 1657.67 121.474C1656.64 121.51 1655.64 121.528 1654.6 121.528C1654.05 121.528 1653.6 121.698 1653.1 121.793C1652.06 121.993 1651.05 122.252 1650 122.431C1649.47 122.521 1648.84 122.697 1648.28 122.697C1647.99 122.697 1647.84 122.723 1648.25 122.804C1649.21 122.994 1650.27 123.095 1651.1 123.436C1651.9 123.762 1652.44 124.059 1653.5 124.119C1653.65 124.128 1653.57 124.217 1653.62 124.272C1653.72 124.399 1653.94 124.381 1654.16 124.436C1655.13 124.681 1656.21 124.495 1657.23 124.605C1657.42 124.625 1658.4 124.761 1658.48 124.91C1658.82 125.548 1660.74 125.238 1661.38 125.768C1661.62 125.969 1662.25 126.232 1662.71 126.251C1663.2 126.271 1663.7 126.254 1664.18 126.254C1664.61 126.254 1664.64 126.209 1664.97 126.158C1665.27 126.112 1665.65 126.221 1665.91 126.276C1666.42 126.383 1667.08 126.413 1667.54 126.559C1668.02 126.708 1668.42 126.856 1668.88 127.013C1669.5 127.226 1670.32 127.292 1671.03 127.372C1671.99 127.478 1672.83 127.673 1673.79 127.727C1674.43 127.764 1674.98 127.997 1675.59 128.08C1676.36 128.183 1677.06 128.251 1677.84 128.289C1678.01 128.298 1678.15 128.365 1678.34 128.377C1678.55 128.391 1678.83 128.358 1679.04 128.399C1679.2 128.432 1679.53 128.532 1679.67 128.591C1679.97 128.712 1680.26 128.803 1680.59 128.896C1680.9 128.981 1681.38 129.052 1681.62 129.184C1681.86 129.32 1682.16 129.318 1682.38 129.455C1682.51 129.543 1682.68 129.61 1682.84 129.687C1682.99 129.766 1683.1 129.942 1683.12 130.054C1683.14 130.157 1683.53 130.116 1683.67 130.116C1685.31 130.116 1686.84 129.821 1688.47 129.763C1689.14 129.739 1689.72 129.736 1690.32 129.579C1690.85 129.441 1691.21 129.289 1691.7 129.099C1692.11 128.942 1692.6 128.846 1693 128.693C1693.66 128.435 1694.42 128.548 1695.13 128.388C1695.73 128.253 1696.56 128.166 1697.21 128.134C1698.41 128.075 1699.67 127.825 1700.83 127.66C1701.41 127.578 1702.01 127.548 1702.59 127.47C1705.19 127.127 1707.65 126.539 1710 125.825C1710.98 125.525 1712.02 125.301 1712.89 124.904C1713.82 124.477 1714.7 124.509 1715.87 124.396C1718.34 124.157 1720.97 124.277 1723.18 123.572C1723.68 123.413 1724 123.081 1724.46 122.922C1725.02 122.726 1725.67 122.798 1726.36 122.798C1728.13 122.798 1729.82 122.559 1731.58 122.482C1733.16 122.413 1734.72 122.392 1736.31 122.392C1736.61 122.392 1737.19 122.454 1737.42 122.341C1737.56 122.274 1737.8 122.245 1737.97 122.188Z" fill="#FEF5E4"/>
<path d="M668 378.033C675.531 380.405 711.718 387.865 719.5 389.533C699.312 396.687 641.251 387.626 620.138 387.491C599.15 387.356 576.796 385.094 556.323 380.697C539.516 377.087 523.344 376.998 506.309 375.329C475.763 372.335 444.959 366.775 415.646 358.092C406.669 355.433 398.29 352.802 388.842 351.844C376.455 350.588 363.979 350.689 351.565 349.831C332.457 348.509 315.219 344.424 297.69 337.375C276.613 328.899 254.822 319.336 232.366 314.687C214.962 311.083 197.217 309.307 179.646 306.635C151.584 302.366 123.624 297.557 96.3047 290.027C84.6961 286.828 71.548 282.788 62.4889 274.594C57.0418 269.668 54.1097 263.12 49.2644 257.735C43.2879 251.093 36.6287 245.038 30.5815 238.444C26.5374 234.034 24.2708 231.203 25.2118 225.275C25.5597 223.084 27.6379 223.119 29.7827 222.969C35.8849 222.542 41.7494 220.841 47.7556 219.74C56.5225 218.133 67.5555 217.418 75.5803 213.365C81.2781 210.487 80.4001 207.312 83.0801 202.713C86.2652 197.247 95.1398 196.123 96.4378 189.377C97.3706 184.528 98.9905 182.643 104.337 181.157C109.402 179.749 113.798 179.563 117.073 175.202C119.058 172.558 120.45 169.769 122.754 167.317C127.006 162.792 132.375 157.495 138.375 155.155C146.698 151.909 145.963 147.377 148.759 139.806C150.834 134.188 154.262 129.744 158.211 125.17C160.805 122.165 164.538 119.156 165.179 115.063C165.851 110.764 164.343 106.373 166.155 102.188C167.175 99.8321 169.225 98.5245 170.593 96.4426C171.481 95.09 171.642 93.5612 172.812 92.3327C175.099 89.9308 175.023 91.2571 177.5 89.0323C178.941 87.738 179.984 87.2506 181.5 86.0324C182.209 85.4629 184.5 84.1773 186 83.0327C187.5 81.8881 193 92.3327 197 94.0328C201 95.733 203.354 99.64 210.488 106.382C219.202 114.617 239.944 129.23 234.275 143.161C233.823 144.27 232.223 146.338 233.831 147.187C238.663 149.739 245.835 150.863 250.916 152.22C255.974 153.571 267.437 156.556 272.661 158.175C274.135 158.632 279.544 160.143 281.27 161.949C282.145 162.865 281.803 165.556 281.803 166.646C281.803 173.96 286.585 178.409 292.01 183.338C297.797 188.595 305.036 195.665 313.489 196.506C317.308 196.886 317.906 199.077 320.722 201.79C326.711 207.561 334.39 210.814 340.204 216.972C357.635 235.435 361.194 260.838 370.824 283.149C374.48 291.618 379.986 301.255 387.599 307.18C391.556 310.259 396.748 311.034 401.179 313.261C407.546 316.462 412.558 323.223 420.039 323.955C425.643 324.503 429.417 323.397 434.684 321.69C445.281 318.257 455.748 316.798 466.857 318.042C473.33 318.766 479.682 320.045 486.162 320.726C497.388 321.904 508.799 324.353 519.667 327.184C529.966 329.867 538.508 334.649 549.311 334.649C554.002 334.649 559.62 333.747 563.601 336.662C566.932 339.102 569.257 344.753 573.408 345.93C581.569 348.244 590.216 347.175 597.949 351.424C603.57 354.512 610.42 356.533 616.499 358.805C623.17 361.299 631.349 360.607 638.421 361.489C646.508 362.499 649.625 366.292 654.797 371.554C656.657 373.448 665.747 377.324 668 378.033Z" fill="#C4DED0"/>
<path d="M24.4264 171.821C24.4264 154.247 3.05047 134.887 -3.4173 131.281C-9.88508 127.675 -14.5134 138.005 -15.4666 143.329C-17.0689 152.28 -20.4638 160.899 -22.1426 169.837C-24.5305 182.549 -23.9337 195.634 -23.9337 208.463C-23.9337 240.981 -17.6311 272.612 -14.8153 304.924C-14.0334 313.897 -10.9251 323.578 -4.71993 331.006C2.40364 339.533 17.4998 337.521 28.09 338.661C49.0982 340.921 70.0872 345.257 90.6918 349.514L91.6746 349.717C110.22 353.548 129.023 357.142 148.013 358.789C163.347 360.119 178.278 359.945 193.524 362.262C236.005 368.719 280.089 365.717 323.054 368.286C362.131 370.623 401.148 373.448 440.291 374.665C453.509 375.076 466.66 374.495 479.695 376.791C494.657 379.426 509.468 382.596 524.473 385.084C557.673 390.589 590.184 391.533 623.798 391.533C631.068 391.533 630.443 389.226 623.636 386.288C605.611 378.511 588.361 377.029 568.925 372.113C555.557 368.733 538.622 365.766 531.638 354.04C529.14 349.847 527.374 348.951 521.705 348.158C514.619 347.166 501.332 349.133 495.49 345.039C493.288 343.497 492.99 341.153 490.36 339.865C486.341 337.897 482.863 335.974 478.474 334.479C463.77 329.47 451.158 321.635 436.871 316.193C421.193 310.222 400.526 314.326 386.394 304.074C374.517 295.457 358.963 289.631 344.14 286.071C323.595 281.137 306.026 288.965 285.766 288.198C279.446 287.958 275.106 284.605 269.158 283.378C258.901 281.264 248.491 280.227 238.22 277.992C221.372 274.325 203.824 275.44 186.604 275.44C176.697 275.44 160.697 270.03 152.41 265.801C144.895 261.967 135.082 264.418 126.439 262.612C117.635 260.773 107.967 254.72 100.142 250.776C95.3701 248.371 91.4665 248.306 90.372 242.271C89.6255 238.155 80.6009 230.677 77.4271 227.741C75.8099 226.246 76.3723 223.819 74.4148 222.922C68.2312 220.089 61.9598 217.293 56.3408 213.637C46.3086 207.11 51.0079 203.528 47.7109 195.635C43.8519 186.397 24.4264 182.428 24.4264 171.821Z" fill="#5A8D84"/>
<path d="M476.825 352C499.16 354.669 514.972 365.304 535 373.128C513.989 373.128 494.567 374.407 473.652 372.421C454.992 370.648 435.662 371.714 416.919 371.714C389.707 371.714 362.543 370.3 335.378 370.3C292.367 370.3 250.621 360.818 209.412 351.842C162.218 341.563 116.579 340.611 67.9654 340.611C47.2004 340.611 27.4758 331.82 8.05954 326.63C-4.80927 323.19 -23.7099 319.996 -31.5572 309.508C-38.4438 300.303 -18.9106 292.125 -10.2103 294.663C4.16887 298.858 22.1814 293.725 35.6566 289.008C40.5614 287.291 46.2924 286.35 50.8494 284.06C52.7534 283.103 52.646 280.224 53.8303 278.719C59.0795 272.049 75.0145 270.022 83.7351 268.665C93.2423 267.186 103.247 262.643 111.717 258.69C124.479 252.734 124.822 243.968 134.025 235.049C136.751 232.407 141.942 229.402 145.949 228.137C148.779 227.244 152.687 228.223 155.084 226.566C161.543 222.102 165.34 224.175 172.873 221.854C180.405 219.532 186.436 230.423 191.527 235.442C203.665 247.407 213.648 261.349 227.874 271.807C231.536 274.499 241.242 284.809 246.914 281.861C251.193 279.636 255.206 279.141 259.799 280.918C272.95 286.007 293.655 284.891 299.608 298.197C302.443 304.536 307.226 309.261 314.704 312.414C325.589 317.002 342.337 324.257 354.609 325.059C369.005 326 385.059 327.172 398.842 330.636C411.521 333.823 421.91 340.003 434.612 343.752C442.127 345.97 449.759 350.158 457.882 350.507C464.209 350.779 470.55 351.249 476.825 352Z" fill="#186F6A"/>
<path d="M622.157 382.37C654.97 381.625 711.989 387.425 721.5 388.033C710.488 388.033 675.272 393.253 670 394.533C665.811 395.55 654.47 397.09 650 397.533C645.561 397.974 635.414 394.069 631 394.533C594.814 398.335 556.974 389.811 520.301 389.811C509.827 389.811 499.681 389.41 489.267 388.778C480.25 388.23 468.412 387.045 459.498 388.571L459.176 388.626C443.8 391.259 428.548 393.87 412.705 395.244C406.308 395.799 399.845 395.922 393.442 396.484C383.646 397.345 374.328 399.296 364.695 400.589C354.757 401.923 342.959 401.92 333.175 400.087C328.726 399.253 327.136 397.242 323.446 395.983C320.074 394.831 313.482 395.315 309.875 395.126C301.463 394.687 293.118 394.572 284.679 394.595C248.463 394.69 212.093 396.995 175.867 395.392C156.576 394.539 137.595 390.445 118.226 390.992C104.829 391.371 91.458 391.406 78.0475 391.406C58.3326 391.406 38.6132 391.326 18.8989 391.406C14.9855 391.421 -5.02337 393.392 -6.49227 391.051C-7.64322 389.217 -7.21237 387.293 -8.63252 385.323C-12.7818 379.566 -14.5668 374.426 -14.5668 368.138C-14.5668 364.488 -13.233 362.352 -11.6483 359.043C-7.61615 350.623 -20.5099 341.376 -23.1765 333.383C-25.5778 326.186 -22.8575 318.524 -13.3022 313.599C-7.7755 310.751 -5.82882 309.583 1.5823 309.554C8.68186 309.526 15.7878 309.527 22.8875 309.554C32.3056 309.59 40.1472 310.392 49.0569 312.123C52.6017 312.811 55.9303 312.743 59.6122 312.743C72.922 312.743 83.9325 313.589 96.5315 316.109C103.975 317.598 112.077 319.12 119.88 319.564C123.416 319.765 126.223 319.824 129.608 320.509C133.792 321.355 137.128 323.055 141.185 324.023C152.565 326.737 163.964 329.64 175.721 331.7C188.055 333.861 200.356 332.17 212.932 332.438C219.713 332.583 228.317 332.453 234.869 333.59C237.312 334.013 238.886 336.101 240.123 337.192C242.947 339.683 257.06 339.631 260.525 341.818C280.237 354.263 300.133 345.256 327.601 350.631C355.069 356.005 355.653 354.318 378.658 354.318C384.848 354.318 406.381 355.637 412.705 357.923C419.028 360.21 426.18 358.249 430.021 359.693C435.961 361.925 440.342 364.87 447.532 365.362C454.318 365.826 460.739 366.475 467.573 366.13C482.991 365.35 497.6 365.247 512.81 366.366C518.126 366.757 522.966 366.535 528.278 367.429C536.277 368.775 544.396 371.015 552.794 371.208C564.217 371.472 575.091 373.381 585.967 375.726C594.576 377.583 603.531 378.116 612.137 379.831C615.518 380.504 618.578 382.299 622.157 382.37Z" fill="#21484A"/>
<path d="M1880.26 369.541C1899.74 369.541 1900.76 375.009 1920 380.684V683H0V344C9.98262 357.653 17.4394 362.78 33.9628 362.78C41.0422 362.78 43.236 363.751 47.4198 369.541C53.9186 378.535 120.214 385.37 120.728 372.296C121.093 363.029 119.569 358.273 130.469 358.273C140.822 358.273 152.207 356.867 162.381 358.523C172.671 360.199 181.431 367.153 191.73 369.166C199.43 370.67 207.616 367.83 215.312 367.413C231.948 366.51 240.18 372.096 255.939 375.175C285.881 381.025 315.843 380.809 346.293 380.809C356.266 380.809 366.652 379.48 376.026 383.063C391.477 388.969 401.388 388.662 417.038 387.57C436.051 386.244 457.538 374.156 476.505 376.803C490.889 378.81 505.571 379.922 520.08 380.935C544.499 382.639 566.479 387.57 591.338 387.57H670.926C690.291 387.57 712.008 382.062 731.034 385.442C741.521 387.305 750.244 395.993 761.152 398.213C767.623 399.53 774.636 399.041 781.017 397.587C795.547 394.275 814.807 397.118 827.155 388.071C829.322 386.483 835.629 387.57 837.921 387.57C853.637 387.57 869.37 387.793 885.084 387.57C895.909 387.417 910.623 380.225 920.201 375.801C940.688 366.34 963.994 379.452 985.435 380.684C1009.64 382.075 1037.43 382.068 1061.18 377.429C1070.16 375.673 1079.39 376.944 1088.35 374.925C1093.83 373.69 1099.12 369.541 1104.75 369.541C1114.85 369.541 1124.54 367.288 1134.74 367.288C1179.31 367.288 1224.65 369.541 1269.57 369.541C1289.65 369.541 1310.04 360.007 1329.42 368.289C1351.09 377.552 1378.19 374.049 1401.06 374.049C1424.88 374.049 1448.78 373.42 1472.58 374.049C1477.1 374.168 1481.44 375.701 1485.91 376.302C1490.75 376.955 1493.21 382.642 1497.95 383.063C1512.07 384.317 1522.23 367.379 1535.63 365.284C1539.93 364.613 1544.63 365.034 1548.96 365.034C1558.05 365.034 1564.52 361.507 1573.18 359.65C1588.37 356.395 1603.66 356.162 1619.07 352.764C1646.9 346.624 1678.25 353.455 1706.6 351.011C1730.18 348.979 1749.55 344.937 1772.99 351.011C1787.15 354.681 1802.06 362.78 1816.69 362.78C1826.29 362.78 1834.72 364.343 1843.86 367.162C1855.56 370.77 1868.15 369.541 1880.26 369.541Z" fill="#232C34"/>
<path d="M361.314 157.471C362.907 158.028 364.491 158.874 366.027 159.48C365.125 160.215 363.019 160.7 361.783 161.297C360.989 161.681 359.517 161.945 359.084 162.488C358.555 163.151 357.233 163.599 356.307 164.092C354.824 164.882 353.423 165.229 351.633 165.74C349.873 166.242 347.834 166.215 345.912 166.42C343.655 166.661 341.35 166.778 339.106 167.042C336.682 167.327 334.292 167.602 331.821 167.749C328.415 167.95 325.129 167.706 321.729 167.706H313.906C310.449 167.706 306.816 167.687 304.323 166.223C303.474 165.725 302.575 165.268 301.665 164.805L301.644 164.794C300.863 164.397 300.335 163.77 299.414 163.476C298.611 163.219 298.115 162.884 297.243 162.668C295.88 162.332 294.631 161.914 293.41 161.451C292.221 161.001 290.448 160.838 289.068 160.628C286.906 160.297 284.497 160.156 282.262 160.054C275.484 159.742 268.668 160.149 261.883 160.149H256.925C253.33 160.149 249.92 159.974 246.364 159.724C242.398 159.445 238.39 159.578 234.444 159.31C233.325 159.234 232.146 159.288 231.021 159.288C230.554 159.288 229.134 159.146 228.733 159.331C227.63 159.84 226.356 159.767 224.948 159.767C222.569 159.767 220.223 159.362 217.859 159.288C215.561 159.217 213.316 158.896 211.023 158.815C209.094 158.748 207.207 158.714 205.264 158.714C204.234 158.714 203.397 158.394 202.467 158.215C200.52 157.84 198.629 157.352 196.658 157.014C195.671 156.845 194.49 156.514 193.431 156.514C192.897 156.514 192.622 156.464 193.382 156.312C195.173 155.955 197.167 155.764 198.722 155.122C200.207 154.509 201.221 153.95 203.21 153.836C203.488 153.82 203.34 153.653 203.425 153.549C203.62 153.31 204.041 153.343 204.442 153.241C206.251 152.778 208.288 153.129 210.192 152.922C210.537 152.885 212.382 152.627 212.529 152.348C213.161 151.147 216.769 151.73 217.957 150.733C218.407 150.354 219.581 149.86 220.45 149.824C221.361 149.786 222.296 149.819 223.208 149.819C224.003 149.819 224.064 149.903 224.684 149.999C225.239 150.085 225.958 149.879 226.445 149.776C227.392 149.575 228.626 149.519 229.495 149.245C230.384 148.964 231.129 148.684 231.989 148.389C233.159 147.988 234.698 147.864 236.028 147.714C237.817 147.513 239.39 147.148 241.191 147.045C242.389 146.976 243.415 146.536 244.565 146.38C245.989 146.187 247.309 146.059 248.76 145.987C249.095 145.97 249.35 145.845 249.699 145.822C250.101 145.796 250.626 145.858 251.009 145.78C251.314 145.718 251.928 145.529 252.202 145.418C252.762 145.192 253.291 145.021 253.923 144.845C254.499 144.684 255.398 144.551 255.84 144.302C256.293 144.047 256.852 144.05 257.258 143.792C257.518 143.627 257.827 143.502 258.118 143.357C258.417 143.208 258.611 142.876 258.656 142.666C258.697 142.47 259.413 142.549 259.673 142.549C262.758 142.549 265.621 143.103 268.66 143.213C269.918 143.259 271.011 143.263 272.131 143.558C273.116 143.818 273.788 144.105 274.713 144.462C275.481 144.758 276.395 144.939 277.138 145.227C278.387 145.712 279.804 145.499 281.137 145.801C282.262 146.056 283.804 146.219 285.02 146.279C287.267 146.39 289.625 146.862 291.806 147.172C292.882 147.325 294.012 147.383 295.102 147.528C299.958 148.175 304.559 149.282 308.958 150.626C310.802 151.19 312.743 151.613 314.366 152.359C316.116 153.164 317.762 153.103 319.949 153.315C324.584 153.766 329.506 153.539 333.64 154.867C334.569 155.165 335.178 155.791 336.026 156.089C337.077 156.459 338.305 156.323 339.585 156.323C342.9 156.323 346.066 156.773 349.364 156.918C352.321 157.048 355.237 157.088 358.204 157.088C358.772 157.088 359.855 156.971 360.297 157.184C360.559 157.311 361.008 157.364 361.314 157.471Z" fill="#FEF5E4"/>
<path d="M225.967 185.188C226.818 184.893 227.665 184.443 228.485 184.121C228.003 183.73 226.878 183.473 226.218 183.156C225.793 182.952 225.007 182.811 224.776 182.523C224.493 182.171 223.787 181.933 223.292 181.671C222.5 181.251 221.751 181.067 220.795 180.796C219.855 180.529 218.765 180.543 217.739 180.434C216.533 180.306 215.301 180.244 214.103 180.104C212.808 179.953 211.531 179.806 210.211 179.728C208.391 179.621 206.635 179.751 204.819 179.751H200.64C198.793 179.751 196.852 179.761 195.52 180.539C195.066 180.803 194.586 181.046 194.1 181.292L194.088 181.298C193.671 181.509 193.389 181.842 192.897 181.998C192.468 182.135 192.203 182.313 191.737 182.427C191.009 182.606 190.342 182.828 189.689 183.074C189.054 183.313 188.107 183.399 187.37 183.511C186.215 183.687 184.928 183.762 183.734 183.816C180.113 183.982 176.471 183.765 172.846 183.765H170.198C168.277 183.765 166.455 183.858 164.555 183.991C162.437 184.139 160.295 184.069 158.187 184.212C157.589 184.252 156.959 184.223 156.358 184.223C156.109 184.223 155.35 184.299 155.136 184.2C154.547 183.93 153.866 183.969 153.114 183.969C151.843 183.969 150.59 184.184 149.327 184.223C148.099 184.261 146.9 184.431 145.675 184.474C144.644 184.51 143.636 184.528 142.598 184.528C142.048 184.528 141.6 184.698 141.104 184.793C140.064 184.993 139.053 185.252 138 185.431C137.473 185.521 136.842 185.697 136.276 185.697C135.991 185.697 135.844 185.723 136.25 185.804C137.207 185.994 138.272 186.095 139.103 186.436C139.896 186.762 140.438 187.059 141.501 187.119C141.649 187.128 141.57 187.217 141.616 187.272C141.72 187.399 141.945 187.381 142.159 187.436C143.125 187.681 144.214 187.495 145.231 187.605C145.415 187.625 146.401 187.761 146.479 187.91C146.817 188.548 148.745 188.238 149.379 188.768C149.619 188.969 150.247 189.232 150.711 189.251C151.198 189.271 151.697 189.254 152.184 189.254C152.609 189.254 152.642 189.209 152.973 189.158C153.269 189.112 153.654 189.221 153.914 189.276C154.42 189.383 155.079 189.413 155.544 189.559C156.018 189.708 156.416 189.856 156.876 190.013C157.501 190.226 158.323 190.292 159.033 190.372C159.989 190.478 160.829 190.673 161.792 190.727C162.432 190.764 162.98 190.997 163.594 191.08C164.355 191.183 165.06 191.251 165.835 191.289C166.015 191.298 166.151 191.365 166.337 191.377C166.552 191.391 166.833 191.358 167.037 191.399C167.2 191.432 167.528 191.532 167.674 191.591C167.974 191.712 168.256 191.803 168.594 191.896C168.902 191.981 169.382 192.052 169.618 192.184C169.86 192.32 170.159 192.318 170.375 192.455C170.514 192.543 170.679 192.61 170.835 192.687C170.995 192.766 171.099 192.942 171.122 193.054C171.145 193.157 171.527 193.116 171.666 193.116C173.314 193.116 174.844 192.821 176.467 192.763C177.139 192.739 177.723 192.736 178.321 192.579C178.847 192.441 179.207 192.289 179.701 192.099C180.111 191.942 180.599 191.846 180.996 191.693C181.663 191.435 182.421 191.548 183.133 191.388C183.734 191.253 184.557 191.166 185.207 191.134C186.408 191.075 187.667 190.825 188.833 190.66C189.407 190.578 190.011 190.548 190.593 190.47C193.188 190.127 195.646 189.539 197.996 188.825C198.981 188.525 200.018 188.301 200.885 187.904C201.82 187.477 202.7 187.509 203.868 187.396C206.344 187.157 208.974 187.277 211.182 186.572C211.678 186.413 212.004 186.081 212.457 185.922C213.018 185.726 213.675 185.798 214.359 185.798C216.129 185.798 217.821 185.559 219.583 185.482C221.162 185.413 222.72 185.392 224.306 185.392C224.609 185.392 225.188 185.454 225.424 185.341C225.564 185.274 225.804 185.245 225.967 185.188Z" fill="#FEF5E4"/>
</svg>
