<svg width="190" height="50" viewBox="0 0 190 50" fill="none" xmlns="http://www.w3.org/2000/svg">
<ellipse cx="24.918" cy="25" rx="24.918" ry="25" fill="#15594C"/>
<path d="M48.1752 25C48.1752 37.887 37.7622 48.333 24.9182 48.333C24.7242 48.333 24.5292 48.332 24.3372 48.325C24.2672 48.325 24.1972 48.323 24.1272 48.32C13.6732 47.907 5.20024 39.298 4.98924 28.747C4.81724 20.272 9.90124 12.967 17.1932 9.888C19.4142 8.952 21.9392 8.932 24.1022 9.998C25.4842 10.68 26.6942 11.758 27.5512 13.183C29.9232 17.13 28.8192 22.6 24.9182 25C21.0192 27.398 19.9132 32.87 22.2852 36.815C23.0872 38.152 24.2042 39.182 25.4802 39.865C27.7122 41.062 30.3732 41.077 32.7022 40.085C39.9642 36.992 45.0192 29.702 44.8472 21.25C44.6352 10.698 36.1632 2.092 25.7092 1.68C38.1882 2.098 48.1752 12.378 48.1752 25H48.1752Z" fill="#0D4037"/>
<path d="M32.702 40.085C30.373 41.077 27.712 41.062 25.48 39.865C24.204 39.182 23.087 38.152 22.285 36.815C19.913 32.87 21.019 27.398 24.918 25C28.819 22.6 29.923 17.13 27.551 13.183C26.694 11.758 25.484 10.68 24.102 9.998C21.939 8.932 19.414 8.952 17.193 9.888C9.901 12.967 4.817 20.272 4.989 28.747C5.2 39.298 13.673 47.907 24.127 48.32C11.648 47.902 1.661 37.622 1.661 25C1.661 12.113 12.074 1.667 24.918 1.667C25.112 1.667 25.307 1.668 25.499 1.675C25.569 1.675 25.639 1.677 25.709 1.68C36.163 2.092 44.635 10.698 44.847 21.25C45.019 29.702 39.964 36.992 32.702 40.085H32.702Z" fill="#E55D45"/>
<path fill-rule="evenodd" clip-rule="evenodd" d="M24.918 48.75C11.865 48.75 1.246 38.096 1.246 25C1.246 11.904 11.865 1.25 24.918 1.25C37.971 1.25 48.59 11.904 48.59 25C48.59 38.096 37.971 48.75 24.918 48.75ZM24.918 2.083C12.323 2.083 2.077 12.364 2.077 25C2.077 37.636 12.323 47.917 24.918 47.917C37.513 47.917 47.76 37.636 47.76 25C47.76 12.364 37.513 2.083 24.918 2.083Z" fill="#F7A269"/>
<path d="M24.6335 48.333C22.9755 48.334 21.3115 48.14 19.6935 47.736C19.2925 47.622 18.8855 47.526 18.4925 47.386L17.8985 47.188L17.3135 46.963L17.0215 46.85L16.7345 46.724L16.1605 46.471L15.5985 46.191L15.3175 46.05L15.0435 45.898L14.4955 45.591L13.9605 45.26C13.5995 45.046 13.2655 44.792 12.9175 44.556C12.2465 44.053 11.5845 43.532 10.9775 42.949C9.74152 41.808 8.66551 40.493 7.74251 39.079C7.29251 38.365 6.86951 37.631 6.51352 36.863C6.32251 36.485 6.16551 36.091 6.00052 35.701C5.91351 35.508 5.85152 35.305 5.77551 35.107C5.7055 34.908 5.6235 34.711 5.5635 34.508C5.43951 34.103 5.3025 33.701 5.2055 33.288C5.15351 33.082 5.0955 32.878 5.04951 32.671L4.92051 32.047C4.8735 31.84 4.8395 31.631 4.80851 31.421L4.7105 30.791L4.64251 30.157C4.6195 29.946 4.5965 29.735 4.58851 29.522C4.34751 26.128 5.0115 22.68 6.4215 19.575C7.8655 16.484 10.0705 13.742 12.8235 11.713C12.9885 11.577 13.1695 11.462 13.3465 11.343L13.8795 10.987C14.2275 10.738 14.6055 10.537 14.9765 10.326L15.5335 10.01C15.7235 9.911 15.9195 9.825 16.1115 9.732L16.6915 9.458C16.7885 9.413 16.8835 9.366 16.9825 9.323L17.2915 9.2C18.9415 8.566 20.7835 8.388 22.5345 8.781C24.2895 9.171 25.8895 10.142 27.0825 11.474C28.2825 12.804 29.0625 14.498 29.3295 16.261C29.6015 18.025 29.3855 19.858 28.6925 21.509C28.0055 23.158 26.8085 24.62 25.2675 25.566C23.9705 26.358 22.9525 27.582 22.3555 28.999C21.7535 30.414 21.5575 32.009 21.7875 33.535C22.0145 35.062 22.6785 36.518 23.7025 37.661C24.7205 38.809 26.0915 39.636 27.5775 39.978C29.0665 40.332 30.6665 40.197 32.1185 39.663C32.4775 39.536 32.8445 39.348 33.2085 39.182L33.7565 38.928L34.2835 38.634C34.9965 38.26 35.6635 37.805 36.3255 37.346L37.2835 36.609C37.5885 36.345 37.8865 36.072 38.1885 35.805C38.2625 35.736 38.3415 35.673 38.4115 35.601L38.6215 35.383L39.0425 34.948L39.2535 34.731L39.3595 34.622L39.4565 34.506L39.8455 34.042C40.8795 32.803 41.7775 31.443 42.4775 29.981C43.1705 28.517 43.6855 26.969 44.0095 25.379C44.0775 24.979 44.1635 24.581 44.2185 24.179L44.3435 22.966C44.3715 22.765 44.3635 22.561 44.3725 22.358L44.3895 21.748C44.3925 21.545 44.4095 21.341 44.4005 21.138L44.3795 20.528C44.3765 20.324 44.3585 20.122 44.3405 19.919L44.2885 19.31L44.2075 18.705C44.1825 18.503 44.1545 18.301 44.1135 18.102L44.0025 17.501C43.9635 17.301 43.9105 17.104 43.8655 16.905C43.7805 16.506 43.6575 16.117 43.5465 15.725C43.0685 14.165 42.3865 12.667 41.5415 11.268C39.8425 8.473 37.4465 6.09 34.6105 4.423L34.3455 4.264L34.0745 4.117L33.5315 3.823L32.9755 3.555L32.6975 3.421L32.4135 3.3L31.8435 3.059L31.2645 2.845C30.8805 2.693 30.4815 2.586 30.0895 2.457C28.5045 1.993 26.8585 1.733 25.2015 1.667C26.8595 1.666 28.5235 1.859 30.1415 2.263C30.5425 2.378 30.9495 2.474 31.3425 2.613L31.9375 2.811L32.5215 3.036L32.8145 3.149L33.1015 3.275L33.6755 3.528L34.2365 3.808L34.5175 3.949L34.7925 4.101L35.3405 4.408L35.8745 4.739C36.2365 4.953 36.5705 5.208 36.9185 5.443C37.5885 5.947 38.2515 6.467 38.8585 7.05C40.0955 8.191 41.1705 9.506 42.0945 10.92C42.5435 11.635 42.9675 12.368 43.3235 13.136C43.5135 13.515 43.6705 13.908 43.8365 14.298C43.9225 14.492 43.9855 14.694 44.0615 14.892C44.1315 15.092 44.2135 15.288 44.2735 15.491C44.3975 15.896 44.5335 16.299 44.6315 16.712C44.6835 16.917 44.7415 17.122 44.7875 17.329L44.9165 17.952C44.9635 18.159 44.9975 18.369 45.0285 18.579L45.1265 19.209L45.1945 19.842C45.2175 20.054 45.2405 20.265 45.2485 20.477C45.4885 23.872 44.8265 27.321 43.4145 30.426C41.9745 33.52 39.7625 36.256 37.0125 38.289C36.3165 38.783 35.6125 39.271 34.8595 39.676L34.3025 39.993L33.7245 40.269C33.3345 40.45 32.9645 40.646 32.5425 40.802C30.8895 41.428 29.0485 41.606 27.2995 41.209C26.4245 41.022 25.5805 40.676 24.8115 40.221C24.0435 39.763 23.3445 39.188 22.7475 38.521C21.5485 37.191 20.7705 35.495 20.5035 33.732C20.2335 31.968 20.4515 30.134 21.1455 28.484C21.8335 26.835 23.0315 25.374 24.5735 24.43C25.8695 23.639 26.8865 22.413 27.4835 20.996C28.0835 19.58 28.2785 17.984 28.0475 16.458C27.8195 14.931 27.1535 13.477 26.1295 12.333C25.1095 11.187 23.7395 10.356 22.2555 10.008C20.7665 9.658 19.1665 9.793 17.7175 10.334L17.4475 10.438C17.3565 10.477 17.2645 10.522 17.1735 10.563L16.6255 10.816C16.4435 10.902 16.2585 10.981 16.0785 11.072L15.5515 11.365C15.1995 11.561 14.8415 11.746 14.5115 11.978L14.0055 12.309C13.8375 12.42 13.6655 12.526 13.5095 12.654L12.5495 13.389L11.6455 14.193C11.4895 14.322 11.3545 14.473 11.2125 14.616L10.7905 15.051C10.4995 15.331 10.2505 15.65 9.98751 15.956C8.9535 17.196 8.05851 18.557 7.35551 20.018C6.6625 21.482 6.14851 23.031 5.8245 24.621L5.71551 25.22L5.6605 25.52C5.6415 25.619 5.62251 25.719 5.6155 25.821L5.48951 27.033C5.4605 27.235 5.4715 27.439 5.46151 27.642L5.4435 28.252C5.44049 28.455 5.4235 28.659 5.4325 28.862L5.4535 29.472C5.45651 29.676 5.4755 29.878 5.4925 30.081L5.5445 30.69L5.62551 31.295C5.6505 31.497 5.6785 31.699 5.7195 31.899L5.83049 32.5C5.8705 32.699 5.9225 32.897 5.9675 33.095C6.05249 33.494 6.17549 33.883 6.2865 34.276C6.7655 35.836 7.4475 37.333 8.2925 38.733C9.99151 41.528 12.3875 43.911 15.2245 45.578L15.4885 45.737L15.7595 45.884L16.3025 46.178L16.8595 46.446L17.1375 46.58L17.4215 46.7L17.9905 46.942L18.5705 47.156C18.9545 47.308 19.3535 47.414 19.7455 47.543C21.3305 48.007 22.9765 48.267 24.6335 48.333Z" fill="#F7A269"/>
<path fill-rule="evenodd" clip-rule="evenodd" d="M20.4724 20.8878C19.1684 20.8878 17.9284 20.1128 17.3994 18.8298C16.6974 17.1318 17.5044 15.1788 19.1974 14.4748C20.0174 14.1338 20.9204 14.1338 21.7394 14.4748C22.5594 14.8158 23.1984 15.4568 23.5384 16.2788C23.8774 17.1018 23.8774 18.0078 23.5384 18.8298C23.1984 19.6528 22.5594 20.2938 21.7394 20.6338C21.3254 20.8068 20.8954 20.8878 20.4724 20.8878H20.4724ZM20.4664 15.8878C20.2544 15.8878 20.0404 15.9288 19.8324 16.0148C18.9864 16.3668 18.5834 17.3438 18.9334 18.1928C19.2844 19.0418 20.2584 19.4458 21.1044 19.0948C21.5144 18.9238 21.8334 18.6038 22.0034 18.1928C22.1734 17.7808 22.1734 17.3278 22.0034 16.9168C21.7384 16.2758 21.1184 15.8878 20.4664 15.8878H20.4664Z" fill="#E55D45"/>
<path d="M15.627 21.623C14.728 22.637 13.974 23.782 13.398 25.015C12.745 26.385 12.354 27.875 12.192 29.387L11.416 29.71C11.421 29.625 11.426 29.542 11.432 29.457C11.552 27.812 11.929 26.173 12.602 24.657C13.212 23.257 14.037 21.95 15.044 20.795C15.217 21.09 15.413 21.365 15.627 21.623H15.627Z" fill="#F7A269"/>
<path d="M13.065 35.88C13.072 35.897 13.077 35.913 13.084 35.93L12.648 36.367C12.607 36.278 12.567 36.188 12.532 36.098L12.311 35.523C12.15 35.145 12.049 34.745 11.927 34.353C11.662 33.427 11.497 32.47 11.429 31.507L12.117 31.222C12.142 32.222 12.276 33.22 12.529 34.192C12.637 34.57 12.723 34.957 12.868 35.323L13.065 35.88Z" fill="#F7A269"/>
<path d="M14.423 38.503C14.619 38.8 14.828 39.09 15.047 39.37L14.775 39.778C14.506 39.458 14.251 39.127 14.011 38.785C13.748 38.408 13.504 38.018 13.28 37.618L13.675 37.223C13.901 37.662 14.15 38.09 14.423 38.503Z" fill="#F7A269"/>
<path d="M17.453 41.777L17.303 42.14C16.511 41.56 15.776 40.9 15.115 40.168L15.378 39.777C15.997 40.512 16.693 41.183 17.453 41.777Z" fill="#F7A269"/>
<path d="M21.883 44.1C22.762 44.378 23.667 44.565 24.586 44.662V44.838C23.649 44.765 22.717 44.6 21.813 44.34C20.526 43.97 19.287 43.422 18.145 42.71L18.283 42.377C19.391 43.118 20.609 43.698 21.883 44.1Z" fill="#F7A269"/>
<path d="M31.275 43.732C29.799 44.357 28.217 44.757 26.607 44.855C26.156 44.883 25.702 44.89 25.25 44.875V44.717C25.699 44.742 26.151 44.747 26.601 44.73C28.197 44.673 29.782 44.318 31.275 43.732H31.275Z" fill="#F7A269"/>
<path d="M17.868 23.328C16.964 24.22 16.198 25.258 15.609 26.393C15.433 26.695 15.311 27.023 15.165 27.34C15.089 27.498 15.041 27.667 14.979 27.83L14.811 28.298L13.881 28.685C13.884 28.668 13.889 28.65 13.893 28.633L14.027 28.09L14.2 27.557C14.26 27.382 14.308 27.2 14.384 27.028C14.529 26.685 14.652 26.33 14.83 26.002C15.384 24.852 16.109 23.782 16.977 22.835C17.26 23.023 17.557 23.188 17.868 23.328Z" fill="#F7A269"/>
<path d="M14.2484 31.752L13.5574 32.215C13.5304 31.682 13.5394 31.147 13.5804 30.613L14.3634 30.288L14.3534 30.372C14.2914 30.828 14.2584 31.29 14.2504 31.752H14.2484Z" fill="#F7A269"/>
<path d="M14.507 34.502L13.997 35.013C13.967 34.912 13.939 34.808 13.913 34.707C13.773 34.138 13.673 33.562 13.614 32.978L14.26 32.545C14.288 33.202 14.371 33.857 14.507 34.502Z" fill="#F7A269"/>
<path d="M16.109 38.468C16.612 39.28 17.215 40.03 17.898 40.698L17.728 41.107C16.956 40.41 16.268 39.617 15.692 38.74C15.283 38.128 14.923 37.482 14.629 36.803C14.574 36.677 14.522 36.55 14.474 36.422L14.923 35.972C14.994 36.177 15.064 36.382 15.145 36.583C15.406 37.24 15.735 37.868 16.109 38.468Z" fill="#F7A269"/>
<path d="M22.69 43.615C23.308 43.817 23.943 43.97 24.586 44.073V44.267C23.921 44.182 23.262 44.045 22.617 43.855C21.147 43.42 19.757 42.71 18.531 41.775L18.684 41.405C19.865 42.38 21.228 43.137 22.69 43.615H22.69Z" fill="#F7A269"/>
<path d="M31.116 43.347C29.79 43.912 28.368 44.263 26.921 44.35C26.365 44.382 25.807 44.377 25.25 44.335V44.162C25.803 44.22 26.36 44.242 26.916 44.225C28.35 44.18 29.775 43.873 31.116 43.347Z" fill="#F7A269"/>
<path d="M14.303 18.923C13.298 19.972 12.436 21.163 11.755 22.455C11.529 22.842 11.368 23.258 11.18 23.665C11.082 23.867 11.012 24.08 10.936 24.29L10.708 24.922C10.642 25.135 10.587 25.352 10.525 25.567L10.434 25.892C10.404 25.998 10.373 26.107 10.354 26.217L10.223 26.877L10.157 27.207L10.115 27.54C9.989 28.455 9.946 29.38 9.98501 30.303L9.318 30.582C9.236 29.538 9.25501 28.487 9.374 27.445L9.411 27.095L9.471 26.747L9.59301 26.052C9.61201 25.935 9.64001 25.82 9.67001 25.707L9.75601 25.363C9.81601 25.137 9.86902 24.907 9.93602 24.68L10.16 24.01C10.235 23.787 10.303 23.56 10.401 23.345C10.589 22.913 10.751 22.468 10.979 22.055C11.788 20.437 12.863 18.948 14.155 17.673C14.162 18.092 14.212 18.51 14.303 18.923Z" fill="#F7A269"/>
<path d="M10.308 32.903C10.617 34.382 11.152 35.812 11.879 37.138L11.499 37.52C10.682 36.132 10.067 34.618 9.7 33.042C9.642 32.793 9.588 32.543 9.54201 32.292L10.152 32.038C10.195 32.328 10.246 32.617 10.308 32.903H10.308Z" fill="#F7A269"/>
<path d="M17.061 42.727L16.928 43.048C15.095 41.925 13.481 40.435 12.236 38.665L12.587 38.313C13.748 40.072 15.288 41.577 17.061 42.727Z" fill="#F7A269"/>
<path d="M20.71 44.475C20.765 44.493 20.82 44.51 20.876 44.528L20.828 44.77C20.763 44.752 20.7 44.733 20.635 44.713C19.657 44.418 18.707 44.025 17.8 43.547L17.923 43.248C18.808 43.747 19.742 44.158 20.71 44.475Z" fill="#F7A269"/>
<path d="M24.586 45.22V45.38C23.428 45.332 22.273 45.157 21.15 44.858L21.197 44.625C22.3 44.947 23.436 45.147 24.586 45.22Z" fill="#F7A269"/>
<path d="M31.435 44.117C29.747 44.832 27.936 45.268 26.099 45.372C25.817 45.387 25.533 45.395 25.25 45.395V45.25C25.531 45.257 25.812 45.255 26.093 45.247C27.918 45.187 29.731 44.793 31.435 44.117Z" fill="#F7A269"/>
<path fill-rule="evenodd" clip-rule="evenodd" d="M29.368 35.78C28.937 35.78 28.506 35.695 28.097 35.525C27.277 35.184 26.638 34.543 26.299 33.721C25.598 32.023 26.404 30.069 28.097 29.366C29.789 28.662 31.736 29.472 32.438 31.17C33.139 32.868 32.332 34.821 30.639 35.525C30.229 35.695 29.799 35.78 29.368 35.78H29.368ZM27.833 33.083C28.003 33.494 28.322 33.815 28.732 33.985C29.142 34.155 29.594 34.155 30.004 33.985C30.414 33.815 30.733 33.494 30.903 33.083C31.073 32.672 31.073 32.219 30.903 31.807C30.552 30.958 29.579 30.554 28.732 30.905C28.322 31.076 28.003 31.396 27.833 31.807C27.664 32.219 27.664 32.672 27.833 33.083H27.833Z" fill="#0D4037"/>
<path d="M35.414 11.497C35.217 11.2 35.008 10.91 34.789 10.63L35.061 10.222C35.33 10.542 35.585 10.873 35.825 11.215C36.088 11.592 36.332 11.982 36.556 12.382L36.161 12.777C35.935 12.338 35.686 11.91 35.414 11.497H35.414Z" fill="#F7A269"/>
<path d="M32.383 8.223L32.533 7.86C33.325 8.44 34.06 9.1 34.721 9.832L34.458 10.223C33.839 9.488 33.143 8.817 32.383 8.223Z" fill="#F7A269"/>
<path d="M27.953 5.9C27.074 5.622 26.169 5.435 25.25 5.338V5.162C26.187 5.235 27.119 5.4 28.023 5.66C29.31 6.03 30.55 6.578 31.691 7.29L31.553 7.623C30.445 6.882 29.227 6.302 27.953 5.9Z" fill="#F7A269"/>
<path d="M18.561 6.26771C20.037 5.64271 21.619 5.24271 23.229 5.14471C23.68 5.11671 24.134 5.10971 24.586 5.12471V5.28271C24.137 5.25771 23.685 5.25271 23.235 5.26971C21.639 5.32671 20.054 5.68171 18.561 6.26771H18.561Z" fill="#F7A269"/>
<path d="M33.727 11.532C33.224 10.72 32.621 9.97 31.938 9.302L32.108 8.893C32.88 9.59 33.568 10.383 34.144 11.26C34.553 11.872 34.913 12.518 35.208 13.197C35.262 13.323 35.314 13.45 35.362 13.578L34.913 14.028C34.842 13.823 34.772 13.618 34.691 13.417C34.43 12.76 34.101 12.132 33.727 11.532H33.727Z" fill="#F7A269"/>
<path d="M27.146 6.385C26.528 6.183 25.893 6.03 25.25 5.927V5.733C25.915 5.818 26.574 5.955 27.219 6.145C28.689 6.58 30.079 7.29 31.305 8.225L31.153 8.595C29.971 7.62 28.608 6.863 27.146 6.385Z" fill="#F7A269"/>
<path d="M18.72 6.65276C20.046 6.08776 21.468 5.73676 22.915 5.64976C23.471 5.61776 24.029 5.62276 24.586 5.66476V5.83776C24.033 5.77976 23.476 5.75776 22.92 5.77476C21.486 5.81976 20.061 6.12676 18.72 6.65276Z" fill="#F7A269"/>
<path d="M34.209 28.377C35.108 27.363 35.862 26.218 36.438 24.985C37.091 23.615 37.482 22.125 37.645 20.613L38.42 20.29C38.415 20.375 38.41 20.458 38.404 20.543C38.284 22.188 37.907 23.827 37.234 25.343C36.625 26.743 35.799 28.05 34.792 29.205C34.619 28.91 34.423 28.635 34.209 28.377Z" fill="#F7A269"/>
<path d="M36.771 14.12C36.764 14.103 36.759 14.087 36.752 14.07L37.188 13.633C37.229 13.722 37.269 13.812 37.304 13.902L37.525 14.477C37.686 14.855 37.787 15.255 37.909 15.647C38.174 16.573 38.339 17.53 38.407 18.493L37.719 18.778C37.694 17.778 37.56 16.78 37.307 15.808C37.199 15.43 37.113 15.043 36.968 14.677L36.771 14.12Z" fill="#F7A269"/>
<path d="M31.968 26.672C32.872 25.78 33.638 24.742 34.227 23.607C34.403 23.305 34.525 22.977 34.671 22.66C34.747 22.502 34.796 22.333 34.857 22.17L35.025 21.702L35.955 21.315C35.952 21.332 35.947 21.35 35.943 21.367L35.809 21.91L35.636 22.443C35.576 22.618 35.528 22.8 35.452 22.972C35.307 23.315 35.184 23.67 35.007 23.998C34.452 25.148 33.727 26.218 32.859 27.165C32.576 26.977 32.279 26.812 31.968 26.672Z" fill="#F7A269"/>
<path d="M35.588 18.248L36.279 17.785C36.306 18.318 36.297 18.853 36.256 19.387L35.473 19.712L35.483 19.628C35.545 19.172 35.578 18.71 35.586 18.248H35.588Z" fill="#F7A269"/>
<path d="M35.329 15.498L35.839 14.987C35.869 15.088 35.897 15.192 35.923 15.293C36.063 15.862 36.163 16.438 36.223 17.022L35.576 17.455C35.548 16.798 35.465 16.143 35.329 15.498Z" fill="#F7A269"/>
<path d="M35.533 31.077C36.538 30.028 37.4 28.837 38.081 27.545C38.307 27.158 38.468 26.742 38.656 26.335C38.754 26.133 38.824 25.92 38.9 25.71L39.128 25.078C39.194 24.865 39.249 24.648 39.311 24.433L39.402 24.108C39.432 24.002 39.464 23.893 39.482 23.783L39.613 23.123L39.679 22.793L39.721 22.46C39.847 21.545 39.89 20.62 39.851 19.697L40.518 19.418C40.6 20.462 40.582 21.513 40.462 22.555L40.425 22.905L40.366 23.253L40.243 23.948C40.224 24.065 40.196 24.18 40.166 24.293L40.08 24.637C40.02 24.863 39.967 25.093 39.9 25.32L39.676 25.99C39.601 26.213 39.533 26.44 39.435 26.655C39.248 27.087 39.085 27.532 38.857 27.945C38.048 29.563 36.973 31.052 35.681 32.327C35.674 31.908 35.624 31.49 35.533 31.077H35.533Z" fill="#F7A269"/>
<path d="M39.528 17.097C39.219 15.618 38.684 14.188 37.957 12.862L38.337 12.48C39.155 13.868 39.769 15.382 40.136 16.958C40.194 17.207 40.248 17.457 40.294 17.708L39.684 17.962C39.641 17.672 39.59 17.383 39.528 17.097H39.528Z" fill="#F7A269"/>
<path d="M32.776 7.273L32.908 6.952C34.741 8.075 36.355 9.565 37.6 11.335L37.249 11.687C36.088 9.928 34.548 8.423 32.776 7.273Z" fill="#F7A269"/>
<path d="M29.126 5.525C29.071 5.507 29.016 5.49 28.96 5.472L29.008 5.23C29.073 5.248 29.136 5.267 29.201 5.287C30.179 5.582 31.129 5.975 32.036 6.453L31.913 6.752C31.028 6.253 30.094 5.842 29.126 5.525Z" fill="#F7A269"/>
<path d="M25.25 4.78V4.62C26.408 4.668 27.563 4.843 28.686 5.142L28.639 5.375C27.536 5.053 26.4 4.853 25.25 4.78H25.25Z" fill="#F7A269"/>
<path d="M18.401 5.883C20.089 5.168 21.9 4.732 23.737 4.628C24.019 4.613 24.303 4.605 24.586 4.605V4.75C24.305 4.743 24.024 4.745 23.744 4.753C21.918 4.813 20.106 5.207 18.401 5.883Z" fill="#F7A269"/>
<path d="M62.295 16.159C63.395 17.228 65.331 18.092 67.795 18.092C71.381 18.092 73.458 16.159 73.458 13.651C73.458 12.13 72.664 10.136 68.651 9.21C66.512 8.717 64.679 8.08 64.679 5.921C64.679 4.77 65.188 3.433 67.123 3.433C69.364 3.433 71.645 5.181 71.278 7.998L73.214 4.996C72.134 3.947 70.444 3.125 68.08 3.125C64.801 3.125 62.662 4.688 62.662 7.216C62.662 8.984 63.742 11.061 67.693 11.986C70.117 12.561 71.482 13.075 71.482 14.905C71.482 15.995 70.993 17.763 68.61 17.763C66.308 17.763 63.904 15.995 64.169 13.158L62.295 16.159Z" fill="#0D4037"/>
<path fill-rule="evenodd" clip-rule="evenodd" d="M75.821 19.86C75.821 20.888 75.618 21.237 74.905 21.422V21.484L79.508 22.245V22.183C78.592 21.772 78.409 21.381 78.409 20.271V17.66C78.877 17.865 79.488 17.948 80.242 17.948C83.664 17.948 86.21 15.913 86.21 12.623C86.21 9.807 84.316 7.71 80.527 7.71C79.305 7.71 76.636 7.915 74.477 8.532V8.614C75.007 8.655 75.536 8.799 75.821 8.984V19.86ZM78.409 8.306C78.674 8.224 79.162 8.038 79.834 8.038C82.462 8.038 83.562 10.917 83.562 13.713C83.562 16.324 82.666 17.578 81.036 17.578C80.038 17.578 79.203 17.146 78.409 16.509L78.409 8.306Z" fill="#0D4037"/>
<path d="M88.268 16.385L88.166 17.804H91.65C91.039 17.393 90.855 17.002 90.855 15.892V11.842C91.018 10.403 91.527 9.169 92.464 9.169C93.218 9.169 93.605 10.156 93.137 11.39H93.218L95.255 7.977C94.868 7.792 94.542 7.73 94.135 7.73C92.689 7.73 91.588 8.594 91.12 9.909H90.855V9.252L90.957 7.73L87.026 8.038V8.121C87.454 8.162 87.983 8.306 88.268 8.491V16.385Z" fill="#0D4037"/>
<path d="M96.884 17.804H100.388C99.777 17.393 99.594 17.002 99.594 15.892V9.252L99.696 7.73L95.764 8.038V8.121C96.192 8.162 96.722 8.306 97.007 8.491V16.385L96.884 17.804Z" fill="#0D4037"/>
<path d="M98.209 6.209C99.044 6.209 99.696 5.551 99.696 4.688C99.696 3.845 99.044 3.187 98.209 3.187C97.374 3.187 96.722 3.845 96.722 4.688C96.722 5.551 97.374 6.209 98.209 6.209Z" fill="#0D4037"/>
<path d="M109.841 11.492V16.385L109.718 17.804H113.222C112.611 17.393 112.427 17.002 112.427 15.892V11.451C112.427 8.347 110.696 7.71 109.413 7.71C107.559 7.71 105.95 8.902 105.033 9.56V9.252L105.135 7.73L101.203 8.038V8.121C101.631 8.162 102.161 8.306 102.446 8.491V16.385L102.324 17.804H105.828C105.217 17.393 105.033 17.002 105.033 15.892V10.053C105.787 9.498 106.805 8.655 108.068 8.655C109.026 8.655 109.841 9.19 109.841 11.492Z" fill="#0D4037"/>
<path fill-rule="evenodd" clip-rule="evenodd" d="M119.354 17.948C120.576 17.948 121.574 17.619 122.266 17.084V18.852C122.266 20.435 121.35 21.402 120.27 21.402C119.578 21.402 118.478 21.278 117.643 19.49L115.239 20.209C116.033 21.648 117.459 22.101 118.539 22.101C120.841 22.101 124.854 19.839 124.854 18.667V8.47C123.55 7.956 122.144 7.71 120.841 7.71C116.522 7.71 114.444 10.259 114.444 13.261C114.444 16.118 116.38 17.948 119.354 17.948H119.354ZM119.924 8.1C120.902 8.1 121.615 8.532 122.266 9.231V16.612C121.839 17.064 121.329 17.31 120.637 17.31C118.58 17.31 117.031 15.049 117.031 12.068C117.031 9.683 118.009 8.1 119.924 8.1Z" fill="#0D4037"/>
<path d="M130.354 3.413V3.516C131.189 3.618 131.902 3.845 131.902 4.585V16.221C131.902 16.961 131.189 17.393 130.354 17.701V17.804H136.241V17.701C135.406 17.598 134.693 17.372 134.693 16.632V10.979H136.587C139.093 10.979 140.071 11.534 140.56 13.404V8.203C140.071 10.094 139.093 10.65 136.587 10.65H134.693V3.742H137.382C140.01 3.742 140.804 4.77 142.352 7.072L142.434 7.031L141.68 3.413L130.354 3.413Z" fill="#0D4037"/>
<path fill-rule="evenodd" clip-rule="evenodd" d="M148.26 7.71C144.98 7.71 142.842 9.807 142.842 12.829C142.842 15.913 144.98 17.948 148.26 17.948C151.54 17.948 153.679 15.851 153.679 12.829C153.679 9.745 151.54 7.71 148.26 7.71ZM149.055 17.598C146.61 17.598 145.327 14.001 145.327 11.266C145.327 9.272 145.999 8.059 147.466 8.059C149.931 8.059 151.193 11.657 151.193 14.412C151.193 16.365 150.521 17.598 149.055 17.598Z" fill="#0D4037"/>
<path d="M158.588 9.909H158.324V9.252L158.425 7.73L154.494 8.038V8.121C154.922 8.162 155.451 8.306 155.737 8.491V16.385L155.635 17.804H159.118C158.507 17.393 158.324 17.002 158.324 15.892V11.842C158.486 10.403 158.996 9.169 159.933 9.169C160.686 9.169 161.074 10.156 160.605 11.39H160.686L162.723 7.977C162.337 7.792 162.011 7.73 161.603 7.73C160.157 7.73 159.057 8.594 158.588 9.909H158.588Z" fill="#0D4037"/>
<path fill-rule="evenodd" clip-rule="evenodd" d="M169.812 16.941C167.368 16.941 165.738 15.008 165.677 12.089H171.055C172.135 12.089 172.685 11.348 172.685 10.485C172.685 9.231 171.483 7.71 168.896 7.71C165.86 7.71 163.029 9.663 163.029 12.973C163.029 15.913 165.249 17.948 168.509 17.948C170.668 17.948 172.318 17.023 172.929 15.871L172.827 15.789C172.196 16.632 170.79 16.941 169.812 16.941ZM168.223 8.038C169.731 8.038 170.485 9.539 170.485 10.608C170.485 11.225 170.24 11.698 169.771 11.698L165.677 11.719C165.759 9.437 166.859 8.038 168.223 8.038Z" fill="#0D4037"/>
<path d="M178.592 11.513C177.207 11.266 176.087 10.793 176.087 9.498C176.087 8.943 176.311 8.018 177.655 8.018C179.142 8.018 180.711 9.21 180.589 10.855H180.629L182.014 8.923C181.261 8.224 179.998 7.71 178.389 7.71C176.005 7.71 174.294 8.82 174.294 10.67C174.294 11.821 174.926 13.569 178.042 13.98C179.774 14.227 180.69 14.802 180.69 16.057C180.69 17.023 180.14 17.598 178.918 17.598C177.228 17.598 175.353 16.427 175.415 14.638H175.374L174.09 16.735C174.905 17.413 176.576 17.948 178.144 17.948C180.67 17.948 182.3 16.57 182.3 14.7C182.3 12.973 180.915 11.924 178.592 11.513H178.592Z" fill="#0D4037"/>
<path d="M187.189 17.434V8.326H189.593L189.695 7.833H187.189V5.099L187.352 4.153L182.708 6.332V6.456C184.072 6.065 184.602 5.942 184.602 6.805V16.385L184.541 17.619L186.761 18.133H187.189L190 17.434V17.352L187.189 17.434Z" fill="#0D4037"/>
<path fill-rule="evenodd" clip-rule="evenodd" d="M86.556 43.462C85.232 45.374 83.419 46.032 81.79 46.032C79.141 46.032 76.717 44.285 74.803 41.591L72.48 38.302C71.727 37.253 71.258 37.274 70.891 37.397L68.447 39.864C68.162 40.173 67.897 40.543 67.877 40.872C66.308 39.268 65.351 36.534 65.351 33.903C65.351 30.49 66.919 28.166 69.506 28.166C72.969 28.166 75.23 32.463 75.23 36.822C75.23 38.528 74.843 40.152 74.395 40.399L74.477 40.543C77.451 39.659 78.123 37.048 78.123 34.971C78.123 30.777 74.823 27.797 70.28 27.797C65.819 27.797 62.397 30.654 62.397 35.28C62.397 39.905 65.819 42.763 70.158 42.763C70.891 42.763 71.564 42.702 72.093 42.455C74.212 45.395 76.595 46.875 79.834 46.875C83.928 46.875 85.986 44.675 86.638 43.462H86.556ZM71.116 42.393C69.914 42.393 68.406 41.838 68.406 40.646C68.406 39.988 69.099 39.412 69.445 39.412C69.73 39.412 70.138 39.68 70.891 40.707L71.992 42.29C71.706 42.352 71.401 42.393 71.116 42.393H71.116Z" fill="#E55D45"/>
<path d="M80.16 42.475H83.664C83.053 42.064 82.87 41.674 82.87 40.563V33.923L82.972 32.402L79.04 32.71V32.792C79.468 32.833 79.997 32.977 80.283 33.162V41.057L80.16 42.475Z" fill="#E55D45"/>
<path d="M82.972 29.359C82.972 28.516 82.32 27.858 81.484 27.858C80.649 27.858 79.997 28.516 79.997 29.359C79.997 30.222 80.649 30.88 81.484 30.88C82.32 30.88 82.972 30.222 82.972 29.359Z" fill="#E55D45"/>
<path fill-rule="evenodd" clip-rule="evenodd" d="M84.887 37.932C84.887 40.789 86.822 42.619 89.796 42.619C91.018 42.619 92.017 42.29 92.709 41.756V43.524C92.709 45.107 91.792 46.073 90.713 46.073C90.02 46.073 88.92 45.95 88.085 44.161L85.681 44.881C86.476 46.32 87.902 46.772 88.981 46.772C91.283 46.772 95.296 44.511 95.296 43.339V33.142C93.992 32.628 92.587 32.381 91.283 32.381C86.965 32.381 84.887 34.93 84.887 37.932ZM92.709 41.283C92.281 41.735 91.772 41.982 91.079 41.982C89.022 41.982 87.474 39.72 87.474 36.739C87.474 34.355 88.452 32.771 90.366 32.771C91.344 32.771 92.057 33.203 92.709 33.903L92.709 41.283Z" fill="#E55D45"/>
<path fill-rule="evenodd" clip-rule="evenodd" d="M102.65 32.381C99.37 32.381 97.231 34.478 97.231 37.5C97.231 40.584 99.37 42.619 102.65 42.619C105.929 42.619 108.068 40.522 108.068 37.5C108.068 34.416 105.929 32.381 102.65 32.381ZM103.444 42.27C100.999 42.27 99.716 38.672 99.716 35.938C99.716 33.943 100.388 32.731 101.855 32.731C104.32 32.731 105.583 36.328 105.583 39.083C105.583 41.036 104.911 42.27 103.444 42.27Z" fill="#E55D45"/>
<path d="M120.108 40.563V36.123C120.108 33.018 118.376 32.381 117.093 32.381C115.239 32.381 113.63 33.574 112.714 34.231V33.923L112.815 32.402L108.884 32.71V32.792C109.312 32.833 109.841 32.977 110.126 33.162V41.057L110.004 42.475H113.508C112.897 42.064 112.714 41.674 112.714 40.563V34.725C113.467 34.17 114.486 33.327 115.749 33.327C116.706 33.327 117.521 33.861 117.521 36.164V41.057L117.398 42.475H120.902C120.291 42.064 120.108 41.674 120.108 40.563H120.108Z" fill="#E55D45"/>
<path fill-rule="evenodd" clip-rule="evenodd" d="M122.125 37.932C122.125 40.789 124.06 42.619 127.034 42.619C128.256 42.619 129.254 42.29 129.947 41.756V43.524C129.947 45.107 129.03 46.073 127.951 46.073C127.258 46.073 126.158 45.95 125.323 44.161L122.919 44.881C123.714 46.32 125.139 46.772 126.219 46.772C128.521 46.772 132.534 44.511 132.534 43.339V33.142C131.23 32.628 129.825 32.381 128.521 32.381C124.202 32.381 122.125 34.93 122.125 37.932ZM129.947 41.283C129.519 41.735 129.01 41.982 128.317 41.982C126.26 41.982 124.712 39.72 124.712 36.739C124.712 34.355 125.689 32.771 127.604 32.771C128.582 32.771 129.295 33.203 129.947 33.903L129.947 41.283Z" fill="#E55D45"/>
<path fill-rule="evenodd" clip-rule="evenodd" d="M139.387 27.797C139.779 27.797 140.162 27.898 140.535 28.099C140.909 28.301 141.2 28.59 141.409 28.966C141.617 29.342 141.721 29.734 141.721 30.142C141.721 30.546 141.619 30.934 141.413 31.307C141.208 31.68 140.92 31.969 140.549 32.175C140.179 32.381 139.791 32.484 139.387 32.484C138.982 32.484 138.595 32.381 138.224 32.175C137.854 31.969 137.565 31.68 137.359 31.307C137.152 30.934 137.049 30.546 137.049 30.142C137.049 29.734 137.154 29.342 137.363 28.966C137.573 28.59 137.864 28.301 138.238 28.099C138.612 27.898 138.995 27.797 139.387 27.797H139.387ZM139.387 28.185C139.059 28.185 138.739 28.269 138.429 28.438C138.118 28.607 137.875 28.848 137.699 29.162C137.524 29.476 137.436 29.802 137.436 30.142C137.436 30.48 137.522 30.803 137.695 31.113C137.867 31.422 138.108 31.663 138.418 31.836C138.727 32.009 139.05 32.096 139.387 32.096C139.723 32.096 140.046 32.009 140.356 31.836C140.666 31.663 140.906 31.422 141.077 31.113C141.249 30.803 141.334 30.48 141.334 30.142C141.334 29.802 141.247 29.476 141.073 29.162C140.898 28.848 140.655 28.607 140.344 28.438C140.032 28.269 139.713 28.185 139.387 28.185H139.387ZM140.136 30.521L140.517 30.633C140.455 30.891 140.323 31.098 140.122 31.252C139.921 31.407 139.677 31.484 139.39 31.484C139.027 31.484 138.731 31.366 138.504 31.13C138.277 30.894 138.164 30.567 138.164 30.148C138.164 29.875 138.216 29.637 138.319 29.435C138.422 29.233 138.569 29.081 138.76 28.979C138.951 28.876 139.169 28.825 139.415 28.825C139.689 28.825 139.917 28.891 140.099 29.022C140.281 29.153 140.405 29.332 140.47 29.558L140.102 29.648C140.04 29.495 139.949 29.377 139.828 29.295C139.707 29.214 139.565 29.173 139.402 29.173C139.165 29.173 138.969 29.257 138.816 29.427C138.662 29.597 138.585 29.841 138.585 30.157C138.585 30.474 138.658 30.714 138.803 30.877C138.949 31.039 139.137 31.12 139.368 31.12C139.554 31.12 139.717 31.067 139.857 30.959C139.998 30.851 140.091 30.705 140.136 30.521H140.136Z" fill="#E55D45"/>
</svg>
