<svg width="20" height="20" viewBox="0 0 20 20" fill="none" xmlns="http://www.w3.org/2000/svg">
<path d="M18.2563 7.4003C17.8916 7.34732 17.5435 7.21276 17.238 7.00663C16.9325 6.80049 16.6775 6.5281 16.4919 6.20973C16.3063 5.89136 16.1949 5.53522 16.166 5.16783C16.1371 4.80044 16.1914 4.43127 16.325 4.0878C16.4099 3.86325 16.4224 3.61776 16.3608 3.38575C16.2991 3.15374 16.1664 2.94684 15.9813 2.79405C15.1638 2.10759 14.2333 1.56832 13.2313 1.2003C13.0031 1.11554 12.754 1.10495 12.5194 1.17004C12.2849 1.23512 12.0769 1.37257 11.925 1.5628C11.6964 1.85508 11.4043 2.09148 11.0708 2.25406C10.7372 2.41663 10.3711 2.50113 10 2.50113C9.62896 2.50113 9.26279 2.41663 8.92925 2.25406C8.59572 2.09148 8.30359 1.85508 8.07501 1.5628C7.92315 1.37257 7.71513 1.23512 7.48058 1.17004C7.24604 1.10495 6.99693 1.11554 6.76876 1.2003C5.84355 1.54007 4.97851 2.02534 4.20626 2.6378C4.0116 2.7919 3.87139 3.00428 3.80616 3.24383C3.74093 3.48338 3.75411 3.73753 3.84376 3.96905C3.98798 4.3216 4.04757 4.70305 4.01774 5.0828C3.98792 5.46254 3.86951 5.83001 3.67201 6.15573C3.47452 6.48144 3.20343 6.75634 2.88051 6.95836C2.55758 7.16039 2.1918 7.28392 1.81251 7.31905C1.56627 7.34538 1.33498 7.45007 1.15271 7.61772C0.970433 7.78537 0.846801 8.00711 0.800013 8.2503C0.683637 8.82636 0.625014 9.4126 0.625014 10.0003C0.624158 10.4923 0.663876 10.9836 0.743763 11.469C0.783523 11.72 0.904855 11.9509 1.089 12.126C1.27315 12.3011 1.50985 12.4107 1.76251 12.4378C2.15013 12.4742 2.5234 12.6029 2.85108 12.8131C3.17875 13.0234 3.4513 13.309 3.64591 13.6462C3.84051 13.9834 3.95152 14.3623 3.96963 14.7512C3.98774 15.1401 3.91244 15.5277 3.75001 15.8815C3.64372 16.1117 3.61735 16.3708 3.6751 16.6176C3.73285 16.8645 3.8714 17.0849 4.06876 17.244C4.88133 17.918 5.80287 18.4486 6.79376 18.8128C6.92047 18.8567 7.05342 18.8799 7.18751 18.8815C7.37137 18.8811 7.55245 18.8367 7.71557 18.7519C7.87869 18.667 8.01909 18.5443 8.12501 18.3941C8.34777 18.0695 8.64638 17.8042 8.99491 17.6212C9.34344 17.4383 9.73137 17.3431 10.125 17.344C10.5064 17.3445 10.8824 17.4341 11.2232 17.6055C11.5639 17.7769 11.8598 18.0256 12.0875 18.3315C12.239 18.5351 12.4535 18.6829 12.6976 18.7519C12.9418 18.8208 13.2019 18.8071 13.4375 18.7128C14.3436 18.3481 15.1871 17.8442 15.9375 17.219C16.126 17.0632 16.2602 16.8516 16.3209 16.6146C16.3815 16.3776 16.3655 16.1276 16.275 15.9003C16.128 15.5523 16.0639 15.1749 16.0878 14.7978C16.1116 14.4208 16.2228 14.0545 16.4125 13.7278C16.6023 13.4011 16.8653 13.123 17.1809 12.9154C17.4966 12.7078 17.8561 12.5764 18.2313 12.5315C18.4745 12.4979 18.7007 12.3877 18.8771 12.2169C19.0536 12.0461 19.171 11.8236 19.2125 11.5815C19.3129 11.0602 19.3673 10.5311 19.375 10.0003C19.3751 9.44039 19.3228 8.8817 19.2188 8.33155C19.1766 8.09486 19.0608 7.87749 18.8881 7.71032C18.7153 7.54314 18.4942 7.43467 18.2563 7.4003ZM17.9938 11.3003C17.4437 11.3807 16.9188 11.5841 16.4583 11.8956C15.9978 12.207 15.6136 12.6184 15.3342 13.0991C15.0548 13.5797 14.8875 14.1172 14.8448 14.6715C14.8021 15.2258 14.8851 15.7825 15.0875 16.3003C14.4677 16.8197 13.7722 17.2412 13.025 17.5503C12.6812 17.1035 12.239 16.742 11.7328 16.4938C11.2266 16.2455 10.67 16.1173 10.1063 16.1191C9.5262 16.1222 8.95495 16.2612 8.43831 16.5249C7.92167 16.7887 7.47402 17.1698 7.13126 17.6378C6.3219 17.3299 5.56664 16.8953 4.89376 16.3503C5.12176 15.8261 5.22411 15.2559 5.19264 14.6851C5.16117 14.1143 4.99675 13.5588 4.71251 13.0628C4.42524 12.5614 4.02469 12.1341 3.54287 11.815C3.06104 11.496 2.51129 11.294 1.93751 11.2253C1.88736 10.819 1.86647 10.4096 1.87501 10.0003C1.87517 9.51579 1.92121 9.03238 2.01251 8.55655C2.57217 8.49098 3.10936 8.29802 3.58282 7.99249C4.05628 7.68696 4.45343 7.27698 4.74376 6.79405C5.03369 6.31604 5.21034 5.77799 5.26018 5.22115C5.31001 4.66431 5.23171 4.10345 5.03126 3.58155C5.66907 3.08121 6.37928 2.68079 7.13751 2.39405C7.48456 2.81779 7.92135 3.15921 8.41637 3.39364C8.91139 3.62807 9.45228 3.74967 10 3.74967C10.5477 3.74967 11.0886 3.62807 11.5836 3.39364C12.0787 3.15921 12.5155 2.81779 12.8625 2.39405C13.6864 2.70534 14.453 3.15095 15.1313 3.7128C14.9459 4.22312 14.8752 4.76797 14.924 5.30869C14.9729 5.84942 15.1401 6.37277 15.4139 6.8416C15.6877 7.31044 16.0613 7.71328 16.5083 8.02155C16.9552 8.32981 17.4645 8.53593 18 8.6253C18.0813 9.07916 18.1231 9.53922 18.125 10.0003C18.1233 10.4357 18.0878 10.8704 18.0188 11.3003H17.9938Z" fill="white"/>
<path d="M10 6.25C9.25832 6.25 8.5333 6.46993 7.91661 6.88199C7.29993 7.29404 6.81928 7.87971 6.53545 8.56493C6.25162 9.25016 6.17736 10.0042 6.32206 10.7316C6.46675 11.459 6.8239 12.1272 7.34835 12.6516C7.8728 13.1761 8.54098 13.5332 9.26841 13.6779C9.99584 13.8226 10.7498 13.7484 11.4351 13.4645C12.1203 13.1807 12.706 12.7001 13.118 12.0834C13.5301 11.4667 13.75 10.7417 13.75 9.99999C13.75 9.00543 13.3549 8.05161 12.6517 7.34835C11.9484 6.64509 10.9946 6.25 10 6.25ZM10 12.5C9.50555 12.5 9.0222 12.3534 8.61108 12.0787C8.19995 11.804 7.87952 11.4135 7.6903 10.9567C7.50108 10.4999 7.45157 9.99722 7.54804 9.51227C7.6445 9.02732 7.8826 8.58186 8.23223 8.23223C8.58187 7.8826 9.02732 7.6445 9.51228 7.54803C9.99723 7.45157 10.4999 7.50108 10.9567 7.6903C11.4135 7.87952 11.804 8.19995 12.0787 8.61107C12.3534 9.02219 12.5 9.50554 12.5 9.99999C12.5 10.663 12.2366 11.2989 11.7678 11.7678C11.2989 12.2366 10.663 12.5 10 12.5Z" fill="white"/>
</svg>
