<svg width="24" height="25" viewBox="0 0 24 25" fill="none" xmlns="http://www.w3.org/2000/svg">
<rect y="0.5" width="24" height="24" rx="12" fill="#3276B6"/>
<path d="M12.2766 15.922C12.6639 15.922 12.9976 15.8777 13.2776 15.789C13.5576 15.7003 13.7863 15.5767 13.9636 15.418C14.1456 15.2547 14.2786 15.0633 14.3626 14.844C14.4466 14.62 14.4886 14.375 14.4886 14.109C14.4886 13.591 14.3043 13.1827 13.9356 12.884C13.5669 12.5807 13.0139 12.429 12.2766 12.429H10.1066V15.922H12.2766ZM10.1066 8.04V11.463H11.8986C12.2813 11.463 12.6126 11.421 12.8926 11.337C13.1773 11.253 13.4106 11.1363 13.5926 10.987C13.7793 10.8377 13.9169 10.658 14.0056 10.448C14.0943 10.2333 14.1386 10 14.1386 9.748C14.1386 9.15533 13.9613 8.72367 13.6066 8.453C13.2519 8.17767 12.7013 8.04 11.9546 8.04H10.1066ZM11.9546 6.969C12.5706 6.969 13.1003 7.02967 13.5436 7.151C13.9916 7.27233 14.3579 7.445 14.6426 7.669C14.9319 7.893 15.1443 8.16833 15.2796 8.495C15.4149 8.817 15.4826 9.181 15.4826 9.587C15.4826 9.83433 15.4429 10.0723 15.3636 10.301C15.2889 10.525 15.1746 10.735 15.0206 10.931C14.8666 11.127 14.6706 11.3043 14.4326 11.463C14.1993 11.617 13.9239 11.743 13.6066 11.841C14.3439 11.981 14.8969 12.2447 15.2656 12.632C15.6389 13.0147 15.8256 13.5187 15.8256 14.144C15.8256 14.5687 15.7463 14.956 15.5876 15.306C15.4336 15.656 15.2049 15.957 14.9016 16.209C14.6029 16.461 14.2343 16.657 13.7956 16.797C13.3569 16.9323 12.8576 17 12.2976 17H8.75561V6.969H11.9546Z" fill="white"/>
</svg>
