<svg width="20" height="20" viewBox="0 0 20 20" fill="none" xmlns="http://www.w3.org/2000/svg">
<g clip-path="url(#clip0_1_8)">
<path d="M19.7031 7.22911C19.439 6.89778 19.0428 6.7077 18.616 6.7077H14.7643L12.6756 1.92516C12.5461 1.62863 12.2007 1.49312 11.9042 1.62269C11.6076 1.75219 11.4722 2.09762 11.6017 2.39418L13.4855 6.70774H6.51449L8.39828 2.39418C8.52777 2.09762 8.39238 1.75223 8.09582 1.62269C7.7993 1.49312 7.45387 1.62855 7.32437 1.92516L5.23574 6.70774H1.38402C0.957226 6.70774 0.561015 6.89778 0.296914 7.22914C0.0376558 7.55446 -0.0580082 7.97266 0.0344527 8.37664L2.09137 17.361C2.235 17.9884 2.78996 18.4265 3.44094 18.4265H16.5591C17.21 18.4265 17.765 17.9884 17.9086 17.361L19.9655 8.37661C20.058 7.97262 19.9623 7.55442 19.7031 7.22911ZM16.5591 17.2546H3.44094C3.34144 17.2546 3.2543 17.1893 3.23371 17.0994L1.1768 8.11512C1.16066 8.04461 1.18773 7.99157 1.21336 7.9595C1.23711 7.92965 1.2909 7.87961 1.38402 7.87961H4.72398L4.57051 8.23106C4.44102 8.52762 4.57641 8.87301 4.87297 9.00254C4.9493 9.0359 5.02883 9.05168 5.10715 9.05168C5.33301 9.05168 5.54824 8.92032 5.64441 8.70012L6.00273 7.87969H13.9973L14.3557 8.70012C14.4518 8.92036 14.6671 9.05168 14.8929 9.05168C14.9712 9.05168 15.0508 9.0359 15.1271 9.00254C15.4237 8.87305 15.5591 8.52762 15.4296 8.23106L15.2761 7.87961H18.6161C18.7092 7.87961 18.763 7.92965 18.7867 7.9595C18.8123 7.99161 18.8394 8.04465 18.8233 8.11508L16.7664 17.0995C16.7457 17.1893 16.6586 17.2546 16.5591 17.2546Z" fill="white"/>
<path d="M6.48438 10.4186C6.16078 10.4186 5.89844 10.681 5.89844 11.0046V15.3014C5.89844 15.625 6.16078 15.8874 6.48438 15.8874C6.80797 15.8874 7.07031 15.625 7.07031 15.3014V11.0046C7.07031 10.681 6.80801 10.4186 6.48438 10.4186Z" fill="white"/>
<path d="M10 10.4186C9.67641 10.4186 9.41406 10.681 9.41406 11.0046V15.3014C9.41406 15.625 9.67641 15.8874 10 15.8874C10.3236 15.8874 10.5859 15.625 10.5859 15.3014V11.0046C10.5859 10.681 10.3236 10.4186 10 10.4186Z" fill="white"/>
<path d="M13.5156 10.4186C13.192 10.4186 12.9297 10.681 12.9297 11.0046V15.3014C12.9297 15.625 13.192 15.8874 13.5156 15.8874C13.8392 15.8874 14.1016 15.625 14.1016 15.3014V11.0046C14.1015 10.681 13.8392 10.4186 13.5156 10.4186Z" fill="white"/>
</g>
<defs>
<clipPath id="clip0_1_8">
<rect width="20" height="20" fill="white"/>
</clipPath>
</defs>
</svg>
