<svg width="24" height="24" viewBox="0 0 24 24" fill="none" xmlns="http://www.w3.org/2000/svg">
<path fill-rule="evenodd" clip-rule="evenodd" d="M6.21798 17.7817C6.50828 18.072 6.97896 18.072 7.26926 17.7817L11.9997 13.0513L16.7305 17.782C17.0208 18.0723 17.4914 18.0723 17.7817 17.782C18.072 17.4917 18.072 17.021 17.7817 16.7307L13.051 12L17.782 7.269C18.0723 6.9787 18.0723 6.50803 17.782 6.21773C17.4917 5.92742 17.021 5.92742 16.7307 6.21773L11.9997 10.9487L7.269 6.21798C6.9787 5.92768 6.50803 5.92768 6.21773 6.21798C5.92742 6.50828 5.92742 6.97896 6.21773 7.26926L10.9485 12L6.21798 16.7305C5.92768 17.0208 5.92768 17.4914 6.21798 17.7817Z" fill="#E55D45"/>
<rect x="0.5" y="0.5" width="23" height="23" rx="11.5" stroke="#E55D45"/>
</svg>
