<svg width="30" height="30" viewBox="0 0 30 30" fill="none" xmlns="http://www.w3.org/2000/svg">
<path d="M18.7948 29.5045C18.7487 29.5166 18.7023 29.529 18.656 29.5406C18.7023 29.529 18.7487 29.5168 18.7948 29.5045Z" fill="white"/>
<path d="M29.9376 15C29.9376 6.717 23.2346 0 14.9688 0C6.70303 0 0 6.717 0 15C0 23.283 6.70303 30 14.9688 30C15.0568 30 15.1442 29.9982 15.2319 29.9966V18.3197H12.016V14.564H15.2319V11.8002C15.2319 8.59497 17.1846 6.85043 20.0378 6.85043C21.4042 6.85043 22.5786 6.95251 22.921 6.99806V10.348H20.9535C19.4013 10.348 19.1007 11.0873 19.1007 12.1719V14.564H22.8123L22.3285 18.3197H19.1007V29.4205C25.3574 27.6231 29.9376 21.8468 29.9376 15Z" fill="white"/>
</svg>
