<svg width="12" height="13" viewBox="0 0 12 13" fill="none" xmlns="http://www.w3.org/2000/svg">
<path fill-rule="evenodd" clip-rule="evenodd" d="M11.7825 0.717738C11.4922 0.427421 11.0215 0.427421 10.7312 0.717738L6.0001 5.44881L1.26907 0.717784C0.978754 0.427466 0.508056 0.427466 0.217738 0.717784C-0.0725793 1.0081 -0.0725794 1.4788 0.217738 1.76912L4.94877 6.50015L0.217854 11.2311C-0.0724636 11.5214 -0.0724636 11.9921 0.217854 12.2824C0.508171 12.5727 0.978869 12.5727 1.26919 12.2824L6.0001 7.55148L10.7311 12.2824C11.0214 12.5728 11.4921 12.5728 11.7824 12.2824C12.0727 11.9921 12.0727 11.5214 11.7824 11.2311L7.05143 6.50015L11.7825 1.76907C12.0728 1.47875 12.0728 1.00806 11.7825 0.717738Z" fill="white"/>
</svg>
