<svg width="24" height="23" viewBox="0 0 24 23" fill="none" xmlns="http://www.w3.org/2000/svg">
<path d="M11.5317 1.25247C11.6936 0.819297 12.3064 0.819299 12.4683 1.25247L15.0934 8.27281C15.1637 8.46073 15.3395 8.58846 15.5399 8.59721L23.0278 8.92441C23.4899 8.94459 23.6792 9.52732 23.3173 9.81522L17.4517 14.4812C17.2947 14.6061 17.2276 14.8128 17.2812 15.0061L19.2839 22.2287C19.4075 22.6743 18.9118 23.0345 18.5261 22.7792L12.276 18.6426C12.1086 18.5319 11.8914 18.5319 11.724 18.6426L5.47387 22.7792C5.08821 23.0345 4.59252 22.6743 4.71609 22.2287L6.71881 15.0061C6.77242 14.8128 6.70527 14.6061 6.54826 14.4812L0.682714 9.81522C0.320795 9.52732 0.510134 8.94459 0.972159 8.92441L8.46009 8.59721C8.66053 8.58846 8.83632 8.46073 8.90659 8.27281L11.5317 1.25247Z" fill="#E55D45"/>
</svg>
