<svg width="28" height="26" viewBox="0 0 28 26" fill="none" xmlns="http://www.w3.org/2000/svg">
<path d="M24.3125 0.6875H3.6875C2.09375 0.6875 0.875 1.90625 0.875 3.5V16.625C0.875 18.2188 2.09375 19.4375 3.6875 19.4375H19.0625L25.625 24.875C25.8125 25.0625 26 25.0625 26.1875 25.0625C26.2812 25.0625 26.4688 25.0625 26.5625 24.9688C26.9375 24.7812 27.125 24.5 27.125 24.125V3.5C27.125 1.90625 25.9062 0.6875 24.3125 0.6875ZM15.5938 9.40625L13.625 11.375L14.0938 14.0937C14.1875 14.4687 14 14.8437 13.7188 15.0312C13.5312 15.125 13.3438 15.2188 13.1562 15.2188C12.9688 15.2188 12.875 15.2188 12.6875 15.125L10.25 13.7188L7.8125 15.0312C7.53125 15.2187 7.15625 15.2188 6.78125 14.9375C6.5 14.75 6.3125 14.375 6.40625 14L6.875 11.2812L4.90625 9.3125C4.625 9.125 4.53125 8.75 4.625 8.46875C4.71875 8.09375 5 7.90625 5.375 7.8125L8.09375 7.4375L9.3125 4.90625C9.59375 4.25 10.7188 4.25 11 4.90625L12.2188 7.4375L14.9375 7.8125C15.3125 7.90625 15.5937 8.09375 15.6875 8.46875C15.9687 8.75 15.875 9.125 15.5938 9.40625ZM22.4375 12.875H19.625C19.0625 12.875 18.6875 12.5 18.6875 11.9375C18.6875 11.375 19.0625 11 19.625 11H22.4375C23 11 23.375 11.375 23.375 11.9375C23.375 12.5 23 12.875 22.4375 12.875ZM22.4375 9.125H17.75C17.1875 9.125 16.8125 8.75 16.8125 8.1875C16.8125 7.625 17.1875 7.25 17.75 7.25H22.4375C23 7.25 23.375 7.625 23.375 8.1875C23.375 8.75 23 9.125 22.4375 9.125Z" fill="#E55D45"/>
</svg>
