<svg width="141" height="64" viewBox="0 0 141 64" fill="none" xmlns="http://www.w3.org/2000/svg">
<g clip-path="url(#clip0_1548_38870)">
<rect x="76.9385" width="64" height="64" rx="32" fill="#E55D45"/>
<path d="M123.605 30.1331C123.605 26.7818 120.867 24.0665 117.488 24.0665C116.614 24.0665 115.785 24.2494 115.033 24.5758C115.048 24.407 115.056 24.2382 115.056 24.0665C115.056 20.7153 112.318 18 108.939 18C105.559 18 102.821 20.7153 102.821 24.0665C102.821 24.2382 102.83 24.407 102.844 24.5758C102.092 24.2494 101.263 24.0665 100.389 24.0665C97.01 24.0665 94.2719 26.7818 94.2719 30.1331C94.2719 33.0059 96.2893 35.4145 98.9933 36.0392C98.1024 37.0944 97.5661 38.4506 97.5661 39.9335C97.5661 43.2847 100.304 46 103.684 46C105.917 46 107.872 44.8126 108.939 43.0399C110.005 44.8126 111.96 46 114.193 46C117.573 46 120.311 43.2847 120.311 39.9335C120.311 38.4506 119.775 37.0944 118.884 36.0392C121.588 35.4117 123.605 33.0059 123.605 30.1331ZM110.283 27.5078C110.377 27.2602 110.655 27.1336 110.905 27.2264C111.155 27.3193 111.282 27.595 111.189 27.8426C111.095 28.0902 110.817 28.2169 110.567 28.124C110.318 28.0312 110.19 27.7554 110.283 27.5078ZM108.939 26.8747C109.205 26.8747 109.421 27.0885 109.421 27.353C109.421 27.6175 109.205 27.8314 108.939 27.8314C108.672 27.8314 108.456 27.6175 108.456 27.353C108.453 27.0885 108.669 26.8747 108.939 26.8747ZM106.776 27.3024C107.023 27.2011 107.307 27.3164 107.409 27.5612C107.511 27.806 107.395 28.0874 107.148 28.1887C106.901 28.29 106.618 28.1747 106.515 27.9299C106.413 27.6851 106.53 27.4037 106.776 27.3024ZM104.96 28.5067C105.151 28.3182 105.454 28.3182 105.644 28.5067C105.834 28.6952 105.834 28.9963 105.644 29.1848C105.454 29.3733 105.151 29.3733 104.96 29.1848C104.773 28.9991 104.773 28.6952 104.96 28.5067ZM103.669 30.4988C103.763 30.2512 104.041 30.1246 104.291 30.2175C104.541 30.3103 104.668 30.5861 104.575 30.8337C104.481 31.0813 104.203 31.2079 103.953 31.1151C103.703 31.0222 103.576 30.7465 103.669 30.4988ZM103.315 32.4516C103.315 32.1871 103.53 31.9733 103.797 31.9733C104.064 31.9733 104.279 32.1871 104.279 32.4516C104.279 32.7161 104.064 32.93 103.797 32.93C103.53 32.93 103.315 32.7161 103.315 32.4516ZM104.379 34.8518C104.132 34.9531 103.848 34.8377 103.746 34.5929C103.644 34.3481 103.76 34.0667 104.007 33.9654C104.254 33.8641 104.538 33.9795 104.64 34.2243C104.742 34.4691 104.623 34.7505 104.379 34.8518ZM105.644 36.3937C105.454 36.5823 105.151 36.5823 104.96 36.3937C104.77 36.2052 104.77 35.9041 104.96 35.7156C105.151 35.5271 105.454 35.5271 105.644 35.7156C105.834 35.9041 105.834 36.2052 105.644 36.3937ZM107.591 37.3926C107.497 37.6402 107.219 37.7669 106.969 37.674C106.72 37.5811 106.592 37.3054 106.686 37.0578C106.779 36.8102 107.057 36.6835 107.307 36.7764C107.557 36.8693 107.684 37.145 107.591 37.3926ZM108.939 38.0257C108.672 38.0257 108.456 37.8119 108.456 37.5474C108.456 37.2829 108.672 37.069 108.939 37.069C109.205 37.069 109.421 37.2829 109.421 37.5474C109.421 37.8119 109.205 38.0257 108.939 38.0257ZM111.098 37.598C110.851 37.6993 110.567 37.584 110.465 37.3392C110.363 37.0944 110.479 36.813 110.726 36.7117C110.973 36.6104 111.257 36.7258 111.359 36.9706C111.461 37.2154 111.345 37.4967 111.098 37.598ZM108.939 36.5091C106.677 36.5091 104.844 34.6914 104.844 32.4488C104.844 30.2062 106.677 28.3885 108.939 28.3885C111.2 28.3885 113.033 30.2062 113.033 32.4488C113.03 34.6914 111.197 36.5091 108.939 36.5091ZM112.914 36.3937C112.724 36.5823 112.42 36.5823 112.23 36.3937C112.04 36.2052 112.04 35.9041 112.23 35.7156C112.417 35.5271 112.724 35.5271 112.914 35.7156C113.101 35.9041 113.101 36.2052 112.914 36.3937ZM112.914 29.1848C112.724 29.3733 112.42 29.3733 112.23 29.1848C112.04 28.9963 112.04 28.6952 112.23 28.5067C112.417 28.3182 112.724 28.3182 112.914 28.5067C113.101 28.6952 113.101 28.9991 112.914 29.1848ZM113.495 30.0514C113.742 29.9502 114.026 30.0655 114.128 30.3103C114.23 30.5551 114.114 30.8365 113.867 30.9378C113.62 31.0391 113.337 30.9237 113.234 30.6789C113.132 30.4313 113.251 30.1527 113.495 30.0514ZM114.205 34.4016C114.111 34.6492 113.833 34.7758 113.583 34.6829C113.334 34.5901 113.206 34.3143 113.3 34.0667C113.393 33.8191 113.671 33.6925 113.921 33.7853C114.171 33.8782 114.298 34.154 114.205 34.4016ZM114.077 32.93C113.81 32.93 113.595 32.7161 113.595 32.4516C113.595 32.1871 113.81 31.9733 114.077 31.9733C114.344 31.9733 114.559 32.1871 114.559 32.4516C114.559 32.7161 114.344 32.93 114.077 32.93Z" fill="white"/>
<circle cx="10" cy="27" r="8" fill="white" stroke="#E55D45" stroke-width="4"/>
<rect x="17.1743" y="25.8027" width="62" height="2" transform="rotate(5 17.1743 25.8027)" fill="#E55D45"/>
<path fill-rule="evenodd" clip-rule="evenodd" d="M42.4922 19.0008C42.4371 18.995 42.3476 19.012 42.1964 19.0582C42.159 19.07 42.0857 19.0914 42.0337 19.1069C41.9816 19.1211 41.937 19.1363 41.9354 19.1401C41.9337 19.144 41.8785 19.1614 41.813 19.1792C41.7466 19.1972 41.6798 19.2178 41.6644 19.2246C41.6487 19.2315 41.6164 19.2411 41.5919 19.2455C41.5678 19.2495 41.5121 19.2652 41.4689 19.2798C41.4257 19.2937 41.3723 19.3092 41.3502 19.3141C41.3284 19.3191 41.2662 19.3353 41.2129 19.3502C41.1597 19.3649 41.0762 19.3849 41.0269 19.394C40.9786 19.4038 40.9072 19.4188 40.8701 19.4272C40.766 19.4506 40.5525 19.4834 40.404 19.4993C40.3313 19.5068 40.2411 19.5172 40.2037 19.5218C40.1291 19.5317 39.9612 19.5366 39.8139 19.5331C39.761 19.5319 39.6884 19.533 39.6534 19.5348C39.6181 19.5367 39.5849 19.5368 39.5796 19.5345C39.5742 19.5322 39.5353 19.5298 39.4933 19.5294C39.3989 19.5283 39.2273 19.518 39.1058 19.5052C39.0559 19.4995 38.9658 19.4931 38.9055 19.4887C38.8457 19.4852 38.7715 19.4792 38.7404 19.4758C38.5958 19.4599 38.4312 19.4438 38.2087 19.4228C38.0746 19.4109 37.9465 19.3985 37.9227 19.3955C37.8992 19.3935 37.8415 19.3893 37.7956 19.3866C37.7497 19.3845 37.6547 19.3787 37.5843 19.3745C37.3233 19.3567 37.1413 19.3536 36.9402 19.3621C36.8618 19.3659 36.7836 19.3674 36.7661 19.3661C36.7492 19.3651 36.6828 19.3686 36.6179 19.3749C36.5541 19.3805 36.4725 19.3878 36.4362 19.3901C36.4009 19.3926 36.3471 19.3983 36.3177 19.4037C36.2885 19.4083 36.2039 19.4202 36.1307 19.4289C35.7198 19.4817 35.229 19.6148 34.8575 19.7747C34.668 19.8559 34.6042 19.8844 34.5486 19.9153C34.5165 19.9329 34.4517 19.9681 34.4048 19.9928C34.1858 20.1107 33.7993 20.397 33.6323 20.5656C33.6133 20.5842 33.5756 20.6232 33.5478 20.6506C33.502 20.6975 33.4079 20.8047 33.3513 20.8767C33.3121 20.9255 33.2669 20.9899 33.1983 21.0945C33.0387 21.3376 33.0377 21.3398 32.885 21.694C32.726 22.0629 32.7161 22.09 32.6321 22.4235C32.5704 22.6677 32.5252 22.9907 32.5182 23.2332C32.514 23.3639 32.5348 23.5903 32.5516 23.5976C32.5539 23.5986 32.5764 23.5866 32.6 23.5709C32.7009 23.5044 32.8263 23.4298 32.8653 23.4132C32.8882 23.4035 32.941 23.3757 32.9832 23.3517C33.1589 23.2501 33.6883 23.0194 33.89 22.9561C33.9298 22.9429 34.0122 22.9173 34.0729 22.8983C34.1632 22.869 34.3888 22.8061 34.6161 22.7458C34.6413 22.7398 34.7013 22.726 34.7499 22.7165C34.7982 22.7067 34.8667 22.6923 34.9038 22.6839C34.9745 22.6686 35.0144 22.6614 35.1321 22.6439C35.1725 22.6379 35.2473 22.6262 35.2972 22.6171C35.3459 22.6083 35.4728 22.5911 35.5774 22.578C35.6828 22.5642 35.8396 22.5437 35.9268 22.5319C36.0144 22.5195 36.1498 22.5023 36.2276 22.4935C36.3064 22.4844 36.3952 22.4732 36.4253 22.4685C36.4553 22.4634 36.483 22.46 36.486 22.4613C36.4967 22.4659 36.9805 22.3906 37.095 22.3654C37.1176 22.3615 37.1611 22.3551 37.1915 22.3513C37.2878 22.3415 37.5378 22.2937 37.6452 22.2644C37.6727 22.2567 37.7459 22.2377 37.8063 22.2216C37.8666 22.2052 37.9579 22.1799 38.0092 22.1652C38.0601 22.1501 38.1331 22.1296 38.1699 22.1193C38.4658 22.0383 38.7203 21.9529 39.0223 21.8329C39.2107 21.7585 39.312 21.7121 39.4313 21.6467C39.5182 21.5986 39.5921 21.5594 39.5958 21.5591C39.5998 21.5581 39.606 21.5627 39.6102 21.569C39.6227 21.5862 39.5018 21.7007 39.3526 21.8136C39.0118 22.0719 38.4198 22.3549 37.8825 22.5161C37.8117 22.5379 37.7198 22.5666 37.6783 22.5809C37.6377 22.5959 37.5837 22.612 37.5592 22.6169C37.5345 22.6216 37.4779 22.6357 37.4321 22.6494C37.3877 22.6628 37.3134 22.6782 37.2686 22.6833C37.2239 22.6889 37.1677 22.6981 37.1427 22.7035C37.0234 22.7285 36.7183 22.7729 36.4717 22.8004C36.4471 22.8034 36.3853 22.81 36.3358 22.8163C36.2861 22.8228 36.2077 22.8312 36.1603 22.8359C36.114 22.8412 36.0426 22.8498 36.0028 22.8561C35.9632 22.8625 35.8755 22.8731 35.8077 22.88C35.7404 22.8867 35.6715 22.8958 35.655 22.8992C35.6388 22.9031 35.5829 22.9088 35.5317 22.9126C35.4801 22.9174 35.4112 22.9264 35.3786 22.9328C35.3458 22.9395 35.2955 22.9475 35.2671 22.9503C35.2178 22.9561 35.1019 22.9735 35.006 22.9914C34.9813 22.9961 34.9086 23.0099 34.8441 23.0215C34.7796 23.0324 34.7008 23.0497 34.67 23.0589C34.6393 23.067 34.5818 23.081 34.5433 23.0886C34.5049 23.0964 34.4267 23.1166 34.3707 23.133C34.3142 23.149 34.2506 23.1667 34.2295 23.1717C34.2077 23.1759 34.1589 23.191 34.121 23.2033C34.0829 23.2166 34.0094 23.2406 33.9567 23.2576C33.7874 23.3132 33.4254 23.4612 33.2697 23.5398C33.1751 23.5873 33.0595 23.6498 32.9709 23.7026C32.9319 23.7255 32.8766 23.7538 32.8475 23.7666C32.762 23.8035 32.5334 23.9477 32.348 24.0821C32.0949 24.2659 31.9051 24.4315 31.6815 24.664C31.6094 24.739 31.5273 24.8218 31.4996 24.8466C31.4715 24.8716 31.4424 24.9012 31.4337 24.9128C31.4254 24.9237 31.3856 24.966 31.3451 25.0051C31.3041 25.0454 31.2434 25.1108 31.2099 25.1506C31.1764 25.1901 31.1144 25.2644 31.071 25.3151C31.0281 25.3659 30.9832 25.4214 30.9724 25.4381C30.9614 25.455 30.9419 25.4792 30.9297 25.4911C30.9037 25.5158 30.7764 25.6825 30.7471 25.7293C30.7365 25.7474 30.7129 25.783 30.6939 25.8101C30.6258 25.9086 30.4984 26.107 30.4621 26.1698C30.3869 26.2997 30.2193 26.661 30.1778 26.7819C30.1561 26.8446 30.1098 26.9743 30.075 27.0713C29.9935 27.2992 29.9858 27.3581 30.0239 27.4659C30.0461 27.5277 30.0803 27.5733 30.1079 27.5781C30.1367 27.5824 30.2238 27.5399 30.2731 27.4972C30.3392 27.4401 30.368 27.3903 30.4205 27.2443C30.5621 26.8473 30.6994 26.5243 30.7415 26.4849C30.7593 26.469 30.7761 26.4385 30.808 26.3649C30.8416 26.2874 30.8632 26.2481 30.9094 26.1833C30.9418 26.1378 30.9996 26.0518 31.038 25.9927C31.0768 25.9346 31.129 25.86 31.1551 25.827C31.5492 25.3338 31.8111 25.0603 32.1381 24.8034C32.4762 24.5375 32.6307 24.427 32.7967 24.331C32.8309 24.3105 32.9001 24.2693 32.9507 24.2381C33.0011 24.2068 33.0456 24.1817 33.0502 24.1836C33.054 24.1853 33.0929 24.2266 33.137 24.2745C33.2886 24.4431 33.5083 24.6441 33.7865 24.8682C34.0033 25.0444 33.9974 25.0391 34.1457 25.1324C34.1812 25.1541 34.2299 25.1853 34.2554 25.2017C34.281 25.2173 34.3447 25.2536 34.3969 25.2817C34.4492 25.3107 34.5177 25.3486 34.5493 25.3667C34.5809 25.385 34.7276 25.4549 34.8748 25.5215C35.2971 25.7127 35.6565 25.835 36.0422 25.9191C36.1418 25.9409 36.2534 25.9647 36.2896 25.9724C36.502 26.0195 36.9573 26.0725 37.1396 26.0721C37.1846 26.0726 37.2719 26.0714 37.3344 26.0726C37.4961 26.0723 37.6458 26.0578 37.8304 26.0249C38.0516 25.9855 38.1336 25.9689 38.2035 25.9493C38.2431 25.9388 38.3022 25.9236 38.3353 25.9156C38.4097 25.898 38.8297 25.7328 38.9609 25.6689C39.0149 25.6425 39.0961 25.6029 39.1429 25.5809C39.1886 25.5582 39.2436 25.5289 39.2649 25.5154C39.286 25.5022 39.3574 25.4601 39.4256 25.422C39.7233 25.2534 40.067 24.9935 40.3235 24.743C40.3515 24.7153 40.396 24.6733 40.4222 24.6505C40.5892 24.5001 40.9709 24.0655 41.1447 23.8269C41.2326 23.7071 41.3392 23.5531 41.3596 23.5184C41.3718 23.4965 41.4188 23.4215 41.4634 23.3514C41.589 23.1558 41.7696 22.7748 41.8768 22.4813C41.9033 22.4098 41.9502 22.283 41.9801 22.1994C42.0675 21.9622 42.0962 21.8799 42.1511 21.7053C42.2328 21.4457 42.2674 21.3324 42.2853 21.2583C42.2948 21.2199 42.3062 21.1725 42.3122 21.1525C42.3182 21.1324 42.3306 21.081 42.34 21.0383C42.3496 20.9953 42.3677 20.9159 42.3807 20.8617C42.394 20.808 42.4085 20.7412 42.4131 20.7136C42.418 20.6858 42.4259 20.6487 42.4301 20.6306C42.4378 20.6005 42.4686 20.4381 42.4942 20.2976C42.5005 20.265 42.5079 20.2123 42.5121 20.1798C42.519 20.126 42.5503 19.969 42.5834 19.8175C42.5909 19.7836 42.6024 19.7255 42.6093 19.6887C42.6161 19.6521 42.637 19.5672 42.6548 19.501C42.6729 19.434 42.691 19.3588 42.6944 19.3343C42.7099 19.2199 42.6825 19.1187 42.6216 19.0636C42.5898 19.0344 42.5293 19.0054 42.4925 19.0013L42.4922 19.0008Z" fill="#E55D45"/>
<path fill-rule="evenodd" clip-rule="evenodd" d="M60.4922 38.8C60.4371 38.8058 60.3476 38.7888 60.1964 38.7425C60.159 38.7307 60.0857 38.7094 60.0337 38.6939C59.9816 38.6796 59.937 38.6645 59.9354 38.6606C59.9337 38.6568 59.8785 38.6394 59.813 38.6216C59.7466 38.6036 59.6798 38.583 59.6644 38.5761C59.6487 38.5693 59.6164 38.5597 59.5919 38.5553C59.5678 38.5512 59.5121 38.5355 59.4689 38.521C59.4257 38.5071 59.3723 38.4916 59.3502 38.4867C59.3284 38.4817 59.2662 38.4655 59.2129 38.4506C59.1597 38.4359 59.0762 38.4159 59.0269 38.4068C58.9786 38.397 58.9072 38.382 58.8701 38.3736C58.766 38.3502 58.5525 38.3174 58.404 38.3015C58.3313 38.294 58.2411 38.2836 58.2037 38.279C58.1291 38.2691 57.9612 38.2642 57.8139 38.2677C57.761 38.2689 57.6884 38.2678 57.6534 38.266C57.6181 38.2641 57.5849 38.264 57.5796 38.2663C57.5742 38.2686 57.5353 38.271 57.4933 38.2714C57.3989 38.2725 57.2273 38.2828 57.1058 38.2956C57.0559 38.3012 56.9658 38.3077 56.9055 38.3121C56.8457 38.3156 56.7715 38.3215 56.7404 38.325C56.5958 38.3409 56.4312 38.3569 56.2087 38.378C56.0746 38.3899 55.9465 38.4023 55.9227 38.4053C55.8992 38.4073 55.8415 38.4115 55.7956 38.4142C55.7497 38.4163 55.6547 38.4221 55.5843 38.4263C55.3233 38.4441 55.1413 38.4471 54.9402 38.4387C54.8618 38.4349 54.7836 38.4334 54.7661 38.4347C54.7492 38.4357 54.6828 38.4321 54.6179 38.4258C54.5541 38.4203 54.4725 38.413 54.4362 38.4107C54.4009 38.4081 54.3471 38.4024 54.3177 38.3971C54.2885 38.3925 54.2039 38.3806 54.1307 38.3719C53.7198 38.319 53.229 38.186 52.8575 38.0261C52.668 37.9449 52.6042 37.9164 52.5486 37.8855C52.5165 37.8679 52.4517 37.8327 52.4048 37.808C52.1858 37.6901 51.7993 37.4038 51.6323 37.2352C51.6133 37.2166 51.5756 37.1776 51.5478 37.1502C51.502 37.1032 51.4079 36.9961 51.3513 36.9241C51.3121 36.8753 51.2669 36.8108 51.1983 36.7063C51.0387 36.4632 51.0377 36.461 50.885 36.1068C50.726 35.7379 50.7161 35.7108 50.6321 35.3773C50.5704 35.1331 50.5252 34.8101 50.5182 34.5676C50.514 34.4368 50.5348 34.2105 50.5516 34.2032C50.5539 34.2022 50.5764 34.2142 50.6 34.2299C50.7009 34.2963 50.8263 34.3709 50.8653 34.3875C50.8882 34.3973 50.941 34.4251 50.9832 34.4491C51.1589 34.5507 51.6883 34.7814 51.89 34.8447C51.9298 34.8579 52.0122 34.8835 52.0729 34.9024C52.1632 34.9318 52.3888 34.9946 52.6161 35.055C52.6413 35.0609 52.7013 35.0747 52.7499 35.0843C52.7982 35.0941 52.8667 35.1085 52.9038 35.1169C52.9745 35.1322 53.0144 35.1394 53.1321 35.1568C53.1725 35.1629 53.2473 35.1746 53.2972 35.1837C53.3459 35.1924 53.4728 35.2097 53.5774 35.2228C53.6828 35.2366 53.8396 35.2571 53.9268 35.2689C54.0144 35.2813 54.1498 35.2985 54.2276 35.3073C54.3064 35.3163 54.3952 35.3275 54.4253 35.3323C54.4553 35.3374 54.483 35.3408 54.486 35.3395C54.4967 35.3349 54.9805 35.4101 55.095 35.4354C55.1176 35.4393 55.1611 35.4457 55.1915 35.4495C55.2878 35.4593 55.5378 35.5071 55.6452 35.5363C55.6727 35.5441 55.7459 35.5631 55.8063 35.5791C55.8666 35.5955 55.9579 35.6209 56.0092 35.6355C56.0601 35.6506 56.1331 35.6712 56.1699 35.6815C56.4658 35.7625 56.7203 35.8478 57.0223 35.9678C57.2107 36.0423 57.312 36.0886 57.4313 36.1541C57.5182 36.2022 57.5921 36.2414 57.5958 36.2417C57.5998 36.2426 57.606 36.2381 57.6102 36.2318C57.6227 36.2146 57.5018 36.1001 57.3526 35.9872C57.0118 35.7289 56.4198 35.4459 55.8825 35.2847C55.8117 35.2628 55.7198 35.2341 55.6783 35.2198C55.6377 35.2049 55.5837 35.1887 55.5592 35.1839C55.5345 35.1792 55.4779 35.1651 55.4321 35.1513C55.3877 35.138 55.3134 35.1225 55.2686 35.1175C55.2239 35.1118 55.1677 35.1027 55.1427 35.0972C55.0234 35.0723 54.7183 35.0279 54.4717 35.0004C54.4471 34.9974 54.3853 34.9907 54.3358 34.9845C54.2861 34.978 54.2077 34.9696 54.1603 34.9648C54.114 34.9595 54.0426 34.951 54.0028 34.9447C53.9632 34.9383 53.8755 34.9277 53.8077 34.9208C53.7404 34.914 53.6715 34.905 53.655 34.9015C53.6388 34.8977 53.5829 34.892 53.5317 34.8882C53.4801 34.8834 53.4112 34.8743 53.3786 34.868C53.3458 34.8613 53.2955 34.8533 53.2671 34.8505C53.2178 34.8447 53.1019 34.8273 53.006 34.8094C52.9813 34.8047 52.9086 34.7909 52.8441 34.7793C52.7796 34.7683 52.7008 34.7511 52.67 34.7419C52.6393 34.7338 52.5818 34.7197 52.5433 34.7122C52.5049 34.7044 52.4267 34.6842 52.3707 34.6678C52.3142 34.6518 52.2506 34.6341 52.2295 34.629C52.2077 34.6249 52.1589 34.6098 52.121 34.5975C52.0829 34.5842 52.0094 34.5601 51.9567 34.5432C51.7874 34.4876 51.4254 34.3395 51.2697 34.261C51.1751 34.2135 51.0595 34.151 50.9709 34.0982C50.9319 34.0753 50.8766 34.047 50.8475 34.0342C50.762 33.9973 50.5334 33.8531 50.348 33.7187C50.0949 33.5349 49.9051 33.3693 49.6815 33.1368C49.6094 33.0618 49.5273 32.979 49.4996 32.9542C49.4715 32.9292 49.4424 32.8996 49.4337 32.888C49.4254 32.8771 49.3856 32.8348 49.3451 32.7957C49.3041 32.7554 49.2434 32.6899 49.2099 32.6501C49.1764 32.6106 49.1144 32.5364 49.071 32.4857C49.0281 32.4349 48.9832 32.3794 48.9724 32.3627C48.9614 32.3457 48.9419 32.3216 48.9297 32.3096C48.9037 32.285 48.7764 32.1183 48.7471 32.0715C48.7365 32.0534 48.7129 32.0178 48.6939 31.9907C48.6258 31.8922 48.4984 31.6938 48.4621 31.6309C48.3869 31.5011 48.2193 31.1398 48.1778 31.0189C48.1561 30.9562 48.1098 30.8264 48.075 30.7295C47.9935 30.5015 47.9858 30.4427 48.0239 30.3349C48.0461 30.2731 48.0803 30.2274 48.1079 30.2227C48.1367 30.2184 48.2238 30.2609 48.2731 30.3036C48.3392 30.3607 48.368 30.4104 48.4205 30.5565C48.5621 30.9535 48.6994 31.2765 48.7415 31.3159C48.7593 31.3318 48.7761 31.3622 48.808 31.4359C48.8416 31.5134 48.8632 31.5527 48.9094 31.6175C48.9418 31.6629 48.9996 31.749 49.038 31.8081C49.0768 31.8662 49.129 31.9408 49.1551 31.9738C49.5492 32.467 49.8111 32.7405 50.1381 32.9974C50.4762 33.2633 50.6307 33.3738 50.7967 33.4698C50.8309 33.4902 50.9001 33.5315 50.9507 33.5627C51.0011 33.594 51.0456 33.6191 51.0502 33.6171C51.054 33.6155 51.0929 33.5742 51.137 33.5263C51.2886 33.3576 51.5083 33.1567 51.7865 32.9325C52.0033 32.7564 51.9974 32.7617 52.1457 32.6684C52.1812 32.6466 52.2299 32.6155 52.2554 32.5991C52.281 32.5834 52.3447 32.5472 52.3969 32.5191C52.4492 32.4901 52.5177 32.4522 52.5493 32.434C52.5809 32.4158 52.7276 32.3459 52.8748 32.2793C53.2971 32.0881 53.6565 31.9658 54.0422 31.8817C54.1418 31.8599 54.2534 31.836 54.2896 31.8284C54.502 31.7813 54.9573 31.7283 55.1396 31.7287C55.1846 31.7282 55.2719 31.7294 55.3344 31.7282C55.4961 31.7284 55.6458 31.743 55.8304 31.7759C56.0516 31.8153 56.1336 31.8319 56.2035 31.8515C56.2431 31.862 56.3022 31.8772 56.3353 31.8852C56.4097 31.9028 56.8297 32.068 56.9609 32.1318C57.0149 32.1583 57.0961 32.1979 57.1429 32.2199C57.1886 32.2426 57.2436 32.2719 57.2649 32.2854C57.286 32.2986 57.3574 32.3407 57.4256 32.3788C57.7233 32.5474 58.067 32.8073 58.3235 33.0578C58.3515 33.0855 58.396 33.1275 58.4222 33.1503C58.5892 33.3007 58.9709 33.7353 59.1447 33.9739C59.2326 34.0937 59.3392 34.2477 59.3596 34.2824C59.3718 34.3042 59.4188 34.3793 59.4634 34.4494C59.589 34.645 59.7696 35.026 59.8768 35.3195C59.9033 35.391 59.9502 35.5178 59.9801 35.6014C60.0675 35.8385 60.0962 35.9209 60.1511 36.0955C60.2328 36.3551 60.2674 36.4684 60.2853 36.5425C60.2948 36.5809 60.3062 36.6283 60.3122 36.6483C60.3182 36.6684 60.3306 36.7198 60.34 36.7625C60.3496 36.8055 60.3677 36.8849 60.3807 36.9391C60.394 36.9928 60.4085 37.0596 60.4131 37.0872C60.418 37.115 60.4259 37.152 60.4301 37.1701C60.4378 37.2003 60.4686 37.3627 60.4942 37.5032C60.5005 37.5358 60.5079 37.5885 60.5121 37.621C60.519 37.6748 60.5503 37.8318 60.5834 37.9833C60.5909 38.0172 60.6024 38.0753 60.6093 38.1121C60.6161 38.1486 60.637 38.2335 60.6548 38.2998C60.6729 38.3668 60.691 38.442 60.6944 38.4665C60.7099 38.5809 60.6825 38.6821 60.6216 38.7372C60.5898 38.7664 60.5293 38.7953 60.4925 38.7995L60.4922 38.8Z" fill="#E55D45"/>
</g>
<defs>
<clipPath id="clip0_1548_38870">
<rect width="141" height="64" fill="white"/>
</clipPath>
</defs>
</svg>
