<svg width="40" height="40" viewBox="0 0 40 40" fill="none" xmlns="http://www.w3.org/2000/svg">
<path d="M33.332 11.6665H6.66536C4.82442 11.6665 3.33203 13.1589 3.33203 14.9998V31.6665C3.33203 33.5075 4.82442 34.9998 6.66536 34.9998H33.332C35.173 34.9998 36.6654 33.5075 36.6654 31.6665V14.9998C36.6654 13.1589 35.173 11.6665 33.332 11.6665Z" stroke="#E55D45" stroke-width="2" stroke-linecap="round" stroke-linejoin="round"/>
<path d="M26.6654 35V8.33333C26.6654 7.44928 26.3142 6.60143 25.6891 5.97631C25.0639 5.35119 24.2161 5 23.332 5H16.6654C15.7813 5 14.9335 5.35119 14.3083 5.97631C13.6832 6.60143 13.332 7.44928 13.332 8.33333V35" stroke="#E55D45" stroke-width="2" stroke-linecap="round" stroke-linejoin="round"/>
</svg>
