<svg width="838" height="148" viewBox="0 0 838 148" fill="none" xmlns="http://www.w3.org/2000/svg">
<path d="M708 1H0" stroke="#F7A269" stroke-width="2"/>
<path d="M742.257 68.9392H786.861C793.532 68.9392 798.959 63.5103 798.959 56.8402C798.959 50.1692 793.532 44.7402 786.861 44.7402H675.883C675.366 44.7402 674.944 45.1603 674.944 45.6792C674.944 46.1992 675.366 46.6193 675.883 46.6193H786.861C792.497 46.6193 797.08 51.2042 797.08 56.8402C797.08 62.4762 792.497 67.0613 786.861 67.0613H742.257C741.739 67.0613 741.317 67.4812 741.317 68.0002C741.317 68.5193 741.739 68.9392 742.257 68.9392V68.9392Z" fill="#F7A269"/>
<path d="M743.295 68.9392H774.217C780.891 68.9392 786.318 63.5103 786.318 56.8402C786.318 50.1692 780.891 44.7402 774.217 44.7402H738.83C738.312 44.7402 737.89 45.1603 737.89 45.6792C737.89 46.1992 738.312 46.6193 738.83 46.6193H774.217C779.853 46.6193 784.439 51.2042 784.439 56.8402C784.439 62.4762 779.853 67.0613 774.217 67.0613H743.295C742.778 67.0613 742.356 67.4812 742.356 68.0002C742.356 68.5193 742.778 68.9392 743.295 68.9392V68.9392Z" fill="#F7A269"/>
<path d="M734.412 68.9392H761.572C768.247 68.9392 773.674 63.5103 773.674 56.8402C773.674 50.1692 768.247 44.7402 761.572 44.7402H726.185C725.668 44.7402 725.246 45.1603 725.246 45.6792C725.246 46.1992 725.668 46.6193 726.185 46.6193H761.572C767.208 46.6193 771.795 51.2042 771.795 56.8402C771.795 62.4762 767.208 67.0613 761.572 67.0613H734.412C733.895 67.0613 733.473 67.4812 733.473 68.0002C733.473 68.5193 733.895 68.9392 734.412 68.9392V68.9392Z" fill="#F7A269"/>
<path d="M691.448 24.2991H722.369C729.04 24.2991 734.467 18.8701 734.467 12.1991C734.467 5.52808 729.04 0.100098 722.369 0.100098H683.225C682.708 0.100098 682.286 0.520138 682.286 1.03906C682.286 1.5581 682.708 1.97815 683.225 1.97815H722.369C728.005 1.97815 732.588 6.56311 732.588 12.1991C732.588 17.8351 728.005 22.4202 722.369 22.4202H691.448C690.931 22.4202 690.509 22.8401 690.509 23.3591C690.509 23.8782 690.931 24.2991 691.448 24.2991V24.2991Z" fill="#F7A269"/>
<path d="M678.803 24.2991H709.725C716.399 24.2991 721.826 18.8701 721.826 12.1991C721.826 5.52808 716.399 0.100098 709.725 0.100098H670.581C670.063 0.100098 669.642 0.520138 669.642 1.03906C669.642 1.5581 670.063 1.97815 670.581 1.97815H709.725C715.361 1.97815 719.947 6.56311 719.947 12.1991C719.947 17.8351 715.361 22.4202 709.725 22.4202H678.803C678.286 22.4202 677.864 22.8401 677.864 23.3591C677.864 23.8782 678.286 24.2991 678.803 24.2991V24.2991Z" fill="#F7A269"/>
<path d="M681.086 46.6189H712.007C712.525 46.6189 712.947 46.1988 712.947 45.6788C712.947 45.1599 712.525 44.7399 712.007 44.7399H681.086C675.45 44.7399 670.867 40.1549 670.867 34.5189C670.867 28.8829 675.45 24.2988 681.086 24.2988H720.23C720.747 24.2988 721.169 23.8779 721.169 23.3589C721.169 22.8398 720.747 22.4199 720.23 22.4199H681.086C674.415 22.4199 668.988 27.8489 668.988 34.5189C668.988 41.1898 674.415 46.6189 681.086 46.6189V46.6189Z" fill="#F7A269"/>
<path d="M714.649 80.1C715.167 80.1 715.589 79.68 715.589 79.16C715.589 73.524 720.175 68.939 725.811 68.939H775.699C776.216 68.939 776.638 68.519 776.638 68C776.638 67.481 776.216 67.061 775.699 67.061H725.811C719.137 67.061 713.71 72.489 713.71 79.16C713.71 79.6801 714.132 80.1 714.649 80.1L714.649 80.1Z" fill="#F7A269"/>
<path d="M668.441 46.6189H779.42C779.937 46.6189 780.359 46.1988 780.359 45.6788C780.359 45.1599 779.937 44.7399 779.42 44.7399H668.441C662.805 44.7399 658.223 40.1549 658.223 34.5189C658.223 28.8829 662.805 24.2988 668.441 24.2988H719.544C720.061 24.2988 720.483 23.8779 720.483 23.3589C720.483 22.8398 720.061 22.4199 719.544 22.4199H668.441C661.771 22.4199 656.344 27.8489 656.344 34.5189C656.344 41.1898 661.771 46.6189 668.441 46.6189V46.6189Z" fill="#F7A269"/>
<path d="M681.17 24.2991H735.014C741.685 24.2991 747.111 18.8701 747.111 12.1991C747.111 5.52808 741.685 0.100098 735.014 0.100098H620.278C619.761 0.100098 619.339 0.520138 619.339 1.03906C619.339 1.5581 619.761 1.97815 620.278 1.97815H735.014C740.65 1.97815 745.233 6.56311 745.233 12.1991C745.233 17.8351 740.65 22.4202 735.014 22.4202H681.17C680.653 22.4202 680.231 22.8401 680.231 23.3591C680.231 23.8782 680.653 24.2991 681.17 24.2991V24.2991Z" fill="#F7A269"/>
<g opacity="0.5">
<g style="mix-blend-mode:color-burn">
<path fill-rule="evenodd" clip-rule="evenodd" d="M827.254 127.064H781.537C776.691 127.064 772.747 123.122 772.747 118.276C772.747 113.43 776.691 109.488 781.537 109.488H802.269C802.714 109.488 803.076 109.127 803.076 108.68C803.076 108.234 802.714 107.872 802.269 107.872H770.664C764.925 107.872 760.259 112.54 760.259 118.276C760.259 124.012 764.925 128.68 770.664 128.68H816.384C821.23 128.68 825.171 132.622 825.171 137.467C825.171 142.313 821.23 146.257 816.384 146.257H789.797C789.352 146.257 788.989 146.62 788.989 147.065C788.989 147.51 789.352 147.872 789.797 147.872H827.254C832.992 147.872 837.659 143.206 837.659 137.467C837.659 131.731 832.992 127.064 827.254 127.064ZM761.874 118.276C761.874 113.43 765.818 109.488 770.664 109.488H776.024C773.096 111.331 771.131 114.569 771.131 118.276C771.131 121.983 773.096 125.222 776.024 127.064H770.664C765.818 127.064 761.874 123.122 761.874 118.276ZM827.254 146.257H821.895C824.822 144.414 826.786 141.176 826.786 137.467C826.786 133.76 824.822 130.523 821.895 128.68H827.254C832.1 128.68 836.044 132.622 836.044 137.467C836.044 142.313 832.1 146.257 827.254 146.257Z" fill="#D5B270"/>
</g>
<path opacity="0.5" fill-rule="evenodd" clip-rule="evenodd" d="M827.254 127.064H781.537C776.691 127.064 772.747 123.122 772.747 118.276C772.747 113.43 776.691 109.488 781.537 109.488H802.269C802.714 109.488 803.076 109.127 803.076 108.68C803.076 108.234 802.714 107.872 802.269 107.872H770.664C764.925 107.872 760.259 112.54 760.259 118.276C760.259 124.012 764.925 128.68 770.664 128.68H816.384C821.23 128.68 825.171 132.622 825.171 137.467C825.171 142.313 821.23 146.257 816.384 146.257H789.797C789.352 146.257 788.989 146.62 788.989 147.065C788.989 147.51 789.352 147.872 789.797 147.872H827.254C832.992 147.872 837.659 143.206 837.659 137.467C837.659 131.731 832.992 127.064 827.254 127.064ZM761.874 118.276C761.874 113.43 765.818 109.488 770.664 109.488H776.024C773.096 111.331 771.131 114.569 771.131 118.276C771.131 121.983 773.096 125.222 776.024 127.064H770.664C765.818 127.064 761.874 123.122 761.874 118.276ZM827.254 146.257H821.895C824.822 144.414 826.786 141.176 826.786 137.467C826.786 133.76 824.822 130.523 821.895 128.68H827.254C832.1 128.68 836.044 132.622 836.044 137.467C836.044 142.313 832.1 146.257 827.254 146.257Z" fill="#D5B270"/>
</g>
</svg>
