<svg width="1230" height="148" viewBox="0 0 1230 148" fill="none" xmlns="http://www.w3.org/2000/svg">
<path d="M1100 0.999756H0" stroke="#F7A269" stroke-width="2"/>
<path d="M1134.26 68.939H1178.86C1185.53 68.939 1190.96 63.51 1190.96 56.84C1190.96 50.169 1185.53 44.74 1178.86 44.74H1067.88C1067.37 44.74 1066.94 45.16 1066.94 45.679C1066.94 46.199 1067.37 46.619 1067.88 46.619H1178.86C1184.5 46.619 1189.08 51.204 1189.08 56.84C1189.08 62.476 1184.5 67.061 1178.86 67.061H1134.26C1133.74 67.061 1133.32 67.481 1133.32 68C1133.32 68.519 1133.74 68.9389 1134.26 68.9389V68.939Z" fill="#F7A269"/>
<path d="M1135.3 68.939H1166.22C1172.89 68.939 1178.32 63.51 1178.32 56.84C1178.32 50.169 1172.89 44.74 1166.22 44.74H1130.83C1130.31 44.74 1129.89 45.16 1129.89 45.679C1129.89 46.199 1130.31 46.619 1130.83 46.619H1166.22C1171.85 46.619 1176.44 51.204 1176.44 56.84C1176.44 62.476 1171.85 67.061 1166.22 67.061H1135.3C1134.78 67.061 1134.36 67.481 1134.36 68C1134.36 68.519 1134.78 68.9389 1135.3 68.9389V68.939Z" fill="#F7A269"/>
<path d="M1126.41 68.939H1153.57C1160.25 68.939 1165.67 63.51 1165.67 56.84C1165.67 50.169 1160.25 44.74 1153.57 44.74H1118.19C1117.67 44.74 1117.25 45.16 1117.25 45.679C1117.25 46.199 1117.67 46.619 1118.19 46.619H1153.57C1159.21 46.619 1163.8 51.204 1163.8 56.84C1163.8 62.476 1159.21 67.061 1153.57 67.061H1126.41C1125.9 67.061 1125.47 67.481 1125.47 68C1125.47 68.519 1125.9 68.9389 1126.41 68.9389V68.939Z" fill="#F7A269"/>
<path d="M1083.45 24.299H1114.37C1121.04 24.299 1126.47 18.87 1126.47 12.199C1126.47 5.52796 1121.04 0.0999756 1114.37 0.0999756H1075.22C1074.71 0.0999756 1074.29 0.520016 1074.29 1.03894C1074.29 1.55798 1074.71 1.97803 1075.22 1.97803H1114.37C1120.01 1.97803 1124.59 6.56299 1124.59 12.199C1124.59 17.835 1120 22.42 1114.37 22.42H1083.45C1082.93 22.42 1082.51 22.84 1082.51 23.359C1082.51 23.878 1082.93 24.2989 1083.45 24.2989V24.299Z" fill="#F7A269"/>
<path d="M1070.8 24.299H1101.72C1108.4 24.299 1113.83 18.87 1113.83 12.199C1113.83 5.52796 1108.4 0.0999756 1101.72 0.0999756H1062.58C1062.06 0.0999756 1061.64 0.520016 1061.64 1.03894C1061.64 1.55798 1062.06 1.97803 1062.58 1.97803H1101.72C1107.36 1.97803 1111.95 6.56299 1111.95 12.199C1111.95 17.835 1107.36 22.42 1101.72 22.42H1070.8C1070.29 22.42 1069.86 22.84 1069.86 23.359C1069.86 23.878 1070.29 24.2989 1070.8 24.2989V24.299Z" fill="#F7A269"/>
<path d="M1073.09 46.6189H1104.01C1104.53 46.6189 1104.95 46.1988 1104.95 45.6788C1104.95 45.1599 1104.53 44.7399 1104.01 44.7399H1073.09C1067.45 44.7399 1062.87 40.1549 1062.87 34.5189C1062.87 28.8829 1067.45 24.2988 1073.09 24.2988H1112.23C1112.75 24.2988 1113.17 23.8779 1113.17 23.3589C1113.17 22.8398 1112.75 22.4199 1112.23 22.4199H1073.09C1066.42 22.4199 1060.99 27.8489 1060.99 34.5189C1060.99 41.1898 1066.42 46.6189 1073.09 46.6189V46.6189Z" fill="#F7A269"/>
<path d="M1106.65 80.1C1107.17 80.1 1107.59 79.68 1107.59 79.16C1107.59 73.524 1112.18 68.939 1117.81 68.939H1167.7C1168.22 68.939 1168.64 68.519 1168.64 68C1168.64 67.481 1168.22 67.061 1167.7 67.061H1117.81C1111.14 67.061 1105.71 72.489 1105.71 79.16C1105.71 79.6801 1106.13 80.1 1106.65 80.1L1106.65 80.1Z" fill="#F7A269"/>
<path d="M1060.44 46.6189H1171.42C1171.94 46.6189 1172.36 46.1988 1172.36 45.6788C1172.36 45.1599 1171.94 44.7399 1171.42 44.7399H1060.44C1054.81 44.7399 1050.22 40.1549 1050.22 34.5189C1050.22 28.8829 1054.81 24.2988 1060.44 24.2988H1111.54C1112.06 24.2988 1112.48 23.8779 1112.48 23.3589C1112.48 22.8398 1112.06 22.4199 1111.54 22.4199H1060.44C1053.77 22.4199 1048.34 27.8489 1048.34 34.5189C1048.34 41.1898 1053.77 46.6189 1060.44 46.6189V46.6189Z" fill="#F7A269"/>
<path d="M1073.17 24.299H1127.01C1133.69 24.299 1139.11 18.87 1139.11 12.199C1139.11 5.52796 1133.69 0.0999756 1127.01 0.0999756H1012.28C1011.76 0.0999756 1011.34 0.520016 1011.34 1.03894C1011.34 1.55798 1011.76 1.97803 1012.28 1.97803H1127.01C1132.65 1.97803 1137.23 6.56299 1137.23 12.199C1137.23 17.835 1132.65 22.42 1127.01 22.42H1073.17C1072.65 22.42 1072.23 22.84 1072.23 23.359C1072.23 23.878 1072.65 24.2989 1073.17 24.2989V24.299Z" fill="#F7A269"/>
<g opacity="0.5">
<g style="mix-blend-mode:color-burn">
<path fill-rule="evenodd" clip-rule="evenodd" d="M1219.25 127.064H1173.54C1168.69 127.064 1164.75 123.122 1164.75 118.276C1164.75 113.43 1168.69 109.488 1173.54 109.488H1194.27C1194.71 109.488 1195.08 109.127 1195.08 108.68C1195.08 108.234 1194.71 107.872 1194.27 107.872H1162.66C1156.93 107.872 1152.26 112.54 1152.26 118.276C1152.26 124.012 1156.93 128.68 1162.66 128.68H1208.38C1213.23 128.68 1217.17 132.622 1217.17 137.467C1217.17 142.313 1213.23 146.257 1208.38 146.257H1181.8C1181.35 146.257 1180.99 146.62 1180.99 147.065C1180.99 147.51 1181.35 147.872 1181.8 147.872H1219.25C1224.99 147.872 1229.66 143.206 1229.66 137.467C1229.66 131.731 1224.99 127.064 1219.25 127.064ZM1153.87 118.276C1153.87 113.43 1157.82 109.488 1162.66 109.488H1168.02C1165.1 111.331 1163.13 114.569 1163.13 118.276C1163.13 121.983 1165.1 125.222 1168.02 127.064H1162.66C1157.82 127.064 1153.87 123.122 1153.87 118.276ZM1219.25 146.257H1213.9C1216.82 144.414 1218.79 141.176 1218.79 137.467C1218.79 133.76 1216.82 130.523 1213.9 128.68H1219.25C1224.1 128.68 1228.04 132.622 1228.04 137.467C1228.04 142.313 1224.1 146.257 1219.25 146.257Z" fill="#D5B270"/>
</g>
<path opacity="0.5" fill-rule="evenodd" clip-rule="evenodd" d="M1219.25 127.064H1173.54C1168.69 127.064 1164.75 123.122 1164.75 118.276C1164.75 113.43 1168.69 109.488 1173.54 109.488H1194.27C1194.71 109.488 1195.08 109.127 1195.08 108.68C1195.08 108.234 1194.71 107.872 1194.27 107.872H1162.66C1156.93 107.872 1152.26 112.54 1152.26 118.276C1152.26 124.012 1156.93 128.68 1162.66 128.68H1208.38C1213.23 128.68 1217.17 132.622 1217.17 137.467C1217.17 142.313 1213.23 146.257 1208.38 146.257H1181.8C1181.35 146.257 1180.99 146.62 1180.99 147.065C1180.99 147.51 1181.35 147.872 1181.8 147.872H1219.25C1224.99 147.872 1229.66 143.206 1229.66 137.467C1229.66 131.731 1224.99 127.064 1219.25 127.064ZM1153.87 118.276C1153.87 113.43 1157.82 109.488 1162.66 109.488H1168.02C1165.1 111.331 1163.13 114.569 1163.13 118.276C1163.13 121.983 1165.1 125.222 1168.02 127.064H1162.66C1157.82 127.064 1153.87 123.122 1153.87 118.276ZM1219.25 146.257H1213.9C1216.82 144.414 1218.79 141.176 1218.79 137.467C1218.79 133.76 1216.82 130.523 1213.9 128.68H1219.25C1224.1 128.68 1228.04 132.622 1228.04 137.467C1228.04 142.313 1224.1 146.257 1219.25 146.257Z" fill="#D5B270"/>
</g>
</svg>
