<svg width="31" height="30" viewBox="0 0 31 30" fill="none" xmlns="http://www.w3.org/2000/svg">
<path d="M15.8438 0C7.57803 0 0.875 6.717 0.875 15C0.875 23.283 7.57803 30 15.8438 30C24.1096 30 30.8126 23.283 30.8126 15C30.8126 6.717 24.1096 0 15.8438 0ZM22.6784 11.6954C22.685 11.843 22.6882 11.9913 22.6882 12.1404C22.6882 16.6898 19.2324 21.936 12.9127 21.9363C10.9724 21.9363 9.16682 21.3663 7.64632 20.3897C7.91516 20.4215 8.18879 20.4373 8.46584 20.4373C10.0757 20.4373 11.5571 19.8871 12.7332 18.9635C11.2291 18.9356 9.96099 17.9402 9.52336 16.5722C9.73281 16.6125 9.9482 16.6344 10.1691 16.6344C10.4827 16.6344 10.7864 16.5921 11.0752 16.5131C9.50304 16.1977 8.31875 14.8055 8.31875 13.1383C8.31875 13.1227 8.31875 13.1087 8.31921 13.0943C8.78219 13.3523 9.31163 13.5075 9.87534 13.5249C8.95281 12.908 8.34639 11.8536 8.34639 10.659C8.34639 10.0282 8.51655 9.43726 8.81165 8.92845C10.506 11.0117 13.0381 12.3818 15.8936 12.5258C15.8347 12.2736 15.8043 12.0108 15.8043 11.7407C15.8043 9.84009 17.3431 8.29811 19.2404 8.29811C20.2288 8.29811 21.1214 8.71674 21.7483 9.38599C22.5311 9.23126 23.2661 8.9447 23.9301 8.55034C23.6731 9.35394 23.1286 10.0282 22.4192 10.4546C23.1142 10.3713 23.7766 10.1866 24.3921 9.91241C23.9324 10.603 23.3492 11.2095 22.6784 11.6954Z" fill="white"/>
</svg>
