<svg width="40" height="40" viewBox="0 0 40 40" fill="none" xmlns="http://www.w3.org/2000/svg">
<path d="M19.9987 36.6668C29.2034 36.6668 36.6654 29.2049 36.6654 20.0002C36.6654 10.7954 29.2034 3.3335 19.9987 3.3335C10.794 3.3335 3.33203 10.7954 3.33203 20.0002C3.33203 29.2049 10.794 36.6668 19.9987 36.6668Z" stroke="#E55D45" stroke-width="2" stroke-linecap="round" stroke-linejoin="round"/>
<path d="M19.9987 26.6668C23.6806 26.6668 26.6654 23.6821 26.6654 20.0002C26.6654 16.3183 23.6806 13.3335 19.9987 13.3335C16.3168 13.3335 13.332 16.3183 13.332 20.0002C13.332 23.6821 16.3168 26.6668 19.9987 26.6668Z" stroke="#E55D45" stroke-width="2" stroke-linecap="round" stroke-linejoin="round"/>
<path d="M8.21484 8.2168L15.2815 15.2835" stroke="#E55D45" stroke-width="2" stroke-linecap="round" stroke-linejoin="round"/>
<path d="M24.7148 24.7168L31.7815 31.7835" stroke="#E55D45" stroke-width="2" stroke-linecap="round" stroke-linejoin="round"/>
<path d="M24.7148 15.2835L31.7815 8.2168" stroke="#E55D45" stroke-width="2" stroke-linecap="round" stroke-linejoin="round"/>
<path d="M24.7148 15.2832L30.5982 9.3999" stroke="#E55D45" stroke-width="2" stroke-linecap="round" stroke-linejoin="round"/>
<path d="M8.21484 31.7835L15.2815 24.7168" stroke="#E55D45" stroke-width="2" stroke-linecap="round" stroke-linejoin="round"/>
</svg>
